M48
; DRILL file {KiCad 9.0.1} date 2025-04-15T15:10:41-0700
; FORMAT={-:-/ absolute / inch / decimal}
; #@! TF.CreationDate,2025-04-15T15:10:41-07:00
; #@! TF.GenerationSoftware,Kicad,Pcbnew,9.0.1
; #@! TF.FileFunction,Plated,1,4,PTH
FMAT,2
INCH
; #@! TA.AperFunction,Plated,PTH,ViaDrill
T1C0.0118
; #@! TA.AperFunction,Plated,PTH,ComponentDrill
T2C0.0374
; #@! TA.AperFunction,Plated,PTH,ComponentDrill
T3C0.0390
; #@! TA.AperFunction,Plated,PTH,ComponentDrill
T4C0.0402
; #@! TA.AperFunction,Plated,PTH,ComponentDrill
T5C0.0512
; #@! TA.AperFunction,Plated,PTH,ComponentDrill
T6C0.0709
%
G90
G05
T1
X5.5549Y-2.9382
X5.5753Y-3.1765
X5.6137Y-3.382
X5.7156Y-2.9995
X5.7647Y-3.3957
X5.8544Y-3.3276
X5.8898Y-3.1142
X5.8996Y-3.7461
X5.9055Y-3.0118
X5.9173Y-3.689
X5.9597Y-3.2771
X5.9734Y-3.3394
X5.9882Y-2.9291
X5.9934Y-3.563
X6.0365Y-3.344
X6.063Y-2.9907
X6.1614Y-2.9528
X6.378Y-3.0512
X6.437Y-5.1181
X6.5551Y-4.9016
X6.6929Y-5.1772
X6.752Y-4.7441
X6.7717Y-5.1732
X6.7972Y-2.8681
X6.8031Y-2.687
X6.8307Y-3.2283
X6.8661Y-5.2795
X6.8898Y-4.685
X6.9685Y-4.8031
X7.0276Y-4.8031
X7.0945Y-4.9409
X7.185Y-2.7165
X7.2244Y-3.3071
X7.2835Y-3.0118
X7.2835Y-3.248
X7.4047Y-4.4449
X7.4315Y-4.7776
X7.4409Y-5.2165
X7.5591Y-3.0315
X7.6969Y-3.248
T2
X5.315Y-3.878
X5.315Y-3.4843
X5.315Y-3.5827
X5.315Y-3.6811
X5.315Y-3.7795
X5.315Y-3.9764
T3
X5.315Y-3.0315
X5.315Y-3.1299
X5.315Y-3.2283
X5.5696Y-2.8083
X5.6144Y-3.9032
X5.668Y-2.8083
X5.684Y-3.8336
X5.7536Y-3.764
X5.7664Y-2.8083
X7.3425Y-2.815
X7.4409Y-2.815
T4
X5.3049Y-4.4817
X5.3756Y-4.411
X5.4463Y-4.3403
X5.517Y-4.2696
X5.5877Y-4.1989
X5.6584Y-4.1282
X5.7291Y-4.0575
X5.7998Y-3.9867
X5.8705Y-3.916
X5.9413Y-3.8453
X6.012Y-3.7746
X6.012Y-5.1888
X6.0827Y-3.7039
X6.0827Y-5.1181
X6.1534Y-3.6332
X6.1534Y-5.0474
X6.2241Y-3.5625
X6.2241Y-4.9767
X6.2948Y-3.4918
X6.2948Y-4.906
X6.3655Y-3.4211
X6.3655Y-4.8353
X6.4362Y-3.3503
X6.4362Y-4.7646
X6.5069Y-3.2796
X6.5069Y-4.6938
X6.5777Y-3.2089
X6.5777Y-4.6231
X6.6484Y-4.5524
X6.7191Y-4.4817
X6.7898Y-4.411
X6.8605Y-4.3403
X6.9312Y-4.2696
X7.0019Y-4.1989
X7.0726Y-4.1282
X7.1433Y-4.0575
X7.214Y-3.9867
X7.2848Y-3.916
T5
X7.656Y-4.6654
X7.656Y-4.8622
X7.6575Y-3.7992
X7.6575Y-3.9961
X7.6575Y-4.2323
X7.6575Y-4.4291
T6
X6.0433Y-2.7953
X6.2402Y-2.7953
X6.4764Y-2.7953
X6.6732Y-2.7953
M30
