%TF.GenerationSoftware,KiCad,Pcbnew,9.0.1*%
%TF.CreationDate,2025-04-15T15:10:41-07:00*%
%TF.ProjectId,IO:Sensor Board,494f3a53-656e-4736-9f72-20426f617264,rev?*%
%TF.SameCoordinates,Original*%
%TF.FileFunction,Copper,L1,Top*%
%TF.FilePolarity,Positive*%
%FSLAX46Y46*%
G04 Gerber Fmt 4.6, Leading zero omitted, Abs format (unit mm)*
G04 Created by KiCad (PCBNEW 9.0.1) date 2025-04-15 15:10:41*
%MOMM*%
%LPD*%
G01*
G04 APERTURE LIST*
G04 Aperture macros list*
%AMRoundRect*
0 Rectangle with rounded corners*
0 $1 Rounding radius*
0 $2 $3 $4 $5 $6 $7 $8 $9 X,Y pos of 4 corners*
0 Add a 4 corners polygon primitive as box body*
4,1,4,$2,$3,$4,$5,$6,$7,$8,$9,$2,$3,0*
0 Add four circle primitives for the rounded corners*
1,1,$1+$1,$2,$3*
1,1,$1+$1,$4,$5*
1,1,$1+$1,$6,$7*
1,1,$1+$1,$8,$9*
0 Add four rect primitives between the rounded corners*
20,1,$1+$1,$2,$3,$4,$5,0*
20,1,$1+$1,$4,$5,$6,$7,0*
20,1,$1+$1,$6,$7,$8,$9,0*
20,1,$1+$1,$8,$9,$2,$3,0*%
%AMRotRect*
0 Rectangle, with rotation*
0 The origin of the aperture is its center*
0 $1 length*
0 $2 width*
0 $3 Rotation angle, in degrees counterclockwise*
0 Add horizontal line*
21,1,$1,$2,0,0,$3*%
%AMFreePoly0*
4,1,23,0.499999,-0.750000,0.000000,-0.750000,0.000000,-0.745722,-0.065263,-0.745722,-0.191342,-0.711940,-0.304381,-0.646677,-0.396677,-0.554382,-0.461940,-0.441342,-0.495722,-0.315263,-0.495722,-0.250000,-0.500000,-0.250000,-0.500000,0.250000,-0.495722,0.250000,-0.495722,0.315263,-0.461940,0.441342,-0.396677,0.554382,-0.304381,0.646677,-0.191342,0.711940,-0.065263,0.745722,0.000000,0.745722,
0.000000,0.750000,0.499999,0.750000,0.499999,-0.750000,0.499999,-0.750000,$1*%
%AMFreePoly1*
4,1,23,0.000000,0.745722,0.065263,0.745722,0.191342,0.711940,0.304381,0.646677,0.396677,0.554382,0.461940,0.441342,0.495722,0.315263,0.495722,0.250000,0.500000,0.250000,0.500000,-0.250000,0.495722,-0.250000,0.495722,-0.315263,0.461940,-0.441342,0.396677,-0.554382,0.304381,-0.646677,0.191342,-0.711940,0.065263,-0.745722,0.000000,-0.745722,0.000000,-0.750000,-0.499999,-0.750000,
-0.499999,0.750000,0.000000,0.750000,0.000000,0.745722,0.000000,0.745722,$1*%
G04 Aperture macros list end*
%TA.AperFunction,SMDPad,CuDef*%
%ADD10RoundRect,0.250000X-0.337500X-0.475000X0.337500X-0.475000X0.337500X0.475000X-0.337500X0.475000X0*%
%TD*%
%TA.AperFunction,ComponentPad*%
%ADD11C,1.498600*%
%TD*%
%TA.AperFunction,SMDPad,CuDef*%
%ADD12RoundRect,0.250000X-0.350000X-0.450000X0.350000X-0.450000X0.350000X0.450000X-0.350000X0.450000X0*%
%TD*%
%TA.AperFunction,SMDPad,CuDef*%
%ADD13RoundRect,0.250000X0.574524X0.097227X0.097227X0.574524X-0.574524X-0.097227X-0.097227X-0.574524X0*%
%TD*%
%TA.AperFunction,SMDPad,CuDef*%
%ADD14RoundRect,0.250000X0.450000X-0.350000X0.450000X0.350000X-0.450000X0.350000X-0.450000X-0.350000X0*%
%TD*%
%TA.AperFunction,SMDPad,CuDef*%
%ADD15RoundRect,0.116250X-0.348750X0.873750X-0.348750X-0.873750X0.348750X-0.873750X0.348750X0.873750X0*%
%TD*%
%TA.AperFunction,SMDPad,CuDef*%
%ADD16RoundRect,0.247500X-1.367500X0.742500X-1.367500X-0.742500X1.367500X-0.742500X1.367500X0.742500X0*%
%TD*%
%TA.AperFunction,SMDPad,CuDef*%
%ADD17FreePoly0,315.000000*%
%TD*%
%TA.AperFunction,SMDPad,CuDef*%
%ADD18FreePoly1,315.000000*%
%TD*%
%TA.AperFunction,SMDPad,CuDef*%
%ADD19RoundRect,0.150000X-0.468458X0.256326X0.256326X-0.468458X0.468458X-0.256326X-0.256326X0.468458X0*%
%TD*%
%TA.AperFunction,SMDPad,CuDef*%
%ADD20RoundRect,0.250000X0.337500X0.475000X-0.337500X0.475000X-0.337500X-0.475000X0.337500X-0.475000X0*%
%TD*%
%TA.AperFunction,SMDPad,CuDef*%
%ADD21RoundRect,0.250000X-0.493584X-0.309687X0.130035X-0.567998X0.493584X0.309687X-0.130035X0.567998X0*%
%TD*%
%TA.AperFunction,ComponentPad*%
%ADD22R,1.950000X1.950000*%
%TD*%
%TA.AperFunction,ComponentPad*%
%ADD23C,1.950000*%
%TD*%
%TA.AperFunction,SMDPad,CuDef*%
%ADD24RoundRect,0.250000X0.097227X-0.574524X0.574524X-0.097227X-0.097227X0.574524X-0.574524X0.097227X0*%
%TD*%
%TA.AperFunction,SMDPad,CuDef*%
%ADD25FreePoly0,90.000000*%
%TD*%
%TA.AperFunction,SMDPad,CuDef*%
%ADD26FreePoly1,90.000000*%
%TD*%
%TA.AperFunction,ComponentPad*%
%ADD27C,2.700000*%
%TD*%
%TA.AperFunction,SMDPad,CuDef*%
%ADD28RotRect,0.254000X0.279400X135.000000*%
%TD*%
%TA.AperFunction,SMDPad,CuDef*%
%ADD29RotRect,0.254000X0.254000X45.000000*%
%TD*%
%TA.AperFunction,SMDPad,CuDef*%
%ADD30RoundRect,0.250000X-0.574524X-0.097227X-0.097227X-0.574524X0.574524X0.097227X0.097227X0.574524X0*%
%TD*%
%TA.AperFunction,SMDPad,CuDef*%
%ADD31R,0.650000X1.100000*%
%TD*%
%TA.AperFunction,SMDPad,CuDef*%
%ADD32RoundRect,0.150000X-0.530891X0.057543X0.416086X-0.334707X0.530891X-0.057543X-0.416086X0.334707X0*%
%TD*%
%TA.AperFunction,ComponentPad*%
%ADD33RotRect,1.530000X1.530000X135.000000*%
%TD*%
%TA.AperFunction,ComponentPad*%
%ADD34C,1.530000*%
%TD*%
%TA.AperFunction,SMDPad,CuDef*%
%ADD35R,0.660400X0.203200*%
%TD*%
%TA.AperFunction,SMDPad,CuDef*%
%ADD36R,0.203200X0.660400*%
%TD*%
%TA.AperFunction,SMDPad,CuDef*%
%ADD37RoundRect,0.250000X-0.567998X0.130035X-0.309687X-0.493584X0.567998X-0.130035X0.309687X0.493584X0*%
%TD*%
%TA.AperFunction,ComponentPad*%
%ADD38RoundRect,0.250000X-0.725000X0.600000X-0.725000X-0.600000X0.725000X-0.600000X0.725000X0.600000X0*%
%TD*%
%TA.AperFunction,ComponentPad*%
%ADD39O,1.950000X1.700000*%
%TD*%
%TA.AperFunction,SMDPad,CuDef*%
%ADD40FreePoly0,270.000000*%
%TD*%
%TA.AperFunction,SMDPad,CuDef*%
%ADD41FreePoly1,270.000000*%
%TD*%
%TA.AperFunction,SMDPad,CuDef*%
%ADD42RoundRect,0.250000X-0.097227X0.574524X-0.574524X0.097227X0.097227X-0.574524X0.574524X-0.097227X0*%
%TD*%
%TA.AperFunction,ViaPad*%
%ADD43C,0.600000*%
%TD*%
%TA.AperFunction,ViaPad*%
%ADD44C,0.800000*%
%TD*%
%TA.AperFunction,Conductor*%
%ADD45C,1.000000*%
%TD*%
%TA.AperFunction,Conductor*%
%ADD46C,0.175000*%
%TD*%
%TA.AperFunction,Conductor*%
%ADD47C,0.200000*%
%TD*%
%TA.AperFunction,Conductor*%
%ADD48C,0.500000*%
%TD*%
%TA.AperFunction,Conductor*%
%ADD49C,0.250000*%
%TD*%
%TA.AperFunction,Conductor*%
%ADD50C,0.750000*%
%TD*%
%TA.AperFunction,Conductor*%
%ADD51C,1.500000*%
%TD*%
G04 APERTURE END LIST*
D10*
%TO.P,C9,1*%
%TO.N,GND*%
X184925000Y-88000000D03*
%TO.P,C9,2*%
%TO.N,Net-(JP3-A)*%
X187000000Y-88000000D03*
%TD*%
D11*
%TO.P,J1,1,1*%
%TO.N,PYRO_1*%
X146142393Y-95606859D03*
%TO.P,J1,2,2*%
%TO.N,PYRO_2*%
X144374626Y-97374626D03*
%TO.P,J1,3,3*%
%TO.N,PYRO_3*%
X142606859Y-99142393D03*
%TD*%
D12*
%TO.P,R2,1*%
%TO.N,PYRO_6*%
X185500000Y-129500000D03*
%TO.P,R2,2*%
%TO.N,GND*%
X187500000Y-129500000D03*
%TD*%
D13*
%TO.P,C3,1*%
%TO.N,+3.3V_b*%
X148649714Y-89382812D03*
%TO.P,C3,2*%
%TO.N,GND*%
X147182468Y-87915566D03*
%TD*%
D14*
%TO.P,R3,1*%
%TO.N,Net-(Q2-Pad1)*%
X184760000Y-117850002D03*
%TO.P,R3,2*%
%TO.N,PYRO_7*%
X184760000Y-115850000D03*
%TD*%
D15*
%TO.P,U7,1,GND*%
%TO.N,GND*%
X191800001Y-79484998D03*
%TO.P,U7,2,VOUT*%
%TO.N,Net-(JP3-A)*%
X189500000Y-79485000D03*
%TO.P,U7,3,VIN*%
%TO.N,+12V*%
X187200001Y-79485000D03*
D16*
%TO.P,U7,4,VOUT*%
%TO.N,Net-(JP3-A)*%
X189500000Y-85515000D03*
%TD*%
D17*
%TO.P,JP3,1,A*%
%TO.N,Net-(JP3-A)*%
X184580762Y-92580762D03*
D18*
%TO.P,JP3,2,B*%
%TO.N,+5V_a*%
X185500000Y-93500000D03*
%TD*%
D19*
%TO.P,U5,1,IN*%
%TO.N,+5V_b*%
X156343503Y-76962040D03*
%TO.P,U5,2,GND*%
%TO.N,GND*%
X155671752Y-77633791D03*
%TO.P,U5,3,EN*%
%TO.N,+5V_b*%
X155000001Y-78305542D03*
%TO.P,U5,4,BP*%
%TO.N,Net-(U5-BP)*%
X156608669Y-79914210D03*
%TO.P,U5,5,OUT*%
%TO.N,+1.8V*%
X157952171Y-78570708D03*
%TD*%
D20*
%TO.P,C14,1*%
%TO.N,GND*%
X178537500Y-69000000D03*
%TO.P,C14,2*%
%TO.N,+12V*%
X176462500Y-69000000D03*
%TD*%
D10*
%TO.P,C15,1*%
%TO.N,GND*%
X176962499Y-80514999D03*
%TO.P,C15,2*%
%TO.N,Net-(JP2-A)*%
X179037499Y-80514999D03*
%TD*%
D21*
%TO.P,C5,1*%
%TO.N,GND*%
X142529344Y-83498106D03*
%TO.P,C5,2*%
%TO.N,Net-(U3-BP)*%
X144446394Y-84292174D03*
%TD*%
D22*
%TO.P,P2,1,1*%
%TO.N,Net-(P2-Pad1)*%
X194500000Y-107500000D03*
D23*
%TO.P,P2,2,2*%
%TO.N,+12V*%
X194500000Y-112500000D03*
%TD*%
D24*
%TO.P,C6,1*%
%TO.N,GND*%
X153974696Y-82707282D03*
%TO.P,C6,2*%
%TO.N,Net-(U5-BP)*%
X155441942Y-81240036D03*
%TD*%
D25*
%TO.P,JP2,1,A*%
%TO.N,Net-(JP2-A)*%
X196500000Y-79000000D03*
D26*
%TO.P,JP2,2,B*%
%TO.N,+5V_b*%
X196500002Y-77699998D03*
%TD*%
D20*
%TO.P,C10,1*%
%TO.N,GND*%
X189537500Y-76500000D03*
%TO.P,C10,2*%
%TO.N,+12V*%
X187462500Y-76500000D03*
%TD*%
D27*
%TO.P,U10,P$1,+*%
%TO.N,+12V*%
X164500000Y-71000000D03*
%TO.P,U10,P$2,-*%
%TO.N,GND*%
X169500000Y-71000000D03*
%TD*%
D24*
%TO.P,C4,1*%
%TO.N,GND*%
X152383705Y-81116291D03*
%TO.P,C4,2*%
%TO.N,+5V_b*%
X153850951Y-79649045D03*
%TD*%
D14*
%TO.P,R1,1*%
%TO.N,Net-(Q1-Pad1)*%
X185500000Y-127500001D03*
%TO.P,R1,2*%
%TO.N,PYRO_6*%
X185500000Y-125499999D03*
%TD*%
D22*
%TO.P,P3,1,1*%
%TO.N,Net-(P3-Pad1)*%
X194500000Y-96500000D03*
D23*
%TO.P,P3,2,2*%
%TO.N,+12V*%
X194500000Y-101500000D03*
%TD*%
D28*
%TO.P,U1,1,VDDIO*%
%TO.N,+3.3V_b*%
X150332203Y-88407431D03*
%TO.P,U1,2,SCK*%
%TO.N,BMP_CLK*%
X150685757Y-88760985D03*
D29*
%TO.P,U1,3,VSS*%
%TO.N,GND*%
X151239636Y-88946741D03*
%TO.P,U1,4,SDI*%
%TO.N,BMP_MOSI*%
X151593188Y-88593188D03*
%TO.P,U1,5,SDO*%
%TO.N,BMP_MISO*%
X151946741Y-88239636D03*
D28*
%TO.P,U1,6,CSB*%
%TO.N,BMP_CS*%
X151760985Y-87685757D03*
%TO.P,U1,7,INT*%
%TO.N,BMP_INT*%
X151407431Y-87332203D03*
D29*
%TO.P,U1,8,VSS*%
%TO.N,GND*%
X150853552Y-87146447D03*
%TO.P,U1,9,VSS*%
X150500000Y-87500000D03*
%TO.P,U1,10,VDD*%
%TO.N,+3.3V_b*%
X150146447Y-87853552D03*
%TD*%
D11*
%TO.P,J4,1,1*%
%TO.N,+5V_b*%
X189000000Y-71500000D03*
%TO.P,J4,2,2*%
%TO.N,GND*%
X186500000Y-71500000D03*
%TD*%
D30*
%TO.P,C8,1*%
%TO.N,GND*%
X157625134Y-75768798D03*
%TO.P,C8,2*%
%TO.N,+1.8V*%
X159092380Y-77236044D03*
%TD*%
D13*
%TO.P,C12,1*%
%TO.N,+1.8V*%
X169908624Y-126558624D03*
%TO.P,C12,2*%
%TO.N,GND*%
X168441378Y-125091378D03*
%TD*%
D31*
%TO.P,Q1,1*%
%TO.N,Net-(Q1-Pad1)*%
X187540000Y-127600001D03*
%TO.P,Q1,2*%
%TO.N,GND*%
X189460000Y-127600001D03*
%TO.P,Q1,3*%
%TO.N,Net-(P1-Pad1)*%
X188500000Y-125500000D03*
%TD*%
D15*
%TO.P,U9,1,GND*%
%TO.N,GND*%
X181300001Y-71484998D03*
%TO.P,U9,2,VOUT*%
%TO.N,Net-(JP2-A)*%
X179000000Y-71485000D03*
%TO.P,U9,3,VIN*%
%TO.N,+12V*%
X176700001Y-71485000D03*
D16*
%TO.P,U9,4,VOUT*%
%TO.N,Net-(JP2-A)*%
X179000000Y-77515000D03*
%TD*%
D14*
%TO.P,R5,1*%
%TO.N,Net-(Q3-Pad1)*%
X184540000Y-108299999D03*
%TO.P,R5,2*%
%TO.N,PYRO_8*%
X184540000Y-106299999D03*
%TD*%
D11*
%TO.P,J5,1,1*%
%TO.N,SERVO_6*%
X135000000Y-77000000D03*
%TO.P,J5,2,2*%
%TO.N,+5V_b*%
X135000000Y-79500000D03*
%TO.P,J5,3,3*%
%TO.N,GND*%
X135000000Y-82000000D03*
%TD*%
D32*
%TO.P,U3,1,IN*%
%TO.N,+5V_b*%
X143837036Y-79818442D03*
%TO.P,U3,2,GND*%
%TO.N,GND*%
X143473487Y-80696127D03*
%TO.P,U3,3,EN*%
%TO.N,+5V_b*%
X143109937Y-81573812D03*
%TO.P,U3,4,BP*%
%TO.N,Net-(U3-BP)*%
X145211764Y-82444416D03*
%TO.P,U3,5,OUT*%
%TO.N,+3.3V_b*%
X145938863Y-80689046D03*
%TD*%
D31*
%TO.P,Q2,1*%
%TO.N,Net-(Q2-Pad1)*%
X186840000Y-117850001D03*
%TO.P,Q2,2*%
%TO.N,GND*%
X188760000Y-117850001D03*
%TO.P,Q2,3*%
%TO.N,Net-(P2-Pad1)*%
X187800000Y-115750000D03*
%TD*%
D24*
%TO.P,C2,1*%
%TO.N,+3.3V_b*%
X148844169Y-86890261D03*
%TO.P,C2,2*%
%TO.N,GND*%
X150311415Y-85423015D03*
%TD*%
D10*
%TO.P,C11,1*%
%TO.N,+3.3V_b*%
X177000001Y-125500000D03*
%TO.P,C11,2*%
%TO.N,GND*%
X179075001Y-125500000D03*
%TD*%
D33*
%TO.P,U2,1,3V3*%
%TO.N,unconnected-(U2-3V3-Pad1)*%
X152703949Y-131796051D03*
D34*
%TO.P,U2,2,EN*%
%TO.N,unconnected-(U2-EN-Pad2)*%
X154500000Y-130000000D03*
%TO.P,U2,3,SENSOR_VP*%
%TO.N,SERVO_1*%
X156296052Y-128203949D03*
%TO.P,U2,4,SENSOR_VN*%
%TO.N,SERVO_2*%
X158092103Y-126407897D03*
%TO.P,U2,5,IO34*%
%TO.N,SERVO_3*%
X159888154Y-124611846D03*
%TO.P,U2,6,IO35*%
%TO.N,SERVO_4*%
X161684205Y-122815795D03*
%TO.P,U2,7,IO32*%
%TO.N,PYRO_4*%
X163480257Y-121019744D03*
%TO.P,U2,8,IO33*%
%TO.N,PYRO_5*%
X165276308Y-119223693D03*
%TO.P,U2,9,IO25*%
%TO.N,unconnected-(U2-IO25-Pad9)*%
X167072359Y-117427641D03*
%TO.P,U2,10,IO26*%
%TO.N,unconnected-(U2-IO26-Pad10)*%
X168868410Y-115631590D03*
%TO.P,U2,11,IO27*%
%TO.N,unconnected-(U2-IO27-Pad11)*%
X170664461Y-113835539D03*
%TO.P,U2,12,IO14*%
%TO.N,ICM_CLK*%
X172460513Y-112039488D03*
%TO.P,U2,13,IO12*%
%TO.N,ICM_MISO*%
X174256564Y-110243436D03*
%TO.P,U2,14,GND1*%
%TO.N,GND*%
X176052615Y-108447385D03*
%TO.P,U2,15,IO13*%
%TO.N,ICM_MOSI*%
X177848666Y-106651334D03*
%TO.P,U2,16,SD2*%
%TO.N,PYRO_6*%
X179644718Y-104855283D03*
%TO.P,U2,17,SD3*%
%TO.N,PYRO_7*%
X181440769Y-103059231D03*
%TO.P,U2,18,CMD*%
%TO.N,PYRO_8*%
X183236820Y-101263180D03*
%TO.P,U2,19,EXT_5V*%
%TO.N,+5V_a*%
X185032871Y-99467129D03*
%TO.P,U2,20,CLK*%
%TO.N,unconnected-(U2-CLK-Pad20)*%
X167072359Y-81506617D03*
%TO.P,U2,21,SD0*%
%TO.N,unconnected-(U2-SD0-Pad21)*%
X165276308Y-83302668D03*
%TO.P,U2,22,SD1*%
%TO.N,unconnected-(U2-SD1-Pad22)*%
X163480257Y-85098719D03*
%TO.P,U2,23,IO15*%
%TO.N,ICM_CS*%
X161684205Y-86894770D03*
%TO.P,U2,24,IO2*%
%TO.N,unconnected-(U2-IO2-Pad24)*%
X159888154Y-88690822D03*
%TO.P,U2,25,IO0*%
%TO.N,unconnected-(U2-IO0-Pad25)*%
X158092103Y-90486873D03*
%TO.P,U2,26,IO4*%
%TO.N,unconnected-(U2-IO4-Pad26)*%
X156296052Y-92282924D03*
%TO.P,U2,27,IO16*%
%TO.N,SERVO_5*%
X154500000Y-94078975D03*
%TO.P,U2,28,IO17*%
%TO.N,SERVO_6*%
X152703949Y-95875027D03*
%TO.P,U2,29,IO5*%
%TO.N,BMP_CS*%
X150907898Y-97671078D03*
%TO.P,U2,30,IO18*%
%TO.N,BMP_CLK*%
X149111847Y-99467129D03*
%TO.P,U2,31,IO19*%
%TO.N,BMP_MISO*%
X147315795Y-101263180D03*
%TO.P,U2,32,GND2*%
%TO.N,GND*%
X145519744Y-103059231D03*
%TO.P,U2,33,IO21*%
%TO.N,unconnected-(U2-IO21-Pad33)*%
X143723693Y-104855283D03*
%TO.P,U2,34,RXD0*%
%TO.N,PYRO_1*%
X141927642Y-106651334D03*
%TO.P,U2,35,TXD0*%
%TO.N,PYRO_2*%
X140131591Y-108447385D03*
%TO.P,U2,36,IO22*%
%TO.N,PYRO_3*%
X138335539Y-110243436D03*
%TO.P,U2,37,IO23*%
%TO.N,BMP_MOSI*%
X136539488Y-112039488D03*
%TO.P,U2,38,GND3*%
%TO.N,GND*%
X134743437Y-113835539D03*
%TD*%
D12*
%TO.P,R6,1*%
%TO.N,PYRO_8*%
X184540000Y-110299999D03*
%TO.P,R6,2*%
%TO.N,GND*%
X186540000Y-110299999D03*
%TD*%
D35*
%TO.P,U4,1,NC*%
%TO.N,unconnected-(U4-NC-Pad1)*%
X171476000Y-123499999D03*
%TO.P,U4,2,NC*%
%TO.N,unconnected-(U4-NC-Pad2)*%
X171476000Y-123900001D03*
%TO.P,U4,3,NC*%
%TO.N,unconnected-(U4-NC-Pad3)*%
X171476000Y-124300000D03*
%TO.P,U4,4,NC*%
%TO.N,unconnected-(U4-NC-Pad4)*%
X171476000Y-124700000D03*
%TO.P,U4,5,NC*%
%TO.N,unconnected-(U4-NC-Pad5)*%
X171476000Y-125099999D03*
%TO.P,U4,6,NC*%
%TO.N,unconnected-(U4-NC-Pad6)*%
X171476000Y-125500001D03*
D36*
%TO.P,U4,7,AUX_CL*%
%TO.N,unconnected-(U4-AUX_CL-Pad7)*%
X171999999Y-126024000D03*
%TO.P,U4,8,VDDIO*%
%TO.N,+1.8V*%
X172400001Y-126024000D03*
%TO.P,U4,9,SDO/AD0*%
%TO.N,ICM_MISO*%
X172800000Y-126024000D03*
%TO.P,U4,10,REGOUT*%
%TO.N,Net-(U4-REGOUT)*%
X173200000Y-126024000D03*
%TO.P,U4,11,FSYNC*%
%TO.N,FSYNC*%
X173599999Y-126024000D03*
%TO.P,U4,12,INT1*%
%TO.N,ICM_INT*%
X174000001Y-126024000D03*
D35*
%TO.P,U4,13,VDD*%
%TO.N,+3.3V_b*%
X174524000Y-125500001D03*
%TO.P,U4,14,NC*%
%TO.N,unconnected-(U4-NC-Pad14)*%
X174524000Y-125099999D03*
%TO.P,U4,15,NC*%
%TO.N,unconnected-(U4-NC-Pad15)*%
X174524000Y-124700000D03*
%TO.P,U4,16,NC*%
%TO.N,unconnected-(U4-NC-Pad16)*%
X174524000Y-124300000D03*
%TO.P,U4,17,NC*%
%TO.N,unconnected-(U4-NC-Pad17)*%
X174524000Y-123900001D03*
%TO.P,U4,18,GND*%
%TO.N,GND*%
X174524000Y-123499999D03*
D36*
%TO.P,U4,19,RESV*%
%TO.N,unconnected-(U4-RESV-Pad19)*%
X174000001Y-122976000D03*
%TO.P,U4,20,RESV_GND*%
%TO.N,GND*%
X173599999Y-122976000D03*
%TO.P,U4,21,AUX_DA*%
%TO.N,unconnected-(U4-AUX_DA-Pad21)*%
X173200000Y-122976000D03*
%TO.P,U4,22,nCS*%
%TO.N,ICM_CS*%
X172800000Y-122976000D03*
%TO.P,U4,23,SCL/SCLK*%
%TO.N,ICM_CLK*%
X172400001Y-122976000D03*
%TO.P,U4,24,SDA/SDI*%
%TO.N,ICM_MOSI*%
X171999999Y-122976000D03*
%TD*%
D37*
%TO.P,C1,1*%
%TO.N,GND*%
X140921070Y-77167102D03*
%TO.P,C1,2*%
%TO.N,+5V_b*%
X141715138Y-79084152D03*
%TD*%
D31*
%TO.P,Q3,1*%
%TO.N,Net-(Q3-Pad1)*%
X186580000Y-108400000D03*
%TO.P,Q3,2*%
%TO.N,GND*%
X188500000Y-108400000D03*
%TO.P,Q3,3*%
%TO.N,Net-(P3-Pad1)*%
X187540000Y-106299999D03*
%TD*%
D11*
%TO.P,J2,1,1*%
%TO.N,SERVO_5*%
X146466600Y-71329801D03*
%TO.P,J2,2,2*%
%TO.N,+5V_b*%
X143966600Y-71329801D03*
%TO.P,J2,3,3*%
%TO.N,GND*%
X141466600Y-71329801D03*
%TD*%
D38*
%TO.P,J3,1,1*%
%TO.N,SERVO_1*%
X135000000Y-88500000D03*
D39*
%TO.P,J3,2,2*%
%TO.N,SERVO_2*%
X135000000Y-91000000D03*
%TO.P,J3,3,3*%
%TO.N,SERVO_3*%
X135000000Y-93500000D03*
%TO.P,J3,4,4*%
%TO.N,SERVO_4*%
X135000000Y-95999999D03*
%TO.P,J3,5,5*%
%TO.N,PYRO_4*%
X134999999Y-98499999D03*
%TO.P,J3,6,6*%
%TO.N,PYRO_5*%
X135000000Y-101000000D03*
%TD*%
D21*
%TO.P,C7,1*%
%TO.N,GND*%
X144825447Y-77954828D03*
%TO.P,C7,2*%
%TO.N,+3.3V_b*%
X146742497Y-78748896D03*
%TD*%
D40*
%TO.P,JP1,1,A*%
%TO.N,+5V_b*%
X196500000Y-86500000D03*
D41*
%TO.P,JP1,2,B*%
%TO.N,+5V_a*%
X196500002Y-87800002D03*
%TD*%
D22*
%TO.P,P1,1,1*%
%TO.N,Net-(P1-Pad1)*%
X194462500Y-118500000D03*
D23*
%TO.P,P1,2,2*%
%TO.N,+12V*%
X194462500Y-123500000D03*
%TD*%
D12*
%TO.P,R4,1*%
%TO.N,PYRO_7*%
X184760000Y-119850001D03*
%TO.P,R4,2*%
%TO.N,GND*%
X186760000Y-119850001D03*
%TD*%
D42*
%TO.P,C13,1*%
%TO.N,Net-(U4-REGOUT)*%
X174233624Y-128266377D03*
%TO.P,C13,2*%
%TO.N,GND*%
X172766378Y-129733623D03*
%TD*%
D27*
%TO.P,U8,P$1,+*%
%TO.N,+12V*%
X153500000Y-71000000D03*
%TO.P,U8,P$2,-*%
%TO.N,GND*%
X158500000Y-71000000D03*
%TD*%
D43*
%TO.N,GND*%
X145175302Y-76186325D03*
D44*
X189000000Y-132500000D03*
D43*
X152231775Y-90500000D03*
D44*
X188080000Y-112900000D03*
D43*
X156500000Y-75000000D03*
X146424375Y-86251819D03*
D44*
X188760000Y-121350001D03*
D43*
X180200001Y-125500000D03*
X141611915Y-80682712D03*
X154001213Y-75963252D03*
X151725629Y-84821974D03*
X142588226Y-85903759D03*
X177000000Y-122000000D03*
X183500000Y-84000000D03*
X153326086Y-84938125D03*
X172000001Y-131400001D03*
D44*
X182500000Y-69000000D03*
D43*
X173500000Y-82000000D03*
X175000000Y-119000000D03*
X148702748Y-84521454D03*
D44*
X192000000Y-77000000D03*
D43*
X166500001Y-124500001D03*
X151376086Y-83238125D03*
X141094532Y-74629459D03*
D44*
%TO.N,+5V_b*%
X172650000Y-72850000D03*
D43*
%TO.N,ICM_MOSI*%
X171500000Y-120500000D03*
%TO.N,+3.3V_b*%
X152100000Y-74400000D03*
X174400000Y-134100000D03*
X150000000Y-76500000D03*
X149600000Y-79100000D03*
D44*
%TO.N,+12V*%
X185000000Y-76500000D03*
X172800000Y-68251000D03*
%TO.N,Net-(JP2-A)*%
X185000000Y-82500000D03*
X195500000Y-82500000D03*
D43*
%TO.N,+1.8V*%
X163500000Y-130000000D03*
X162000000Y-77500000D03*
%TO.N,ICM_MISO*%
X178500000Y-122000000D03*
X170000000Y-131500000D03*
%TO.N,BMP_MISO*%
X149850000Y-95150000D03*
%TO.N,BMP_MOSI*%
X150300000Y-93700000D03*
%TD*%
D45*
%TO.N,GND*%
X188500000Y-112480000D02*
X188080000Y-112900000D01*
D46*
X152231775Y-90500000D02*
X152231775Y-90609079D01*
D47*
X167091378Y-125091377D02*
X166500001Y-124500001D01*
D45*
X191800001Y-77199999D02*
X192000000Y-77000000D01*
D48*
X142060560Y-84629857D02*
X142529349Y-83498105D01*
D45*
X191800001Y-79484998D02*
X191800001Y-77199999D01*
X189460000Y-130000000D02*
X189460000Y-132040000D01*
X178537500Y-69000000D02*
X182000000Y-69000000D01*
D48*
X145366644Y-76648263D02*
X145175302Y-76186325D01*
D45*
X188760000Y-117850001D02*
X188760000Y-120350001D01*
X181300001Y-69699999D02*
X182000000Y-69000000D01*
X188500000Y-110900000D02*
X188500000Y-112480000D01*
D49*
X150853552Y-87146447D02*
X150311415Y-86604310D01*
D50*
X141094532Y-74629459D02*
X141091546Y-74622249D01*
D46*
X151239635Y-88946741D02*
X152231775Y-89938880D01*
X172766378Y-129733622D02*
X172000001Y-130500000D01*
X148702748Y-84521454D02*
X148702748Y-85511403D01*
D45*
X184500000Y-88000000D02*
X184925000Y-88000000D01*
D46*
X172000001Y-131400001D02*
X172000001Y-131500000D01*
D45*
X181300001Y-71484998D02*
X181300001Y-69699999D01*
D50*
X151376086Y-82123914D02*
X152383706Y-81116294D01*
D48*
X142588226Y-85903759D02*
X142060560Y-84629857D01*
D46*
X173599999Y-122976000D02*
X173599999Y-120400001D01*
X147182467Y-87915567D02*
X146424374Y-87157469D01*
D45*
X188500000Y-108400000D02*
X188500000Y-110900000D01*
D48*
X157625134Y-75768798D02*
X156856336Y-75000000D01*
D46*
X176475002Y-123500000D02*
X177000000Y-122975002D01*
D45*
X186540000Y-110299999D02*
X187899999Y-110299999D01*
D48*
X156856336Y-75000000D02*
X156500000Y-75000000D01*
D45*
X182000000Y-69000000D02*
X182500000Y-69000000D01*
X175514999Y-80514999D02*
X174985001Y-80514999D01*
D50*
X151376086Y-83238125D02*
X151376086Y-82123914D01*
D49*
X150912456Y-84821974D02*
X151725629Y-84821974D01*
D45*
X189460000Y-132040000D02*
X189000000Y-132500000D01*
X188760000Y-120350001D02*
X188760000Y-121350001D01*
D46*
X150499999Y-87308655D02*
X150499999Y-87500000D01*
D50*
X153326086Y-84938125D02*
X153326086Y-83355892D01*
X140921071Y-77167103D02*
X141533366Y-75688895D01*
D49*
X150311415Y-86604310D02*
X150311415Y-85423015D01*
D45*
X183500000Y-84000000D02*
X183500000Y-87000000D01*
X176962499Y-80514999D02*
X175514999Y-80514999D01*
D48*
X142526513Y-80303874D02*
X143473487Y-80696126D01*
D45*
X187500000Y-129500000D02*
X188960000Y-129500000D01*
X188260000Y-119850001D02*
X188760000Y-120350001D01*
X186760000Y-119850001D02*
X188260000Y-119850001D01*
D46*
X173599999Y-120400001D02*
X175000000Y-119000000D01*
D48*
X141611915Y-80682712D02*
X142526513Y-80303874D01*
X144825449Y-77954825D02*
X145236829Y-76961655D01*
D46*
X179075001Y-125500000D02*
X180200001Y-125500000D01*
D50*
X141533366Y-75688895D02*
X141094532Y-74629459D01*
D45*
X188960000Y-129500000D02*
X189460000Y-130000000D01*
X183500000Y-87000000D02*
X184500000Y-88000000D01*
D46*
X148702748Y-85511403D02*
X150499999Y-87308655D01*
X152231775Y-89938880D02*
X152231775Y-90500000D01*
D48*
X145236829Y-76961655D02*
X145366644Y-76648263D01*
D46*
X172000001Y-130500000D02*
X172000001Y-131400001D01*
D50*
X153326086Y-83355892D02*
X153974695Y-82707283D01*
D45*
X191500000Y-76500000D02*
X192000000Y-77000000D01*
D46*
X146424374Y-87157469D02*
X146424375Y-86251819D01*
D47*
X168441378Y-125091377D02*
X167091378Y-125091377D01*
D46*
X176475002Y-123500000D02*
X174524001Y-123500000D01*
D45*
X189460000Y-127600001D02*
X189460000Y-130000000D01*
D46*
X177000000Y-122975002D02*
X177000000Y-122000000D01*
D45*
X174985001Y-80514999D02*
X173500000Y-82000000D01*
D48*
X155671752Y-77633791D02*
X154001213Y-75963252D01*
D45*
X189537500Y-76500000D02*
X191500000Y-76500000D01*
D49*
X150311415Y-85423015D02*
X150912456Y-84821974D01*
D45*
X187899999Y-110299999D02*
X188500000Y-110900000D01*
D46*
%TO.N,Net-(U4-REGOUT)*%
X173200001Y-127232754D02*
X174233624Y-128266377D01*
X173200001Y-126024000D02*
X173200001Y-127232754D01*
D48*
%TO.N,+5V_b*%
X153364824Y-74973301D02*
X154238125Y-74100000D01*
D50*
X139216039Y-81920034D02*
X140306216Y-82371600D01*
X140306216Y-82371600D02*
X142671091Y-81392033D01*
D45*
X189500000Y-71500000D02*
X189000000Y-71500000D01*
D50*
X143109940Y-81573807D02*
X142671091Y-81392033D01*
D45*
X195400000Y-86500000D02*
X193900000Y-85000000D01*
D50*
X141889724Y-79011835D02*
X143837033Y-79818439D01*
X143000000Y-74500000D02*
X143000000Y-72296401D01*
D45*
X141715138Y-79084152D02*
X143000000Y-77799290D01*
D50*
X140452506Y-79607154D02*
X140345352Y-79500000D01*
D45*
X143000000Y-77799290D02*
X143000000Y-74500000D01*
X196500000Y-86500000D02*
X195400000Y-86500000D01*
D50*
X138200000Y-79500000D02*
X135000000Y-79500000D01*
D48*
X153364824Y-74973301D02*
X150500000Y-77838125D01*
D45*
X193900000Y-75900000D02*
X193200000Y-75200000D01*
X193900000Y-85000000D02*
X193900000Y-75900000D01*
D50*
X155000000Y-78500000D02*
X155000002Y-78305544D01*
D45*
X196500002Y-77699998D02*
X195699998Y-77699998D01*
D50*
X138200000Y-80903995D02*
X139216039Y-81920034D01*
D48*
X154238125Y-74100000D02*
X171400000Y-74100000D01*
D45*
X193200000Y-75200000D02*
X189500000Y-71500000D01*
D50*
X152040031Y-77838125D02*
X150500000Y-77838125D01*
D48*
X156343504Y-76962041D02*
X154354765Y-74973301D01*
D50*
X152040031Y-77838125D02*
X153850951Y-79649045D01*
D48*
X154354765Y-74973301D02*
X153364824Y-74973301D01*
D50*
X138200000Y-79500000D02*
X138200000Y-80903995D01*
X149605892Y-77838125D02*
X146267767Y-74500000D01*
X140345352Y-79500000D02*
X138200000Y-79500000D01*
X153850953Y-79649046D02*
X155000000Y-78500000D01*
D48*
X171400000Y-74100000D02*
X172650000Y-72850000D01*
D50*
X143000000Y-72296401D02*
X143966600Y-71329801D01*
X150500000Y-77838125D02*
X149605892Y-77838125D01*
D45*
X195699998Y-77699998D02*
X193200000Y-75200000D01*
D50*
X146267767Y-74500000D02*
X143000000Y-74500000D01*
X140452506Y-79607154D02*
X141889724Y-79011835D01*
D45*
%TO.N,Net-(JP3-A)*%
X184580762Y-92580762D02*
X187000000Y-90161524D01*
X187015000Y-88000000D02*
X189500000Y-85515000D01*
X187000000Y-90161524D02*
X187000000Y-88000000D01*
X187000000Y-88000000D02*
X187015000Y-88000000D01*
X189500000Y-85515000D02*
X189500000Y-79485000D01*
D47*
%TO.N,PYRO_3*%
X138335539Y-103413713D02*
X142606859Y-99142393D01*
X138335539Y-110243436D02*
X138335539Y-103413713D01*
D46*
%TO.N,ICM_MOSI*%
X171999999Y-122976000D02*
X171999999Y-120999999D01*
X171999999Y-120999999D02*
X171500000Y-120500000D01*
D48*
%TO.N,+3.3V_b*%
X148596681Y-86890261D02*
X148844169Y-86890261D01*
D46*
X150332203Y-88407431D02*
X149356821Y-89382813D01*
X174524002Y-125500000D02*
X174524001Y-125500002D01*
D48*
X148600000Y-79400000D02*
X149300000Y-79400000D01*
X148649715Y-89453523D02*
X148649715Y-89382813D01*
X174400000Y-134100000D02*
X177000001Y-131499999D01*
X177000001Y-131499999D02*
X177000001Y-125500000D01*
D46*
X146500000Y-81250183D02*
X145938863Y-80689046D01*
D48*
X146742497Y-78748894D02*
X145938862Y-80689043D01*
X149300000Y-79400000D02*
X149600000Y-79100000D01*
X147948896Y-78748896D02*
X148600000Y-79400000D01*
D46*
X148649715Y-89382813D02*
X148844169Y-89188358D01*
X149183156Y-86890261D02*
X148844169Y-86890261D01*
D48*
X146742497Y-78748896D02*
X147948896Y-78748896D01*
D46*
X148844169Y-89188358D02*
X148844169Y-86890261D01*
D48*
X152100000Y-74400000D02*
X150000000Y-76500000D01*
D46*
X146500000Y-84546092D02*
X146500000Y-81250183D01*
X149356821Y-89382813D02*
X148649715Y-89382813D01*
X148844169Y-86890261D02*
X146500000Y-84546092D01*
X150146447Y-87853552D02*
X149183156Y-86890261D01*
X177000001Y-125499999D02*
X174524002Y-125500000D01*
D45*
%TO.N,+5V_a*%
X185500000Y-93500000D02*
X183100000Y-95900000D01*
X183100000Y-97534258D02*
X185032871Y-99467129D01*
X190800004Y-93500000D02*
X185500000Y-93500000D01*
X196500002Y-87800002D02*
X190800004Y-93500000D01*
X183100000Y-95900000D02*
X183100000Y-97534258D01*
%TO.N,+12V*%
X176462500Y-69000000D02*
X176462500Y-71247499D01*
D51*
X172800000Y-68251000D02*
X175713500Y-68251000D01*
X175713500Y-68251000D02*
X176462500Y-69000000D01*
D45*
X176462500Y-71247499D02*
X176700001Y-71485000D01*
D51*
X185000000Y-76500000D02*
X187462500Y-76500000D01*
D45*
X187200001Y-76762499D02*
X187462500Y-76500000D01*
X187200001Y-79485000D02*
X187200001Y-76762499D01*
%TO.N,Net-(JP2-A)*%
X179000000Y-80477500D02*
X179037500Y-80515000D01*
X185000000Y-82500000D02*
X181022500Y-82500000D01*
X179000000Y-77515000D02*
X179000000Y-80477500D01*
X181022500Y-82500000D02*
X179037499Y-80514999D01*
X179000000Y-77515000D02*
X179000000Y-71485000D01*
X196500000Y-79000000D02*
X196500000Y-81500000D01*
X179037499Y-80514999D02*
X179037499Y-80537499D01*
X196500000Y-81500000D02*
X195500000Y-82500000D01*
D47*
%TO.N,SERVO_3*%
X131903000Y-96597000D02*
X135000000Y-93500000D01*
X131903000Y-119468800D02*
X131903000Y-96597000D01*
X159888154Y-124611846D02*
X137046046Y-124611846D01*
X137046046Y-124611846D02*
X131903000Y-119468800D01*
%TO.N,SERVO_1*%
X139503949Y-128203949D02*
X131101000Y-119801000D01*
X156296052Y-128203949D02*
X139503949Y-128203949D01*
X131101000Y-92399000D02*
X135000000Y-88500000D01*
X131101000Y-119801000D02*
X131101000Y-92399000D01*
D45*
%TO.N,Net-(P1-Pad1)*%
X188500000Y-125500000D02*
X194462500Y-119537500D01*
X194462500Y-119537500D02*
X194462500Y-118500000D01*
%TO.N,Net-(P2-Pad1)*%
X193400000Y-107500000D02*
X194500000Y-107500000D01*
X191800000Y-109100000D02*
X193400000Y-107500000D01*
X187800000Y-115750000D02*
X187800000Y-115410001D01*
X187800000Y-115750000D02*
X191800000Y-111750000D01*
X191800000Y-111750000D02*
X191800000Y-109100000D01*
D46*
%TO.N,ICM_CLK*%
X172400001Y-122976000D02*
X172400001Y-112100000D01*
X172400001Y-112100000D02*
X172460513Y-112039488D01*
D47*
%TO.N,SERVO_2*%
X158092103Y-126407897D02*
X138274997Y-126407897D01*
X131502000Y-93298000D02*
X133800000Y-91000000D01*
X138274997Y-126407897D02*
X131502000Y-119634900D01*
X131502000Y-119634900D02*
X131502000Y-93298000D01*
X133800000Y-91000000D02*
X135000000Y-91000000D01*
%TO.N,PYRO_2*%
X140131591Y-108447385D02*
X140131591Y-103668409D01*
X144374626Y-99425374D02*
X144374626Y-97374626D01*
X140131591Y-103668409D02*
X144374626Y-99425374D01*
D46*
%TO.N,+1.8V*%
X165550000Y-128050000D02*
X167975000Y-128050000D01*
X157952172Y-78570709D02*
X159092381Y-77430498D01*
X163600000Y-130000000D02*
X165550000Y-128050000D01*
D48*
X159092380Y-77236044D02*
X161736044Y-77236044D01*
D46*
X159092381Y-77430498D02*
X159092382Y-77236043D01*
X168417248Y-128050000D02*
X169908624Y-126558623D01*
D48*
X161736044Y-77236044D02*
X162000000Y-77500000D01*
D46*
X171837500Y-128050000D02*
X172400002Y-127487499D01*
X163500000Y-130000000D02*
X163600000Y-130000000D01*
X172400002Y-127487499D02*
X172400002Y-126024000D01*
X167975000Y-128050000D02*
X168417248Y-128050000D01*
X167975000Y-128050000D02*
X171837500Y-128050000D01*
%TO.N,ICM_MISO*%
X172800000Y-127700000D02*
X170000000Y-130500000D01*
X178500000Y-114486872D02*
X174256564Y-110243436D01*
X178500000Y-122000000D02*
X178500000Y-114486872D01*
X172800000Y-126024000D02*
X172800000Y-127700000D01*
X170000000Y-130500000D02*
X170000000Y-131500000D01*
%TO.N,BMP_CS*%
X152850000Y-87050000D02*
X157600000Y-91800000D01*
X157600000Y-91800000D02*
X157600000Y-93700000D01*
X152396742Y-87050000D02*
X152850000Y-87050000D01*
X153628922Y-97671078D02*
X150907898Y-97671078D01*
X151760985Y-87685757D02*
X152396742Y-87050000D01*
X157600000Y-93700000D02*
X153628922Y-97671078D01*
%TO.N,ICM_CS*%
X161684205Y-99484205D02*
X161684205Y-86894770D01*
X172800001Y-115799999D02*
X174600000Y-114000000D01*
X172800001Y-122975999D02*
X172800001Y-115799999D01*
X174600000Y-112400000D02*
X161684205Y-99484205D01*
X174600000Y-114000000D02*
X174600000Y-112400000D01*
D47*
%TO.N,PYRO_1*%
X141927642Y-103072358D02*
X146142393Y-98857607D01*
X141927642Y-106651334D02*
X141927642Y-103072358D01*
X146142393Y-98857607D02*
X146142393Y-95606859D01*
%TO.N,SERVO_4*%
X132304000Y-98695999D02*
X135000000Y-95999999D01*
X161684205Y-122815795D02*
X135915795Y-122815795D01*
X132304000Y-119204000D02*
X132304000Y-98695999D01*
X135915795Y-122815795D02*
X132304000Y-119204000D01*
D46*
%TO.N,BMP_MISO*%
X153500000Y-91500000D02*
X153500000Y-89792895D01*
X149850000Y-95150000D02*
X153500000Y-91500000D01*
X153500000Y-89792895D02*
X151946741Y-88239636D01*
%TO.N,BMP_CLK*%
X150685757Y-88760985D02*
X149111847Y-90334895D01*
X149111847Y-90334895D02*
X149111847Y-99467129D01*
%TO.N,BMP_MOSI*%
X152820275Y-91179725D02*
X152820275Y-89820275D01*
X152820275Y-89820275D02*
X151593188Y-88593188D01*
X150300000Y-93700000D02*
X152820275Y-91179725D01*
D48*
%TO.N,Net-(U3-BP)*%
X144446397Y-84292174D02*
X145211763Y-82444416D01*
D50*
%TO.N,Net-(U5-BP)*%
X155441943Y-81240035D02*
X156608670Y-80073311D01*
X156608670Y-80073311D02*
X156608670Y-79914212D01*
D47*
%TO.N,PYRO_4*%
X132705000Y-100794998D02*
X134999999Y-98499999D01*
X132705000Y-119037900D02*
X132705000Y-100794998D01*
X134667100Y-121000000D02*
X132705000Y-119037900D01*
X163480257Y-121019744D02*
X163460513Y-121000000D01*
X163460513Y-121000000D02*
X134667100Y-121000000D01*
%TO.N,PYRO_5*%
X162414257Y-119500000D02*
X133734200Y-119500000D01*
X135000000Y-101100000D02*
X135000000Y-101000000D01*
X133734200Y-119500000D02*
X133106000Y-118871800D01*
X133106000Y-118871800D02*
X133106000Y-102894000D01*
X133106000Y-102894000D02*
X135000000Y-101000000D01*
X165276308Y-119223693D02*
X162690564Y-119223693D01*
X162690564Y-119223693D02*
X162414257Y-119500000D01*
D45*
%TO.N,Net-(P3-Pad1)*%
X194500000Y-96500000D02*
X187540000Y-103460000D01*
X187540000Y-103460000D02*
X187540000Y-106299999D01*
%TO.N,Net-(Q1-Pad1)*%
X187440000Y-127500001D02*
X187540000Y-127600001D01*
X185500000Y-127500001D02*
X187440000Y-127500001D01*
%TO.N,Net-(Q2-Pad1)*%
X184760000Y-117850002D02*
X186840000Y-117850001D01*
%TO.N,Net-(Q3-Pad1)*%
X186479999Y-108299999D02*
X186580000Y-108400000D01*
X184540000Y-108299999D02*
X186479999Y-108299999D01*
%TO.N,PYRO_6*%
X185000001Y-125499999D02*
X185500000Y-125499999D01*
X184900000Y-129500000D02*
X183500000Y-128100000D01*
D48*
X179644718Y-104855283D02*
X180600000Y-105810565D01*
D45*
X183500000Y-128100000D02*
X183500000Y-127000000D01*
D48*
X180600000Y-124100000D02*
X183500000Y-127000000D01*
D45*
X183500000Y-127000000D02*
X185000001Y-125499999D01*
X185500000Y-129500000D02*
X184900000Y-129500000D01*
D48*
X180600000Y-105810565D02*
X180600000Y-124100000D01*
%TO.N,PYRO_7*%
X181440769Y-115830769D02*
X182760000Y-117150000D01*
D45*
X182760000Y-118850001D02*
X182760000Y-117150000D01*
X182760000Y-117150000D02*
X184060000Y-115850000D01*
X184760000Y-119850001D02*
X183760000Y-119850001D01*
X183760000Y-119850001D02*
X182760000Y-118850001D01*
X184060000Y-115850000D02*
X184760000Y-115850000D01*
D48*
X181440769Y-103059231D02*
X181700000Y-103318462D01*
X181440769Y-103059231D02*
X181440769Y-115830769D01*
%TO.N,PYRO_8*%
X183236820Y-101263180D02*
X183200000Y-101300000D01*
X183236820Y-101263180D02*
X183236820Y-106903179D01*
X183236820Y-106903179D02*
X182580000Y-107559999D01*
D45*
X183840000Y-106299999D02*
X184540000Y-106299999D01*
X182580000Y-109400000D02*
X182580000Y-107559999D01*
X183479999Y-110299999D02*
X182580000Y-109400000D01*
X184540000Y-110299999D02*
X183479999Y-110299999D01*
X182580000Y-107559999D02*
X183840000Y-106299999D01*
%TD*%
M02*
