%TF.GenerationSoftware,KiCad,Pcbnew,9.0.1*%
%TF.CreationDate,2025-04-15T15:10:41-07:00*%
%TF.ProjectId,IO:Sensor Board,494f3a53-656e-4736-9f72-20426f617264,rev?*%
%TF.SameCoordinates,Original*%
%TF.FileFunction,Soldermask,Top*%
%TF.FilePolarity,Negative*%
%FSLAX46Y46*%
G04 Gerber Fmt 4.6, Leading zero omitted, Abs format (unit mm)*
G04 Created by KiCad (PCBNEW 9.0.1) date 2025-04-15 15:10:41*
%MOMM*%
%LPD*%
G01*
G04 APERTURE LIST*
G04 Aperture macros list*
%AMRoundRect*
0 Rectangle with rounded corners*
0 $1 Rounding radius*
0 $2 $3 $4 $5 $6 $7 $8 $9 X,Y pos of 4 corners*
0 Add a 4 corners polygon primitive as box body*
4,1,4,$2,$3,$4,$5,$6,$7,$8,$9,$2,$3,0*
0 Add four circle primitives for the rounded corners*
1,1,$1+$1,$2,$3*
1,1,$1+$1,$4,$5*
1,1,$1+$1,$6,$7*
1,1,$1+$1,$8,$9*
0 Add four rect primitives between the rounded corners*
20,1,$1+$1,$2,$3,$4,$5,0*
20,1,$1+$1,$4,$5,$6,$7,0*
20,1,$1+$1,$6,$7,$8,$9,0*
20,1,$1+$1,$8,$9,$2,$3,0*%
%AMRotRect*
0 Rectangle, with rotation*
0 The origin of the aperture is its center*
0 $1 length*
0 $2 width*
0 $3 Rotation angle, in degrees counterclockwise*
0 Add horizontal line*
21,1,$1,$2,0,0,$3*%
%AMFreePoly0*
4,1,23,0.499999,-0.750000,0.000000,-0.750000,0.000000,-0.745722,-0.065263,-0.745722,-0.191342,-0.711940,-0.304381,-0.646677,-0.396677,-0.554382,-0.461940,-0.441342,-0.495722,-0.315263,-0.495722,-0.250000,-0.500000,-0.250000,-0.500000,0.250000,-0.495722,0.250000,-0.495722,0.315263,-0.461940,0.441342,-0.396677,0.554382,-0.304381,0.646677,-0.191342,0.711940,-0.065263,0.745722,0.000000,0.745722,
0.000000,0.750000,0.499999,0.750000,0.499999,-0.750000,0.499999,-0.750000,$1*%
%AMFreePoly1*
4,1,23,0.000000,0.745722,0.065263,0.745722,0.191342,0.711940,0.304381,0.646677,0.396677,0.554382,0.461940,0.441342,0.495722,0.315263,0.495722,0.250000,0.500000,0.250000,0.500000,-0.250000,0.495722,-0.250000,0.495722,-0.315263,0.461940,-0.441342,0.396677,-0.554382,0.304381,-0.646677,0.191342,-0.711940,0.065263,-0.745722,0.000000,-0.745722,0.000000,-0.750000,-0.499999,-0.750000,
-0.499999,0.750000,0.000000,0.750000,0.000000,0.745722,0.000000,0.745722,$1*%
G04 Aperture macros list end*
%ADD10RoundRect,0.250000X-0.337500X-0.475000X0.337500X-0.475000X0.337500X0.475000X-0.337500X0.475000X0*%
%ADD11C,1.498600*%
%ADD12RoundRect,0.250000X-0.350000X-0.450000X0.350000X-0.450000X0.350000X0.450000X-0.350000X0.450000X0*%
%ADD13RoundRect,0.250000X0.574524X0.097227X0.097227X0.574524X-0.574524X-0.097227X-0.097227X-0.574524X0*%
%ADD14RoundRect,0.250000X0.450000X-0.350000X0.450000X0.350000X-0.450000X0.350000X-0.450000X-0.350000X0*%
%ADD15RoundRect,0.141750X-0.425250X0.950250X-0.425250X-0.950250X0.425250X-0.950250X0.425250X0.950250X0*%
%ADD16RoundRect,0.273000X-1.444000X0.819000X-1.444000X-0.819000X1.444000X-0.819000X1.444000X0.819000X0*%
%ADD17FreePoly0,315.000000*%
%ADD18FreePoly1,315.000000*%
%ADD19RoundRect,0.150000X-0.468458X0.256326X0.256326X-0.468458X0.468458X-0.256326X-0.256326X0.468458X0*%
%ADD20RoundRect,0.250000X0.337500X0.475000X-0.337500X0.475000X-0.337500X-0.475000X0.337500X-0.475000X0*%
%ADD21RoundRect,0.250000X-0.493584X-0.309687X0.130035X-0.567998X0.493584X0.309687X-0.130035X0.567998X0*%
%ADD22RoundRect,0.102000X-0.975000X0.975000X-0.975000X-0.975000X0.975000X-0.975000X0.975000X0.975000X0*%
%ADD23C,2.154000*%
%ADD24RoundRect,0.250000X0.097227X-0.574524X0.574524X-0.097227X-0.097227X0.574524X-0.574524X0.097227X0*%
%ADD25FreePoly0,90.000000*%
%ADD26FreePoly1,90.000000*%
%ADD27C,2.904000*%
%ADD28RotRect,0.254000X0.279400X135.000000*%
%ADD29RotRect,0.254000X0.254000X45.000000*%
%ADD30RoundRect,0.250000X-0.574524X-0.097227X-0.097227X-0.574524X0.574524X0.097227X0.097227X0.574524X0*%
%ADD31RoundRect,0.102000X0.325000X-0.550000X0.325000X0.550000X-0.325000X0.550000X-0.325000X-0.550000X0*%
%ADD32RoundRect,0.150000X-0.530891X0.057543X0.416086X-0.334707X0.530891X-0.057543X-0.416086X0.334707X0*%
%ADD33RoundRect,0.102000X1.081873X0.000000X0.000000X1.081873X-1.081873X0.000000X0.000000X-1.081873X0*%
%ADD34C,1.734000*%
%ADD35R,0.660400X0.203200*%
%ADD36R,0.203200X0.660400*%
%ADD37RoundRect,0.250000X-0.567998X0.130035X-0.309687X-0.493584X0.567998X-0.130035X0.309687X0.493584X0*%
%ADD38RoundRect,0.250000X-0.725000X0.600000X-0.725000X-0.600000X0.725000X-0.600000X0.725000X0.600000X0*%
%ADD39O,1.950000X1.700000*%
%ADD40FreePoly0,270.000000*%
%ADD41FreePoly1,270.000000*%
%ADD42RoundRect,0.250000X-0.097227X0.574524X-0.574524X0.097227X0.097227X-0.574524X0.574524X-0.097227X0*%
G04 APERTURE END LIST*
D10*
%TO.C,C9*%
X184925000Y-88000000D03*
X187000000Y-88000000D03*
%TD*%
D11*
%TO.C,J1*%
X146142393Y-95606859D03*
X144374626Y-97374626D03*
X142606859Y-99142393D03*
%TD*%
D12*
%TO.C,R2*%
X185500000Y-129500000D03*
X187500000Y-129500000D03*
%TD*%
D13*
%TO.C,C3*%
X148649714Y-89382812D03*
X147182468Y-87915566D03*
%TD*%
D14*
%TO.C,R3*%
X184760000Y-117850002D03*
X184760000Y-115850000D03*
%TD*%
D15*
%TO.C,U7*%
X191800001Y-79484998D03*
X189500000Y-79485000D03*
X187200001Y-79485000D03*
D16*
X189500000Y-85515000D03*
%TD*%
D17*
%TO.C,JP3*%
X184580762Y-92580762D03*
D18*
X185500000Y-93500000D03*
%TD*%
D19*
%TO.C,U5*%
X156343503Y-76962040D03*
X155671752Y-77633791D03*
X155000001Y-78305542D03*
X156608669Y-79914210D03*
X157952171Y-78570708D03*
%TD*%
D20*
%TO.C,C14*%
X178537500Y-69000000D03*
X176462500Y-69000000D03*
%TD*%
D10*
%TO.C,C15*%
X176962499Y-80514999D03*
X179037499Y-80514999D03*
%TD*%
D21*
%TO.C,C5*%
X142529344Y-83498106D03*
X144446394Y-84292174D03*
%TD*%
D22*
%TO.C,P2*%
X194500000Y-107500000D03*
D23*
X194500000Y-112500000D03*
%TD*%
D24*
%TO.C,C6*%
X153974696Y-82707282D03*
X155441942Y-81240036D03*
%TD*%
D25*
%TO.C,JP2*%
X196500000Y-79000000D03*
D26*
X196500002Y-77699998D03*
%TD*%
D20*
%TO.C,C10*%
X189537500Y-76500000D03*
X187462500Y-76500000D03*
%TD*%
D27*
%TO.C,U10*%
X164500000Y-71000000D03*
X169500000Y-71000000D03*
%TD*%
D24*
%TO.C,C4*%
X152383705Y-81116291D03*
X153850951Y-79649045D03*
%TD*%
D14*
%TO.C,R1*%
X185500000Y-127500001D03*
X185500000Y-125499999D03*
%TD*%
D22*
%TO.C,P3*%
X194500000Y-96500000D03*
D23*
X194500000Y-101500000D03*
%TD*%
D28*
%TO.C,U1*%
X150332203Y-88407431D03*
X150685757Y-88760985D03*
D29*
X151239636Y-88946741D03*
X151593188Y-88593188D03*
X151946741Y-88239636D03*
D28*
X151760985Y-87685757D03*
X151407431Y-87332203D03*
D29*
X150853552Y-87146447D03*
X150500000Y-87500000D03*
X150146447Y-87853552D03*
%TD*%
D11*
%TO.C,J4*%
X189000000Y-71500000D03*
X186500000Y-71500000D03*
%TD*%
D30*
%TO.C,C8*%
X157625134Y-75768798D03*
X159092380Y-77236044D03*
%TD*%
D13*
%TO.C,C12*%
X169908624Y-126558624D03*
X168441378Y-125091378D03*
%TD*%
D31*
%TO.C,Q1*%
X187540000Y-127600001D03*
X189460000Y-127600001D03*
X188500000Y-125500000D03*
%TD*%
D15*
%TO.C,U9*%
X181300001Y-71484998D03*
X179000000Y-71485000D03*
X176700001Y-71485000D03*
D16*
X179000000Y-77515000D03*
%TD*%
D14*
%TO.C,R5*%
X184540000Y-108299999D03*
X184540000Y-106299999D03*
%TD*%
D11*
%TO.C,J5*%
X135000000Y-77000000D03*
X135000000Y-79500000D03*
X135000000Y-82000000D03*
%TD*%
D32*
%TO.C,U3*%
X143837036Y-79818442D03*
X143473487Y-80696127D03*
X143109937Y-81573812D03*
X145211764Y-82444416D03*
X145938863Y-80689046D03*
%TD*%
D31*
%TO.C,Q2*%
X186840000Y-117850001D03*
X188760000Y-117850001D03*
X187800000Y-115750000D03*
%TD*%
D24*
%TO.C,C2*%
X148844169Y-86890261D03*
X150311415Y-85423015D03*
%TD*%
D10*
%TO.C,C11*%
X177000001Y-125500000D03*
X179075001Y-125500000D03*
%TD*%
D33*
%TO.C,U2*%
X152703949Y-131796051D03*
D34*
X154500000Y-130000000D03*
X156296052Y-128203949D03*
X158092103Y-126407897D03*
X159888154Y-124611846D03*
X161684205Y-122815795D03*
X163480257Y-121019744D03*
X165276308Y-119223693D03*
X167072359Y-117427641D03*
X168868410Y-115631590D03*
X170664461Y-113835539D03*
X172460513Y-112039488D03*
X174256564Y-110243436D03*
X176052615Y-108447385D03*
X177848666Y-106651334D03*
X179644718Y-104855283D03*
X181440769Y-103059231D03*
X183236820Y-101263180D03*
X185032871Y-99467129D03*
X167072359Y-81506617D03*
X165276308Y-83302668D03*
X163480257Y-85098719D03*
X161684205Y-86894770D03*
X159888154Y-88690822D03*
X158092103Y-90486873D03*
X156296052Y-92282924D03*
X154500000Y-94078975D03*
X152703949Y-95875027D03*
X150907898Y-97671078D03*
X149111847Y-99467129D03*
X147315795Y-101263180D03*
X145519744Y-103059231D03*
X143723693Y-104855283D03*
X141927642Y-106651334D03*
X140131591Y-108447385D03*
X138335539Y-110243436D03*
X136539488Y-112039488D03*
X134743437Y-113835539D03*
%TD*%
D12*
%TO.C,R6*%
X184540000Y-110299999D03*
X186540000Y-110299999D03*
%TD*%
D35*
%TO.C,U4*%
X171476000Y-123499999D03*
X171476000Y-123900001D03*
X171476000Y-124300000D03*
X171476000Y-124700000D03*
X171476000Y-125099999D03*
X171476000Y-125500001D03*
D36*
X171999999Y-126024000D03*
X172400001Y-126024000D03*
X172800000Y-126024000D03*
X173200000Y-126024000D03*
X173599999Y-126024000D03*
X174000001Y-126024000D03*
D35*
X174524000Y-125500001D03*
X174524000Y-125099999D03*
X174524000Y-124700000D03*
X174524000Y-124300000D03*
X174524000Y-123900001D03*
X174524000Y-123499999D03*
D36*
X174000001Y-122976000D03*
X173599999Y-122976000D03*
X173200000Y-122976000D03*
X172800000Y-122976000D03*
X172400001Y-122976000D03*
X171999999Y-122976000D03*
%TD*%
D37*
%TO.C,C1*%
X140921070Y-77167102D03*
X141715138Y-79084152D03*
%TD*%
D31*
%TO.C,Q3*%
X186580000Y-108400000D03*
X188500000Y-108400000D03*
X187540000Y-106299999D03*
%TD*%
D11*
%TO.C,J2*%
X146466600Y-71329801D03*
X143966600Y-71329801D03*
X141466600Y-71329801D03*
%TD*%
D38*
%TO.C,J3*%
X135000000Y-88500000D03*
D39*
X135000000Y-91000000D03*
X135000000Y-93500000D03*
X135000000Y-95999999D03*
X134999999Y-98499999D03*
X135000000Y-101000000D03*
%TD*%
D21*
%TO.C,C7*%
X144825447Y-77954828D03*
X146742497Y-78748896D03*
%TD*%
D40*
%TO.C,JP1*%
X196500000Y-86500000D03*
D41*
X196500002Y-87800002D03*
%TD*%
D22*
%TO.C,P1*%
X194462500Y-118500000D03*
D23*
X194462500Y-123500000D03*
%TD*%
D12*
%TO.C,R4*%
X184760000Y-119850001D03*
X186760000Y-119850001D03*
%TD*%
D42*
%TO.C,C13*%
X174233624Y-128266377D03*
X172766378Y-129733623D03*
%TD*%
D27*
%TO.C,U8*%
X153500000Y-71000000D03*
X158500000Y-71000000D03*
%TD*%
M02*
