%TF.GenerationSoftware,KiCad,Pcbnew,9.0.1*%
%TF.CreationDate,2025-04-15T15:10:41-07:00*%
%TF.ProjectId,IO:Sensor Board,494f3a53-656e-4736-9f72-20426f617264,rev?*%
%TF.SameCoordinates,Original*%
%TF.FileFunction,Copper,L2,Inr*%
%TF.FilePolarity,Positive*%
%FSLAX46Y46*%
G04 Gerber Fmt 4.6, Leading zero omitted, Abs format (unit mm)*
G04 Created by KiCad (PCBNEW 9.0.1) date 2025-04-15 15:10:41*
%MOMM*%
%LPD*%
G01*
G04 APERTURE LIST*
G04 Aperture macros list*
%AMRoundRect*
0 Rectangle with rounded corners*
0 $1 Rounding radius*
0 $2 $3 $4 $5 $6 $7 $8 $9 X,Y pos of 4 corners*
0 Add a 4 corners polygon primitive as box body*
4,1,4,$2,$3,$4,$5,$6,$7,$8,$9,$2,$3,0*
0 Add four circle primitives for the rounded corners*
1,1,$1+$1,$2,$3*
1,1,$1+$1,$4,$5*
1,1,$1+$1,$6,$7*
1,1,$1+$1,$8,$9*
0 Add four rect primitives between the rounded corners*
20,1,$1+$1,$2,$3,$4,$5,0*
20,1,$1+$1,$4,$5,$6,$7,0*
20,1,$1+$1,$6,$7,$8,$9,0*
20,1,$1+$1,$8,$9,$2,$3,0*%
%AMRotRect*
0 Rectangle, with rotation*
0 The origin of the aperture is its center*
0 $1 length*
0 $2 width*
0 $3 Rotation angle, in degrees counterclockwise*
0 Add horizontal line*
21,1,$1,$2,0,0,$3*%
G04 Aperture macros list end*
%TA.AperFunction,ComponentPad*%
%ADD10C,1.498600*%
%TD*%
%TA.AperFunction,ComponentPad*%
%ADD11R,1.950000X1.950000*%
%TD*%
%TA.AperFunction,ComponentPad*%
%ADD12C,1.950000*%
%TD*%
%TA.AperFunction,ComponentPad*%
%ADD13C,2.700000*%
%TD*%
%TA.AperFunction,ComponentPad*%
%ADD14RotRect,1.530000X1.530000X135.000000*%
%TD*%
%TA.AperFunction,ComponentPad*%
%ADD15C,1.530000*%
%TD*%
%TA.AperFunction,ComponentPad*%
%ADD16RoundRect,0.250000X-0.725000X0.600000X-0.725000X-0.600000X0.725000X-0.600000X0.725000X0.600000X0*%
%TD*%
%TA.AperFunction,ComponentPad*%
%ADD17O,1.950000X1.700000*%
%TD*%
%TA.AperFunction,ViaPad*%
%ADD18C,0.600000*%
%TD*%
%TA.AperFunction,ViaPad*%
%ADD19C,0.800000*%
%TD*%
G04 APERTURE END LIST*
D10*
%TO.N,PYRO_1*%
%TO.C,J1*%
X146142393Y-95606859D03*
%TO.N,PYRO_2*%
X144374626Y-97374626D03*
%TO.N,PYRO_3*%
X142606859Y-99142393D03*
%TD*%
D11*
%TO.N,Net-(P2-Pad1)*%
%TO.C,P2*%
X194500000Y-107500000D03*
D12*
%TO.N,+12V*%
X194500000Y-112500000D03*
%TD*%
D13*
%TO.N,+12V*%
%TO.C,U10*%
X164500000Y-71000000D03*
%TO.N,GND*%
X169500000Y-71000000D03*
%TD*%
D11*
%TO.N,Net-(P3-Pad1)*%
%TO.C,P3*%
X194500000Y-96500000D03*
D12*
%TO.N,+12V*%
X194500000Y-101500000D03*
%TD*%
D10*
%TO.N,+5V_b*%
%TO.C,J4*%
X189000000Y-71500000D03*
%TO.N,GND*%
X186500000Y-71500000D03*
%TD*%
%TO.N,SERVO_6*%
%TO.C,J5*%
X135000000Y-77000000D03*
%TO.N,+5V_b*%
X135000000Y-79500000D03*
%TO.N,GND*%
X135000000Y-82000000D03*
%TD*%
D14*
%TO.N,unconnected-(U2-3V3-Pad1)*%
%TO.C,U2*%
X152703949Y-131796051D03*
D15*
%TO.N,unconnected-(U2-EN-Pad2)*%
X154500000Y-130000000D03*
%TO.N,SERVO_1*%
X156296052Y-128203949D03*
%TO.N,SERVO_2*%
X158092103Y-126407897D03*
%TO.N,SERVO_3*%
X159888154Y-124611846D03*
%TO.N,SERVO_4*%
X161684205Y-122815795D03*
%TO.N,PYRO_4*%
X163480257Y-121019744D03*
%TO.N,PYRO_5*%
X165276308Y-119223693D03*
%TO.N,unconnected-(U2-IO25-Pad9)*%
X167072359Y-117427641D03*
%TO.N,unconnected-(U2-IO26-Pad10)*%
X168868410Y-115631590D03*
%TO.N,unconnected-(U2-IO27-Pad11)*%
X170664461Y-113835539D03*
%TO.N,ICM_CLK*%
X172460513Y-112039488D03*
%TO.N,ICM_MISO*%
X174256564Y-110243436D03*
%TO.N,GND*%
X176052615Y-108447385D03*
%TO.N,ICM_MOSI*%
X177848666Y-106651334D03*
%TO.N,PYRO_6*%
X179644718Y-104855283D03*
%TO.N,PYRO_7*%
X181440769Y-103059231D03*
%TO.N,PYRO_8*%
X183236820Y-101263180D03*
%TO.N,+5V_a*%
X185032871Y-99467129D03*
%TO.N,unconnected-(U2-CLK-Pad20)*%
X167072359Y-81506617D03*
%TO.N,unconnected-(U2-SD0-Pad21)*%
X165276308Y-83302668D03*
%TO.N,unconnected-(U2-SD1-Pad22)*%
X163480257Y-85098719D03*
%TO.N,ICM_CS*%
X161684205Y-86894770D03*
%TO.N,unconnected-(U2-IO2-Pad24)*%
X159888154Y-88690822D03*
%TO.N,unconnected-(U2-IO0-Pad25)*%
X158092103Y-90486873D03*
%TO.N,unconnected-(U2-IO4-Pad26)*%
X156296052Y-92282924D03*
%TO.N,SERVO_5*%
X154500000Y-94078975D03*
%TO.N,SERVO_6*%
X152703949Y-95875027D03*
%TO.N,BMP_CS*%
X150907898Y-97671078D03*
%TO.N,BMP_CLK*%
X149111847Y-99467129D03*
%TO.N,BMP_MISO*%
X147315795Y-101263180D03*
%TO.N,GND*%
X145519744Y-103059231D03*
%TO.N,unconnected-(U2-IO21-Pad33)*%
X143723693Y-104855283D03*
%TO.N,PYRO_1*%
X141927642Y-106651334D03*
%TO.N,PYRO_2*%
X140131591Y-108447385D03*
%TO.N,PYRO_3*%
X138335539Y-110243436D03*
%TO.N,BMP_MOSI*%
X136539488Y-112039488D03*
%TO.N,GND*%
X134743437Y-113835539D03*
%TD*%
D10*
%TO.N,SERVO_5*%
%TO.C,J2*%
X146466600Y-71329801D03*
%TO.N,+5V_b*%
X143966600Y-71329801D03*
%TO.N,GND*%
X141466600Y-71329801D03*
%TD*%
D16*
%TO.N,SERVO_1*%
%TO.C,J3*%
X135000000Y-88500000D03*
D17*
%TO.N,SERVO_2*%
X135000000Y-91000000D03*
%TO.N,SERVO_3*%
X135000000Y-93500000D03*
%TO.N,SERVO_4*%
X135000000Y-95999999D03*
%TO.N,PYRO_4*%
X134999999Y-98499999D03*
%TO.N,PYRO_5*%
X135000000Y-101000000D03*
%TD*%
D11*
%TO.N,Net-(P1-Pad1)*%
%TO.C,P1*%
X194462500Y-118500000D03*
D12*
%TO.N,+12V*%
X194462500Y-123500000D03*
%TD*%
D13*
%TO.N,+12V*%
%TO.C,U8*%
X153500000Y-71000000D03*
%TO.N,GND*%
X158500000Y-71000000D03*
%TD*%
D18*
%TO.N,GND*%
X145175302Y-76186325D03*
D19*
X189000000Y-132500000D03*
D18*
X152231775Y-90500000D03*
D19*
X188080000Y-112900000D03*
D18*
X156500000Y-75000000D03*
X146424375Y-86251819D03*
D19*
X188760000Y-121350001D03*
D18*
X180200001Y-125500000D03*
X141611915Y-80682712D03*
X154001213Y-75963252D03*
X151725629Y-84821974D03*
X142588226Y-85903759D03*
X177000000Y-122000000D03*
X183500000Y-84000000D03*
X153326086Y-84938125D03*
X172000001Y-131400001D03*
D19*
X182500000Y-69000000D03*
D18*
X173500000Y-82000000D03*
X175000000Y-119000000D03*
X148702748Y-84521454D03*
D19*
X192000000Y-77000000D03*
D18*
X166500001Y-124500001D03*
X151376086Y-83238125D03*
X141094532Y-74629459D03*
D19*
%TO.N,+5V_b*%
X172650000Y-72850000D03*
D18*
%TO.N,ICM_MOSI*%
X171500000Y-120500000D03*
%TO.N,+3.3V_b*%
X152100000Y-74400000D03*
X174400000Y-134100000D03*
X150000000Y-76500000D03*
X149600000Y-79100000D03*
D19*
%TO.N,+12V*%
X185000000Y-76500000D03*
X172800000Y-68251000D03*
%TO.N,Net-(JP2-A)*%
X185000000Y-82500000D03*
X195500000Y-82500000D03*
D18*
%TO.N,+1.8V*%
X163500000Y-130000000D03*
X162000000Y-77500000D03*
%TO.N,ICM_MISO*%
X178500000Y-122000000D03*
X170000000Y-131500000D03*
%TO.N,BMP_MISO*%
X149850000Y-95150000D03*
%TO.N,BMP_MOSI*%
X150300000Y-93700000D03*
%TD*%
%TA.AperFunction,Conductor*%
%TO.N,GND*%
G36*
X172676375Y-67520185D02*
G01*
X172722130Y-67572989D01*
X172732074Y-67642147D01*
X172703049Y-67705703D01*
X172644271Y-67743477D01*
X172641465Y-67744264D01*
X172595235Y-67756652D01*
X172595232Y-67756653D01*
X172474263Y-67826495D01*
X172375495Y-67925263D01*
X172305653Y-68046232D01*
X172305652Y-68046235D01*
X172269500Y-68181158D01*
X172269500Y-68320842D01*
X172305652Y-68455765D01*
X172375494Y-68576735D01*
X172474265Y-68675506D01*
X172595235Y-68745348D01*
X172730158Y-68781500D01*
X172730160Y-68781500D01*
X172869840Y-68781500D01*
X172869842Y-68781500D01*
X173004765Y-68745348D01*
X173125735Y-68675506D01*
X173224506Y-68576735D01*
X173294348Y-68455765D01*
X173330500Y-68320842D01*
X173330500Y-68181158D01*
X173294348Y-68046235D01*
X173224506Y-67925265D01*
X173125735Y-67826494D01*
X173004765Y-67756652D01*
X172958569Y-67744274D01*
X172898910Y-67707910D01*
X172868381Y-67645064D01*
X172876675Y-67575688D01*
X172921161Y-67521810D01*
X172987712Y-67500535D01*
X172990664Y-67500500D01*
X198875500Y-67500500D01*
X198942539Y-67520185D01*
X198988294Y-67572989D01*
X198999500Y-67624500D01*
X198999500Y-135375500D01*
X198979815Y-135442539D01*
X198927011Y-135488294D01*
X198875500Y-135499500D01*
X131124500Y-135499500D01*
X131057461Y-135479815D01*
X131011706Y-135427011D01*
X131000500Y-135375500D01*
X131000500Y-131845528D01*
X132249500Y-131845528D01*
X132249500Y-132154471D01*
X132284086Y-132461437D01*
X132284089Y-132461455D01*
X132352831Y-132762635D01*
X132352835Y-132762647D01*
X132454862Y-133054222D01*
X132454868Y-133054236D01*
X132588903Y-133332562D01*
X132588905Y-133332565D01*
X132753265Y-133594143D01*
X132945880Y-133835674D01*
X133164326Y-134054120D01*
X133405857Y-134246735D01*
X133667435Y-134411095D01*
X133945771Y-134545135D01*
X133945777Y-134545137D01*
X134237352Y-134647164D01*
X134237364Y-134647168D01*
X134538548Y-134715911D01*
X134538554Y-134715911D01*
X134538562Y-134715913D01*
X134743206Y-134738970D01*
X134845529Y-134750499D01*
X134845532Y-134750500D01*
X134845535Y-134750500D01*
X135154468Y-134750500D01*
X135154469Y-134750499D01*
X135311356Y-134732822D01*
X135461437Y-134715913D01*
X135461442Y-134715912D01*
X135461452Y-134715911D01*
X135762636Y-134647168D01*
X136054229Y-134545135D01*
X136332565Y-134411095D01*
X136594143Y-134246735D01*
X136835674Y-134054120D01*
X136846470Y-134043324D01*
X173969500Y-134043324D01*
X173969500Y-134156675D01*
X173998838Y-134266166D01*
X173998839Y-134266169D01*
X174055511Y-134364329D01*
X174055513Y-134364332D01*
X174055514Y-134364333D01*
X174135667Y-134444486D01*
X174233833Y-134501162D01*
X174343324Y-134530500D01*
X174343326Y-134530500D01*
X174456674Y-134530500D01*
X174456676Y-134530500D01*
X174566167Y-134501162D01*
X174664333Y-134444486D01*
X174744486Y-134364333D01*
X174801162Y-134266167D01*
X174830500Y-134156676D01*
X174830500Y-134043324D01*
X174801162Y-133933833D01*
X174744490Y-133835674D01*
X174744488Y-133835670D01*
X174744484Y-133835665D01*
X174664334Y-133755515D01*
X174664329Y-133755511D01*
X174566169Y-133698839D01*
X174566168Y-133698838D01*
X174566167Y-133698838D01*
X174456676Y-133669500D01*
X174343324Y-133669500D01*
X174233833Y-133698838D01*
X174233830Y-133698839D01*
X174135670Y-133755511D01*
X174135665Y-133755515D01*
X174055515Y-133835665D01*
X174055511Y-133835670D01*
X173998839Y-133933830D01*
X173998838Y-133933833D01*
X173969500Y-134043324D01*
X136846470Y-134043324D01*
X137054120Y-133835674D01*
X137246735Y-133594143D01*
X137411095Y-133332565D01*
X137545135Y-133054229D01*
X137647168Y-132762636D01*
X137715911Y-132461452D01*
X137750500Y-132154465D01*
X137750500Y-131845535D01*
X137744924Y-131796050D01*
X151489018Y-131796050D01*
X151499147Y-131846970D01*
X151520709Y-131879241D01*
X151520712Y-131879244D01*
X152620749Y-132979278D01*
X152620761Y-132979290D01*
X152653030Y-133000853D01*
X152695499Y-133009301D01*
X152703948Y-133010982D01*
X152703948Y-133010981D01*
X152703949Y-133010982D01*
X152754868Y-133000853D01*
X152787137Y-132979292D01*
X153887188Y-131879239D01*
X153908751Y-131846970D01*
X153918880Y-131796051D01*
X153908751Y-131745132D01*
X153887190Y-131712863D01*
X153887189Y-131712862D01*
X153887188Y-131712860D01*
X153887185Y-131712857D01*
X153697205Y-131522878D01*
X153617651Y-131443324D01*
X169569500Y-131443324D01*
X169569500Y-131556675D01*
X169598838Y-131666166D01*
X169598839Y-131666169D01*
X169655511Y-131764329D01*
X169655513Y-131764332D01*
X169655514Y-131764333D01*
X169735667Y-131844486D01*
X169735668Y-131844487D01*
X169735670Y-131844488D01*
X169739969Y-131846970D01*
X169833833Y-131901162D01*
X169943324Y-131930500D01*
X169943326Y-131930500D01*
X170056674Y-131930500D01*
X170056676Y-131930500D01*
X170166167Y-131901162D01*
X170262528Y-131845528D01*
X192249500Y-131845528D01*
X192249500Y-132154471D01*
X192284086Y-132461437D01*
X192284089Y-132461455D01*
X192352831Y-132762635D01*
X192352835Y-132762647D01*
X192454862Y-133054222D01*
X192454868Y-133054236D01*
X192588903Y-133332562D01*
X192588905Y-133332565D01*
X192753265Y-133594143D01*
X192945880Y-133835674D01*
X193164326Y-134054120D01*
X193405857Y-134246735D01*
X193667435Y-134411095D01*
X193945771Y-134545135D01*
X193945777Y-134545137D01*
X194237352Y-134647164D01*
X194237364Y-134647168D01*
X194538548Y-134715911D01*
X194538554Y-134715911D01*
X194538562Y-134715913D01*
X194743206Y-134738970D01*
X194845529Y-134750499D01*
X194845532Y-134750500D01*
X194845535Y-134750500D01*
X195154468Y-134750500D01*
X195154469Y-134750499D01*
X195311356Y-134732822D01*
X195461437Y-134715913D01*
X195461442Y-134715912D01*
X195461452Y-134715911D01*
X195762636Y-134647168D01*
X196054229Y-134545135D01*
X196332565Y-134411095D01*
X196594143Y-134246735D01*
X196835674Y-134054120D01*
X197054120Y-133835674D01*
X197246735Y-133594143D01*
X197411095Y-133332565D01*
X197545135Y-133054229D01*
X197647168Y-132762636D01*
X197715911Y-132461452D01*
X197750500Y-132154465D01*
X197750500Y-131845535D01*
X197750499Y-131845530D01*
X197750499Y-131845528D01*
X197750381Y-131844484D01*
X197735551Y-131712857D01*
X197715913Y-131538562D01*
X197715910Y-131538544D01*
X197647168Y-131237364D01*
X197647164Y-131237352D01*
X197545137Y-130945777D01*
X197545135Y-130945771D01*
X197411095Y-130667435D01*
X197246735Y-130405857D01*
X197054120Y-130164326D01*
X196835674Y-129945880D01*
X196832471Y-129943326D01*
X196695168Y-129833830D01*
X196594143Y-129753265D01*
X196332565Y-129588905D01*
X196332562Y-129588903D01*
X196054236Y-129454868D01*
X196054222Y-129454862D01*
X195762647Y-129352835D01*
X195762635Y-129352831D01*
X195461455Y-129284089D01*
X195461437Y-129284086D01*
X195154471Y-129249500D01*
X195154465Y-129249500D01*
X194845535Y-129249500D01*
X194845528Y-129249500D01*
X194538562Y-129284086D01*
X194538544Y-129284089D01*
X194237364Y-129352831D01*
X194237352Y-129352835D01*
X193945777Y-129454862D01*
X193945763Y-129454868D01*
X193667437Y-129588903D01*
X193405858Y-129753264D01*
X193164326Y-129945879D01*
X192945879Y-130164326D01*
X192753264Y-130405858D01*
X192588903Y-130667437D01*
X192454868Y-130945763D01*
X192454862Y-130945777D01*
X192352835Y-131237352D01*
X192352831Y-131237364D01*
X192284089Y-131538544D01*
X192284086Y-131538562D01*
X192249500Y-131845528D01*
X170262528Y-131845528D01*
X170264333Y-131844486D01*
X170344486Y-131764333D01*
X170401162Y-131666167D01*
X170430500Y-131556676D01*
X170430500Y-131443324D01*
X170401162Y-131333833D01*
X170371683Y-131282773D01*
X170344488Y-131235670D01*
X170344484Y-131235665D01*
X170264334Y-131155515D01*
X170264329Y-131155511D01*
X170166169Y-131098839D01*
X170166168Y-131098838D01*
X170166167Y-131098838D01*
X170056676Y-131069500D01*
X169943324Y-131069500D01*
X169833833Y-131098838D01*
X169833830Y-131098839D01*
X169735670Y-131155511D01*
X169735665Y-131155515D01*
X169655515Y-131235665D01*
X169655511Y-131235670D01*
X169598839Y-131333830D01*
X169598838Y-131333833D01*
X169569500Y-131443324D01*
X153617651Y-131443324D01*
X152787140Y-130612815D01*
X152787137Y-130612812D01*
X152754868Y-130591249D01*
X152703949Y-130581120D01*
X152653029Y-130591249D01*
X152620758Y-130612811D01*
X152620755Y-130612814D01*
X151520713Y-131712859D01*
X151520711Y-131712862D01*
X151499147Y-131745132D01*
X151489018Y-131796050D01*
X137744924Y-131796050D01*
X137715913Y-131538562D01*
X137715910Y-131538544D01*
X137647168Y-131237364D01*
X137647164Y-131237352D01*
X137545137Y-130945777D01*
X137545135Y-130945771D01*
X137411095Y-130667435D01*
X137246735Y-130405857D01*
X137054120Y-130164326D01*
X136977995Y-130088201D01*
X153604499Y-130088201D01*
X153638912Y-130261202D01*
X153638915Y-130261212D01*
X153706414Y-130424171D01*
X153706421Y-130424184D01*
X153804419Y-130570847D01*
X153804422Y-130570851D01*
X153929148Y-130695577D01*
X153929152Y-130695580D01*
X154075815Y-130793578D01*
X154075828Y-130793585D01*
X154238787Y-130861084D01*
X154238792Y-130861086D01*
X154238796Y-130861086D01*
X154238797Y-130861087D01*
X154411798Y-130895500D01*
X154411801Y-130895500D01*
X154588201Y-130895500D01*
X154704593Y-130872347D01*
X154761208Y-130861086D01*
X154924178Y-130793582D01*
X155070848Y-130695580D01*
X155195580Y-130570848D01*
X155293582Y-130424178D01*
X155303116Y-130401162D01*
X155359791Y-130264334D01*
X155361086Y-130261208D01*
X155395500Y-130088199D01*
X155395500Y-129943324D01*
X163069500Y-129943324D01*
X163069500Y-130056675D01*
X163098838Y-130166166D01*
X163098839Y-130166169D01*
X163155511Y-130264329D01*
X163155513Y-130264332D01*
X163155514Y-130264333D01*
X163235667Y-130344486D01*
X163333833Y-130401162D01*
X163443324Y-130430500D01*
X163443326Y-130430500D01*
X163556674Y-130430500D01*
X163556676Y-130430500D01*
X163666167Y-130401162D01*
X163764333Y-130344486D01*
X163844486Y-130264333D01*
X163901162Y-130166167D01*
X163930500Y-130056676D01*
X163930500Y-129943324D01*
X163901162Y-129833833D01*
X163846290Y-129738792D01*
X163844488Y-129735670D01*
X163844484Y-129735665D01*
X163764334Y-129655515D01*
X163764329Y-129655511D01*
X163666169Y-129598839D01*
X163666168Y-129598838D01*
X163666167Y-129598838D01*
X163556676Y-129569500D01*
X163443324Y-129569500D01*
X163333833Y-129598838D01*
X163333830Y-129598839D01*
X163235670Y-129655511D01*
X163235665Y-129655515D01*
X163155515Y-129735665D01*
X163155511Y-129735670D01*
X163098839Y-129833830D01*
X163098838Y-129833833D01*
X163069500Y-129943324D01*
X155395500Y-129943324D01*
X155395500Y-129911801D01*
X155395500Y-129911798D01*
X155361087Y-129738797D01*
X155361086Y-129738796D01*
X155361086Y-129738792D01*
X155326592Y-129655515D01*
X155293585Y-129575828D01*
X155293578Y-129575815D01*
X155195580Y-129429152D01*
X155195577Y-129429148D01*
X155070851Y-129304422D01*
X155070847Y-129304419D01*
X154924184Y-129206421D01*
X154924171Y-129206414D01*
X154761212Y-129138915D01*
X154761202Y-129138912D01*
X154588201Y-129104500D01*
X154588199Y-129104500D01*
X154411801Y-129104500D01*
X154411799Y-129104500D01*
X154238797Y-129138912D01*
X154238787Y-129138915D01*
X154075828Y-129206414D01*
X154075815Y-129206421D01*
X153929152Y-129304419D01*
X153929148Y-129304422D01*
X153804422Y-129429148D01*
X153804419Y-129429152D01*
X153706421Y-129575815D01*
X153706414Y-129575828D01*
X153638915Y-129738787D01*
X153638912Y-129738797D01*
X153604500Y-129911798D01*
X153604500Y-129911801D01*
X153604500Y-130088199D01*
X153604500Y-130088201D01*
X153604499Y-130088201D01*
X136977995Y-130088201D01*
X136835674Y-129945880D01*
X136832471Y-129943326D01*
X136695168Y-129833830D01*
X136594143Y-129753265D01*
X136332565Y-129588905D01*
X136332562Y-129588903D01*
X136054236Y-129454868D01*
X136054222Y-129454862D01*
X135762647Y-129352835D01*
X135762635Y-129352831D01*
X135461455Y-129284089D01*
X135461437Y-129284086D01*
X135154471Y-129249500D01*
X135154465Y-129249500D01*
X134845535Y-129249500D01*
X134845528Y-129249500D01*
X134538562Y-129284086D01*
X134538544Y-129284089D01*
X134237364Y-129352831D01*
X134237352Y-129352835D01*
X133945777Y-129454862D01*
X133945763Y-129454868D01*
X133667437Y-129588903D01*
X133405858Y-129753264D01*
X133164326Y-129945879D01*
X132945879Y-130164326D01*
X132753264Y-130405858D01*
X132588903Y-130667437D01*
X132454868Y-130945763D01*
X132454862Y-130945777D01*
X132352835Y-131237352D01*
X132352831Y-131237364D01*
X132284089Y-131538544D01*
X132284086Y-131538562D01*
X132249500Y-131845528D01*
X131000500Y-131845528D01*
X131000500Y-128292150D01*
X155400551Y-128292150D01*
X155434964Y-128465151D01*
X155434967Y-128465161D01*
X155502466Y-128628120D01*
X155502473Y-128628133D01*
X155600471Y-128774796D01*
X155600474Y-128774800D01*
X155725200Y-128899526D01*
X155725204Y-128899529D01*
X155871867Y-128997527D01*
X155871880Y-128997534D01*
X156034839Y-129065033D01*
X156034844Y-129065035D01*
X156034848Y-129065035D01*
X156034849Y-129065036D01*
X156207850Y-129099449D01*
X156207853Y-129099449D01*
X156384253Y-129099449D01*
X156500645Y-129076296D01*
X156557260Y-129065035D01*
X156720230Y-128997531D01*
X156866900Y-128899529D01*
X156991632Y-128774797D01*
X157089634Y-128628127D01*
X157157138Y-128465157D01*
X157191552Y-128292148D01*
X157191552Y-128115750D01*
X157191552Y-128115747D01*
X157157139Y-127942746D01*
X157157138Y-127942745D01*
X157157138Y-127942741D01*
X157157136Y-127942736D01*
X157089637Y-127779777D01*
X157089630Y-127779764D01*
X156991632Y-127633101D01*
X156991629Y-127633097D01*
X156866903Y-127508371D01*
X156866899Y-127508368D01*
X156720236Y-127410370D01*
X156720223Y-127410363D01*
X156557264Y-127342864D01*
X156557254Y-127342861D01*
X156384253Y-127308449D01*
X156384251Y-127308449D01*
X156207853Y-127308449D01*
X156207851Y-127308449D01*
X156034849Y-127342861D01*
X156034839Y-127342864D01*
X155871880Y-127410363D01*
X155871867Y-127410370D01*
X155725204Y-127508368D01*
X155725200Y-127508371D01*
X155600474Y-127633097D01*
X155600471Y-127633101D01*
X155502473Y-127779764D01*
X155502466Y-127779777D01*
X155434967Y-127942736D01*
X155434964Y-127942746D01*
X155400552Y-128115747D01*
X155400552Y-128115750D01*
X155400552Y-128292148D01*
X155400552Y-128292150D01*
X155400551Y-128292150D01*
X131000500Y-128292150D01*
X131000500Y-126496098D01*
X157196602Y-126496098D01*
X157231015Y-126669099D01*
X157231018Y-126669109D01*
X157298517Y-126832068D01*
X157298524Y-126832081D01*
X157396522Y-126978744D01*
X157396525Y-126978748D01*
X157521251Y-127103474D01*
X157521255Y-127103477D01*
X157667918Y-127201475D01*
X157667931Y-127201482D01*
X157830890Y-127268981D01*
X157830895Y-127268983D01*
X157830899Y-127268983D01*
X157830900Y-127268984D01*
X158003901Y-127303397D01*
X158003904Y-127303397D01*
X158180304Y-127303397D01*
X158296696Y-127280244D01*
X158353311Y-127268983D01*
X158516281Y-127201479D01*
X158662951Y-127103477D01*
X158787683Y-126978745D01*
X158885685Y-126832075D01*
X158953189Y-126669105D01*
X158987603Y-126496096D01*
X158987603Y-126319698D01*
X158987603Y-126319695D01*
X158953190Y-126146694D01*
X158953189Y-126146693D01*
X158953189Y-126146689D01*
X158953187Y-126146684D01*
X158885688Y-125983725D01*
X158885681Y-125983712D01*
X158787683Y-125837049D01*
X158787680Y-125837045D01*
X158662954Y-125712319D01*
X158662950Y-125712316D01*
X158516287Y-125614318D01*
X158516274Y-125614311D01*
X158353315Y-125546812D01*
X158353305Y-125546809D01*
X158180304Y-125512397D01*
X158180302Y-125512397D01*
X158003904Y-125512397D01*
X158003902Y-125512397D01*
X157830900Y-125546809D01*
X157830890Y-125546812D01*
X157667931Y-125614311D01*
X157667918Y-125614318D01*
X157521255Y-125712316D01*
X157521251Y-125712319D01*
X157396525Y-125837045D01*
X157396522Y-125837049D01*
X157298524Y-125983712D01*
X157298517Y-125983725D01*
X157231018Y-126146684D01*
X157231015Y-126146694D01*
X157196603Y-126319695D01*
X157196603Y-126319698D01*
X157196603Y-126496096D01*
X157196603Y-126496098D01*
X157196602Y-126496098D01*
X131000500Y-126496098D01*
X131000500Y-124700047D01*
X158992653Y-124700047D01*
X159027066Y-124873048D01*
X159027069Y-124873058D01*
X159094568Y-125036017D01*
X159094575Y-125036030D01*
X159192573Y-125182693D01*
X159192576Y-125182697D01*
X159317302Y-125307423D01*
X159317306Y-125307426D01*
X159463969Y-125405424D01*
X159463982Y-125405431D01*
X159626941Y-125472930D01*
X159626946Y-125472932D01*
X159626950Y-125472932D01*
X159626951Y-125472933D01*
X159799952Y-125507346D01*
X159799955Y-125507346D01*
X159976355Y-125507346D01*
X160092747Y-125484193D01*
X160149362Y-125472932D01*
X160312332Y-125405428D01*
X160459002Y-125307426D01*
X160583734Y-125182694D01*
X160681736Y-125036024D01*
X160749240Y-124873054D01*
X160783654Y-124700045D01*
X160783654Y-124523647D01*
X160783654Y-124523644D01*
X160749241Y-124350643D01*
X160749240Y-124350642D01*
X160749240Y-124350638D01*
X160695205Y-124220185D01*
X160681739Y-124187674D01*
X160681732Y-124187661D01*
X160583734Y-124040998D01*
X160583731Y-124040994D01*
X160459005Y-123916268D01*
X160459001Y-123916265D01*
X160312338Y-123818267D01*
X160312325Y-123818260D01*
X160149366Y-123750761D01*
X160149356Y-123750758D01*
X159976355Y-123716346D01*
X159976353Y-123716346D01*
X159799955Y-123716346D01*
X159799953Y-123716346D01*
X159626951Y-123750758D01*
X159626941Y-123750761D01*
X159463982Y-123818260D01*
X159463969Y-123818267D01*
X159317306Y-123916265D01*
X159317302Y-123916268D01*
X159192576Y-124040994D01*
X159192573Y-124040998D01*
X159094575Y-124187661D01*
X159094568Y-124187674D01*
X159027069Y-124350633D01*
X159027066Y-124350643D01*
X158992654Y-124523644D01*
X158992654Y-124523647D01*
X158992654Y-124700045D01*
X158992654Y-124700047D01*
X158992653Y-124700047D01*
X131000500Y-124700047D01*
X131000500Y-122903996D01*
X160788704Y-122903996D01*
X160823117Y-123076997D01*
X160823120Y-123077007D01*
X160890619Y-123239966D01*
X160890626Y-123239979D01*
X160988624Y-123386642D01*
X160988627Y-123386646D01*
X161113353Y-123511372D01*
X161113357Y-123511375D01*
X161260020Y-123609373D01*
X161260033Y-123609380D01*
X161422992Y-123676879D01*
X161422997Y-123676881D01*
X161423001Y-123676881D01*
X161423002Y-123676882D01*
X161596003Y-123711295D01*
X161596006Y-123711295D01*
X161772406Y-123711295D01*
X161888798Y-123688142D01*
X161945413Y-123676881D01*
X162108383Y-123609377D01*
X162255053Y-123511375D01*
X162353439Y-123412989D01*
X193357000Y-123412989D01*
X193357000Y-123587010D01*
X193384220Y-123758872D01*
X193437994Y-123924369D01*
X193516994Y-124079411D01*
X193619266Y-124220178D01*
X193619270Y-124220183D01*
X193742316Y-124343229D01*
X193742321Y-124343233D01*
X193865105Y-124432440D01*
X193883092Y-124445508D01*
X193981881Y-124495844D01*
X194038130Y-124524505D01*
X194038132Y-124524505D01*
X194038135Y-124524507D01*
X194126843Y-124553330D01*
X194203627Y-124578279D01*
X194375490Y-124605500D01*
X194375495Y-124605500D01*
X194549510Y-124605500D01*
X194721372Y-124578279D01*
X194886865Y-124524507D01*
X195041908Y-124445508D01*
X195182685Y-124343228D01*
X195305728Y-124220185D01*
X195408008Y-124079408D01*
X195487007Y-123924365D01*
X195540779Y-123758872D01*
X195542064Y-123750758D01*
X195568000Y-123587010D01*
X195568000Y-123412989D01*
X195540779Y-123241127D01*
X195515830Y-123164343D01*
X195487007Y-123075635D01*
X195487005Y-123075632D01*
X195487005Y-123075630D01*
X195458344Y-123019381D01*
X195408008Y-122920592D01*
X195394940Y-122902605D01*
X195305733Y-122779821D01*
X195305729Y-122779816D01*
X195182683Y-122656770D01*
X195182678Y-122656766D01*
X195041911Y-122554494D01*
X195041910Y-122554493D01*
X195041908Y-122554492D01*
X194993492Y-122529823D01*
X194886869Y-122475494D01*
X194721372Y-122421720D01*
X194549510Y-122394500D01*
X194549505Y-122394500D01*
X194375495Y-122394500D01*
X194375490Y-122394500D01*
X194203627Y-122421720D01*
X194038130Y-122475494D01*
X193883088Y-122554494D01*
X193742321Y-122656766D01*
X193742316Y-122656770D01*
X193619270Y-122779816D01*
X193619266Y-122779821D01*
X193516994Y-122920588D01*
X193437994Y-123075630D01*
X193384220Y-123241127D01*
X193357000Y-123412989D01*
X162353439Y-123412989D01*
X162379785Y-123386643D01*
X162477787Y-123239973D01*
X162545291Y-123077003D01*
X162556552Y-123020388D01*
X162579705Y-122903996D01*
X162579705Y-122727593D01*
X162545292Y-122554592D01*
X162545291Y-122554591D01*
X162545291Y-122554587D01*
X162545289Y-122554582D01*
X162477790Y-122391623D01*
X162477783Y-122391610D01*
X162379785Y-122244947D01*
X162379782Y-122244943D01*
X162255056Y-122120217D01*
X162255052Y-122120214D01*
X162108389Y-122022216D01*
X162108376Y-122022209D01*
X161945417Y-121954710D01*
X161945407Y-121954707D01*
X161888181Y-121943324D01*
X178069500Y-121943324D01*
X178069500Y-122056675D01*
X178098838Y-122166166D01*
X178098839Y-122166169D01*
X178155511Y-122264329D01*
X178155513Y-122264332D01*
X178155514Y-122264333D01*
X178235667Y-122344486D01*
X178333833Y-122401162D01*
X178443324Y-122430500D01*
X178443326Y-122430500D01*
X178556674Y-122430500D01*
X178556676Y-122430500D01*
X178666167Y-122401162D01*
X178764333Y-122344486D01*
X178844486Y-122264333D01*
X178901162Y-122166167D01*
X178930500Y-122056676D01*
X178930500Y-121943324D01*
X178901162Y-121833833D01*
X178844486Y-121735667D01*
X178764333Y-121655514D01*
X178764332Y-121655513D01*
X178764329Y-121655511D01*
X178666169Y-121598839D01*
X178666168Y-121598838D01*
X178666167Y-121598838D01*
X178556676Y-121569500D01*
X178443324Y-121569500D01*
X178333833Y-121598838D01*
X178333830Y-121598839D01*
X178235670Y-121655511D01*
X178235665Y-121655515D01*
X178155515Y-121735665D01*
X178155511Y-121735670D01*
X178098839Y-121833830D01*
X178098838Y-121833833D01*
X178069500Y-121943324D01*
X161888181Y-121943324D01*
X161772406Y-121920295D01*
X161772404Y-121920295D01*
X161596006Y-121920295D01*
X161596004Y-121920295D01*
X161423002Y-121954707D01*
X161422992Y-121954710D01*
X161260033Y-122022209D01*
X161260020Y-122022216D01*
X161113357Y-122120214D01*
X161113353Y-122120217D01*
X160988627Y-122244943D01*
X160988624Y-122244947D01*
X160890626Y-122391610D01*
X160890619Y-122391623D01*
X160823120Y-122554582D01*
X160823117Y-122554592D01*
X160788705Y-122727593D01*
X160788705Y-122727596D01*
X160788705Y-122903994D01*
X160788705Y-122903996D01*
X160788704Y-122903996D01*
X131000500Y-122903996D01*
X131000500Y-121107945D01*
X162584756Y-121107945D01*
X162619169Y-121280946D01*
X162619172Y-121280956D01*
X162686671Y-121443915D01*
X162686678Y-121443928D01*
X162784676Y-121590591D01*
X162784679Y-121590595D01*
X162909405Y-121715321D01*
X162909409Y-121715324D01*
X163056072Y-121813322D01*
X163056085Y-121813329D01*
X163219044Y-121880828D01*
X163219049Y-121880830D01*
X163219053Y-121880830D01*
X163219054Y-121880831D01*
X163392055Y-121915244D01*
X163392058Y-121915244D01*
X163568458Y-121915244D01*
X163684850Y-121892091D01*
X163741465Y-121880830D01*
X163807254Y-121853579D01*
X163886788Y-121820636D01*
X163904429Y-121813329D01*
X163904432Y-121813327D01*
X163904435Y-121813326D01*
X164051105Y-121715324D01*
X164175837Y-121590592D01*
X164273839Y-121443922D01*
X164341343Y-121280952D01*
X164375757Y-121107943D01*
X164375757Y-120931545D01*
X164375757Y-120931542D01*
X164341344Y-120758541D01*
X164341343Y-120758540D01*
X164341343Y-120758536D01*
X164303083Y-120666167D01*
X164273842Y-120595572D01*
X164273835Y-120595559D01*
X164212716Y-120504088D01*
X164175837Y-120448896D01*
X164175834Y-120448892D01*
X164170266Y-120443324D01*
X171069500Y-120443324D01*
X171069500Y-120556675D01*
X171098838Y-120666166D01*
X171098839Y-120666169D01*
X171155511Y-120764329D01*
X171155513Y-120764332D01*
X171155514Y-120764333D01*
X171235667Y-120844486D01*
X171333833Y-120901162D01*
X171443324Y-120930500D01*
X171443326Y-120930500D01*
X171556674Y-120930500D01*
X171556676Y-120930500D01*
X171666167Y-120901162D01*
X171764333Y-120844486D01*
X171844486Y-120764333D01*
X171901162Y-120666167D01*
X171930500Y-120556676D01*
X171930500Y-120443324D01*
X171901162Y-120333833D01*
X171844486Y-120235667D01*
X171764333Y-120155514D01*
X171764332Y-120155513D01*
X171764329Y-120155511D01*
X171666169Y-120098839D01*
X171666168Y-120098838D01*
X171666167Y-120098838D01*
X171556676Y-120069500D01*
X171443324Y-120069500D01*
X171333833Y-120098838D01*
X171333830Y-120098839D01*
X171235670Y-120155511D01*
X171235665Y-120155515D01*
X171155515Y-120235665D01*
X171155511Y-120235670D01*
X171098839Y-120333830D01*
X171098838Y-120333833D01*
X171069500Y-120443324D01*
X164170266Y-120443324D01*
X164051108Y-120324166D01*
X164051104Y-120324163D01*
X163904441Y-120226165D01*
X163904428Y-120226158D01*
X163741469Y-120158659D01*
X163741459Y-120158656D01*
X163568458Y-120124244D01*
X163568456Y-120124244D01*
X163392058Y-120124244D01*
X163392056Y-120124244D01*
X163219054Y-120158656D01*
X163219044Y-120158659D01*
X163056085Y-120226158D01*
X163056072Y-120226165D01*
X162909409Y-120324163D01*
X162909405Y-120324166D01*
X162784679Y-120448892D01*
X162784676Y-120448896D01*
X162686678Y-120595559D01*
X162686671Y-120595572D01*
X162619172Y-120758531D01*
X162619169Y-120758541D01*
X162584757Y-120931542D01*
X162584757Y-120931545D01*
X162584757Y-121107943D01*
X162584757Y-121107945D01*
X162584756Y-121107945D01*
X131000500Y-121107945D01*
X131000500Y-119311894D01*
X164380807Y-119311894D01*
X164415220Y-119484895D01*
X164415223Y-119484905D01*
X164482722Y-119647864D01*
X164482729Y-119647877D01*
X164580727Y-119794540D01*
X164580730Y-119794544D01*
X164705456Y-119919270D01*
X164705460Y-119919273D01*
X164852123Y-120017271D01*
X164852136Y-120017278D01*
X164978213Y-120069500D01*
X165015100Y-120084779D01*
X165015104Y-120084779D01*
X165015105Y-120084780D01*
X165188106Y-120119193D01*
X165188109Y-120119193D01*
X165364509Y-120119193D01*
X165480901Y-120096040D01*
X165537516Y-120084779D01*
X165700486Y-120017275D01*
X165847156Y-119919273D01*
X165971888Y-119794541D01*
X166069890Y-119647871D01*
X166137394Y-119484901D01*
X166171808Y-119311892D01*
X166171808Y-119135494D01*
X166171808Y-119135491D01*
X166137395Y-118962490D01*
X166137394Y-118962489D01*
X166137394Y-118962485D01*
X166137392Y-118962480D01*
X166069893Y-118799521D01*
X166069886Y-118799508D01*
X165971888Y-118652845D01*
X165971885Y-118652841D01*
X165847159Y-118528115D01*
X165847155Y-118528112D01*
X165700492Y-118430114D01*
X165700479Y-118430107D01*
X165537520Y-118362608D01*
X165537510Y-118362605D01*
X165364509Y-118328193D01*
X165364507Y-118328193D01*
X165188109Y-118328193D01*
X165188107Y-118328193D01*
X165015105Y-118362605D01*
X165015095Y-118362608D01*
X164852136Y-118430107D01*
X164852123Y-118430114D01*
X164705460Y-118528112D01*
X164705456Y-118528115D01*
X164580730Y-118652841D01*
X164580727Y-118652845D01*
X164482729Y-118799508D01*
X164482722Y-118799521D01*
X164415223Y-118962480D01*
X164415220Y-118962490D01*
X164380808Y-119135491D01*
X164380808Y-119135494D01*
X164380808Y-119311892D01*
X164380808Y-119311894D01*
X164380807Y-119311894D01*
X131000500Y-119311894D01*
X131000500Y-117515842D01*
X166176858Y-117515842D01*
X166211271Y-117688843D01*
X166211274Y-117688853D01*
X166278773Y-117851812D01*
X166278780Y-117851825D01*
X166376778Y-117998488D01*
X166376781Y-117998492D01*
X166501507Y-118123218D01*
X166501511Y-118123221D01*
X166648174Y-118221219D01*
X166648187Y-118221226D01*
X166811146Y-118288725D01*
X166811151Y-118288727D01*
X166811155Y-118288727D01*
X166811156Y-118288728D01*
X166984157Y-118323141D01*
X166984160Y-118323141D01*
X167160560Y-118323141D01*
X167276952Y-118299988D01*
X167333567Y-118288727D01*
X167496537Y-118221223D01*
X167643207Y-118123221D01*
X167767939Y-117998489D01*
X167865941Y-117851819D01*
X167933445Y-117688849D01*
X167967859Y-117515840D01*
X167967859Y-117512141D01*
X193357000Y-117512141D01*
X193357000Y-119487850D01*
X193357001Y-119487858D01*
X193364570Y-119525916D01*
X193364571Y-119525919D01*
X193393414Y-119569086D01*
X193436581Y-119597929D01*
X193474645Y-119605500D01*
X195450354Y-119605499D01*
X195488419Y-119597929D01*
X195531586Y-119569086D01*
X195560429Y-119525919D01*
X195568000Y-119487855D01*
X195567999Y-117512146D01*
X195560429Y-117474081D01*
X195531586Y-117430914D01*
X195488419Y-117402071D01*
X195488418Y-117402070D01*
X195450357Y-117394500D01*
X193474649Y-117394500D01*
X193474641Y-117394501D01*
X193436583Y-117402070D01*
X193436580Y-117402071D01*
X193393414Y-117430914D01*
X193364570Y-117474081D01*
X193357000Y-117512141D01*
X167967859Y-117512141D01*
X167967859Y-117339442D01*
X167967859Y-117339439D01*
X167933446Y-117166438D01*
X167933445Y-117166437D01*
X167933445Y-117166433D01*
X167933443Y-117166428D01*
X167865944Y-117003469D01*
X167865937Y-117003456D01*
X167767939Y-116856793D01*
X167767936Y-116856789D01*
X167643210Y-116732063D01*
X167643206Y-116732060D01*
X167496543Y-116634062D01*
X167496530Y-116634055D01*
X167333571Y-116566556D01*
X167333561Y-116566553D01*
X167160560Y-116532141D01*
X167160558Y-116532141D01*
X166984160Y-116532141D01*
X166984158Y-116532141D01*
X166811156Y-116566553D01*
X166811146Y-116566556D01*
X166648187Y-116634055D01*
X166648174Y-116634062D01*
X166501511Y-116732060D01*
X166501507Y-116732063D01*
X166376781Y-116856789D01*
X166376778Y-116856793D01*
X166278780Y-117003456D01*
X166278773Y-117003469D01*
X166211274Y-117166428D01*
X166211271Y-117166438D01*
X166176859Y-117339439D01*
X166176859Y-117339442D01*
X166176859Y-117515840D01*
X166176859Y-117515842D01*
X166176858Y-117515842D01*
X131000500Y-117515842D01*
X131000500Y-115719791D01*
X167972909Y-115719791D01*
X168007322Y-115892792D01*
X168007325Y-115892802D01*
X168074824Y-116055761D01*
X168074831Y-116055774D01*
X168172829Y-116202437D01*
X168172832Y-116202441D01*
X168297558Y-116327167D01*
X168297562Y-116327170D01*
X168444225Y-116425168D01*
X168444238Y-116425175D01*
X168607197Y-116492674D01*
X168607202Y-116492676D01*
X168607206Y-116492676D01*
X168607207Y-116492677D01*
X168780208Y-116527090D01*
X168780211Y-116527090D01*
X168956611Y-116527090D01*
X169073003Y-116503937D01*
X169129618Y-116492676D01*
X169292588Y-116425172D01*
X169439258Y-116327170D01*
X169563990Y-116202438D01*
X169661992Y-116055768D01*
X169729496Y-115892798D01*
X169763910Y-115719789D01*
X169763910Y-115543391D01*
X169763910Y-115543388D01*
X169729497Y-115370387D01*
X169729496Y-115370386D01*
X169729496Y-115370382D01*
X169729494Y-115370377D01*
X169661995Y-115207418D01*
X169661988Y-115207405D01*
X169563990Y-115060742D01*
X169563987Y-115060738D01*
X169439261Y-114936012D01*
X169439257Y-114936009D01*
X169292594Y-114838011D01*
X169292581Y-114838004D01*
X169129622Y-114770505D01*
X169129612Y-114770502D01*
X168956611Y-114736090D01*
X168956609Y-114736090D01*
X168780211Y-114736090D01*
X168780209Y-114736090D01*
X168607207Y-114770502D01*
X168607197Y-114770505D01*
X168444238Y-114838004D01*
X168444225Y-114838011D01*
X168297562Y-114936009D01*
X168297558Y-114936012D01*
X168172832Y-115060738D01*
X168172829Y-115060742D01*
X168074831Y-115207405D01*
X168074824Y-115207418D01*
X168007325Y-115370377D01*
X168007322Y-115370387D01*
X167972910Y-115543388D01*
X167972910Y-115543391D01*
X167972910Y-115719789D01*
X167972910Y-115719791D01*
X167972909Y-115719791D01*
X131000500Y-115719791D01*
X131000500Y-113585539D01*
X133502264Y-113585539D01*
X134298877Y-113585539D01*
X134268192Y-113638686D01*
X134233437Y-113768396D01*
X134233437Y-113902682D01*
X134268192Y-114032392D01*
X134298877Y-114085539D01*
X133502264Y-114085539D01*
X133509584Y-114131761D01*
X133571116Y-114321135D01*
X133661512Y-114498544D01*
X133778551Y-114659632D01*
X133778551Y-114659633D01*
X133919342Y-114800424D01*
X134080431Y-114917463D01*
X134257842Y-115007859D01*
X134447214Y-115069391D01*
X134493436Y-115076710D01*
X134493437Y-115076710D01*
X134493437Y-114280099D01*
X134546584Y-114310784D01*
X134676294Y-114345539D01*
X134810580Y-114345539D01*
X134940290Y-114310784D01*
X134993437Y-114280099D01*
X134993437Y-115076710D01*
X135039659Y-115069391D01*
X135229031Y-115007859D01*
X135406442Y-114917463D01*
X135567530Y-114800424D01*
X135567531Y-114800424D01*
X135708322Y-114659633D01*
X135708322Y-114659632D01*
X135825361Y-114498544D01*
X135915757Y-114321135D01*
X135977289Y-114131761D01*
X135984610Y-114085539D01*
X135187997Y-114085539D01*
X135218682Y-114032392D01*
X135247795Y-113923740D01*
X169768960Y-113923740D01*
X169803373Y-114096741D01*
X169803376Y-114096751D01*
X169870875Y-114259710D01*
X169870882Y-114259723D01*
X169968880Y-114406386D01*
X169968883Y-114406390D01*
X170093609Y-114531116D01*
X170093613Y-114531119D01*
X170240276Y-114629117D01*
X170240289Y-114629124D01*
X170403248Y-114696623D01*
X170403253Y-114696625D01*
X170403257Y-114696625D01*
X170403258Y-114696626D01*
X170576259Y-114731039D01*
X170576262Y-114731039D01*
X170752662Y-114731039D01*
X170869054Y-114707886D01*
X170925669Y-114696625D01*
X171088639Y-114629121D01*
X171235309Y-114531119D01*
X171360041Y-114406387D01*
X171458043Y-114259717D01*
X171525547Y-114096747D01*
X171559961Y-113923738D01*
X171559961Y-113747340D01*
X171559961Y-113747337D01*
X171525548Y-113574336D01*
X171525547Y-113574335D01*
X171525547Y-113574331D01*
X171525545Y-113574326D01*
X171458046Y-113411367D01*
X171458039Y-113411354D01*
X171360041Y-113264691D01*
X171360038Y-113264687D01*
X171235312Y-113139961D01*
X171235308Y-113139958D01*
X171088645Y-113041960D01*
X171088632Y-113041953D01*
X170925673Y-112974454D01*
X170925663Y-112974451D01*
X170752662Y-112940039D01*
X170752660Y-112940039D01*
X170576262Y-112940039D01*
X170576260Y-112940039D01*
X170403258Y-112974451D01*
X170403248Y-112974454D01*
X170240289Y-113041953D01*
X170240276Y-113041960D01*
X170093613Y-113139958D01*
X170093609Y-113139961D01*
X169968883Y-113264687D01*
X169968880Y-113264691D01*
X169870882Y-113411354D01*
X169870875Y-113411367D01*
X169803376Y-113574326D01*
X169803373Y-113574336D01*
X169768961Y-113747337D01*
X169768961Y-113747340D01*
X169768961Y-113923738D01*
X169768961Y-113923740D01*
X169768960Y-113923740D01*
X135247795Y-113923740D01*
X135253437Y-113902682D01*
X135253437Y-113768396D01*
X135218682Y-113638686D01*
X135187997Y-113585539D01*
X135984610Y-113585539D01*
X135977289Y-113539316D01*
X135915757Y-113349942D01*
X135825361Y-113172533D01*
X135708322Y-113011445D01*
X135708322Y-113011444D01*
X135567531Y-112870653D01*
X135406442Y-112753614D01*
X135229033Y-112663218D01*
X135039659Y-112601686D01*
X134993437Y-112594365D01*
X134993437Y-113390978D01*
X134940290Y-113360294D01*
X134810580Y-113325539D01*
X134676294Y-113325539D01*
X134546584Y-113360294D01*
X134493437Y-113390978D01*
X134493437Y-112594365D01*
X134447214Y-112601686D01*
X134257840Y-112663218D01*
X134080431Y-112753614D01*
X133919343Y-112870653D01*
X133919342Y-112870653D01*
X133778551Y-113011444D01*
X133778551Y-113011445D01*
X133661512Y-113172533D01*
X133571116Y-113349942D01*
X133509584Y-113539316D01*
X133502264Y-113585539D01*
X131000500Y-113585539D01*
X131000500Y-112127689D01*
X135643987Y-112127689D01*
X135678400Y-112300690D01*
X135678403Y-112300700D01*
X135745902Y-112463659D01*
X135745909Y-112463672D01*
X135843907Y-112610335D01*
X135843910Y-112610339D01*
X135968636Y-112735065D01*
X135968640Y-112735068D01*
X136115303Y-112833066D01*
X136115316Y-112833073D01*
X136278275Y-112900572D01*
X136278280Y-112900574D01*
X136278284Y-112900574D01*
X136278285Y-112900575D01*
X136451286Y-112934988D01*
X136451289Y-112934988D01*
X136627689Y-112934988D01*
X136744081Y-112911835D01*
X136800696Y-112900574D01*
X136963666Y-112833070D01*
X137110336Y-112735068D01*
X137235068Y-112610336D01*
X137333070Y-112463666D01*
X137400574Y-112300696D01*
X137434988Y-112127689D01*
X171565012Y-112127689D01*
X171599425Y-112300690D01*
X171599428Y-112300700D01*
X171666927Y-112463659D01*
X171666934Y-112463672D01*
X171764932Y-112610335D01*
X171764935Y-112610339D01*
X171889661Y-112735065D01*
X171889665Y-112735068D01*
X172036328Y-112833066D01*
X172036341Y-112833073D01*
X172199300Y-112900572D01*
X172199305Y-112900574D01*
X172199309Y-112900574D01*
X172199310Y-112900575D01*
X172372311Y-112934988D01*
X172372314Y-112934988D01*
X172548714Y-112934988D01*
X172665106Y-112911835D01*
X172721721Y-112900574D01*
X172884691Y-112833070D01*
X173031361Y-112735068D01*
X173156093Y-112610336D01*
X173254095Y-112463666D01*
X173254098Y-112463659D01*
X173275086Y-112412989D01*
X193394500Y-112412989D01*
X193394500Y-112587010D01*
X193421720Y-112758872D01*
X193475494Y-112924369D01*
X193554494Y-113079411D01*
X193656766Y-113220178D01*
X193656770Y-113220183D01*
X193779816Y-113343229D01*
X193779821Y-113343233D01*
X193803304Y-113360294D01*
X193920592Y-113445508D01*
X194019381Y-113495844D01*
X194075630Y-113524505D01*
X194075632Y-113524505D01*
X194075635Y-113524507D01*
X194164343Y-113553330D01*
X194241127Y-113578279D01*
X194412990Y-113605500D01*
X194412995Y-113605500D01*
X194587010Y-113605500D01*
X194758872Y-113578279D01*
X194771038Y-113574326D01*
X194924365Y-113524507D01*
X195079408Y-113445508D01*
X195220185Y-113343228D01*
X195343228Y-113220185D01*
X195445508Y-113079408D01*
X195524507Y-112924365D01*
X195578279Y-112758872D01*
X195582050Y-112735065D01*
X195605500Y-112587010D01*
X195605500Y-112412989D01*
X195578279Y-112241127D01*
X195524505Y-112075630D01*
X195495844Y-112019381D01*
X195445508Y-111920592D01*
X195432440Y-111902605D01*
X195343233Y-111779821D01*
X195343229Y-111779816D01*
X195220183Y-111656770D01*
X195220178Y-111656766D01*
X195079411Y-111554494D01*
X195079410Y-111554493D01*
X195079408Y-111554492D01*
X195030992Y-111529823D01*
X194924369Y-111475494D01*
X194758872Y-111421720D01*
X194587010Y-111394500D01*
X194587005Y-111394500D01*
X194412995Y-111394500D01*
X194412990Y-111394500D01*
X194241127Y-111421720D01*
X194075630Y-111475494D01*
X193920588Y-111554494D01*
X193779821Y-111656766D01*
X193779816Y-111656770D01*
X193656770Y-111779816D01*
X193656766Y-111779821D01*
X193554494Y-111920588D01*
X193475494Y-112075630D01*
X193421720Y-112241127D01*
X193394500Y-112412989D01*
X173275086Y-112412989D01*
X173296757Y-112360671D01*
X173321597Y-112300700D01*
X173321599Y-112300696D01*
X173356013Y-112127687D01*
X173356013Y-111951289D01*
X173356013Y-111951286D01*
X173321600Y-111778285D01*
X173321599Y-111778284D01*
X173321599Y-111778280D01*
X173271269Y-111656772D01*
X173254098Y-111615316D01*
X173254091Y-111615303D01*
X173156093Y-111468640D01*
X173156090Y-111468636D01*
X173031364Y-111343910D01*
X173031360Y-111343907D01*
X172884697Y-111245909D01*
X172884684Y-111245902D01*
X172721725Y-111178403D01*
X172721715Y-111178400D01*
X172548714Y-111143988D01*
X172548712Y-111143988D01*
X172372314Y-111143988D01*
X172372312Y-111143988D01*
X172199310Y-111178400D01*
X172199300Y-111178403D01*
X172036341Y-111245902D01*
X172036328Y-111245909D01*
X171889665Y-111343907D01*
X171889661Y-111343910D01*
X171764935Y-111468636D01*
X171764932Y-111468640D01*
X171666934Y-111615303D01*
X171666927Y-111615316D01*
X171599428Y-111778275D01*
X171599425Y-111778285D01*
X171565013Y-111951286D01*
X171565013Y-111951289D01*
X171565013Y-112127687D01*
X171565013Y-112127689D01*
X171565012Y-112127689D01*
X137434988Y-112127689D01*
X137434988Y-112127687D01*
X137434988Y-111951289D01*
X137434988Y-111951286D01*
X137400575Y-111778285D01*
X137400574Y-111778284D01*
X137400574Y-111778280D01*
X137350244Y-111656772D01*
X137333073Y-111615316D01*
X137333066Y-111615303D01*
X137235068Y-111468640D01*
X137235065Y-111468636D01*
X137110339Y-111343910D01*
X137110335Y-111343907D01*
X136963672Y-111245909D01*
X136963659Y-111245902D01*
X136800700Y-111178403D01*
X136800690Y-111178400D01*
X136627689Y-111143988D01*
X136627687Y-111143988D01*
X136451289Y-111143988D01*
X136451287Y-111143988D01*
X136278285Y-111178400D01*
X136278275Y-111178403D01*
X136115316Y-111245902D01*
X136115303Y-111245909D01*
X135968640Y-111343907D01*
X135968636Y-111343910D01*
X135843910Y-111468636D01*
X135843907Y-111468640D01*
X135745909Y-111615303D01*
X135745902Y-111615316D01*
X135678403Y-111778275D01*
X135678400Y-111778285D01*
X135643988Y-111951286D01*
X135643988Y-111951289D01*
X135643988Y-112127687D01*
X135643988Y-112127689D01*
X135643987Y-112127689D01*
X131000500Y-112127689D01*
X131000500Y-110331637D01*
X137440038Y-110331637D01*
X137474451Y-110504638D01*
X137474454Y-110504648D01*
X137541953Y-110667607D01*
X137541960Y-110667620D01*
X137639958Y-110814283D01*
X137639961Y-110814287D01*
X137764687Y-110939013D01*
X137764691Y-110939016D01*
X137911354Y-111037014D01*
X137911367Y-111037021D01*
X138074326Y-111104520D01*
X138074331Y-111104522D01*
X138074335Y-111104522D01*
X138074336Y-111104523D01*
X138247337Y-111138936D01*
X138247340Y-111138936D01*
X138423740Y-111138936D01*
X138540132Y-111115783D01*
X138596747Y-111104522D01*
X138759717Y-111037018D01*
X138906387Y-110939016D01*
X139031119Y-110814284D01*
X139129121Y-110667614D01*
X139196625Y-110504644D01*
X139231039Y-110331637D01*
X173361063Y-110331637D01*
X173395476Y-110504638D01*
X173395479Y-110504648D01*
X173462978Y-110667607D01*
X173462985Y-110667620D01*
X173560983Y-110814283D01*
X173560986Y-110814287D01*
X173685712Y-110939013D01*
X173685716Y-110939016D01*
X173832379Y-111037014D01*
X173832392Y-111037021D01*
X173995351Y-111104520D01*
X173995356Y-111104522D01*
X173995360Y-111104522D01*
X173995361Y-111104523D01*
X174168362Y-111138936D01*
X174168365Y-111138936D01*
X174344765Y-111138936D01*
X174461157Y-111115783D01*
X174517772Y-111104522D01*
X174680742Y-111037018D01*
X174827412Y-110939016D01*
X174952144Y-110814284D01*
X175050146Y-110667614D01*
X175117650Y-110504644D01*
X175152064Y-110331635D01*
X175152064Y-110155237D01*
X175152064Y-110155234D01*
X175117651Y-109982233D01*
X175117650Y-109982232D01*
X175117650Y-109982228D01*
X175117648Y-109982223D01*
X175050149Y-109819264D01*
X175050142Y-109819251D01*
X174952144Y-109672588D01*
X174952141Y-109672584D01*
X174827415Y-109547858D01*
X174827411Y-109547855D01*
X174680748Y-109449857D01*
X174680735Y-109449850D01*
X174517776Y-109382351D01*
X174517766Y-109382348D01*
X174344765Y-109347936D01*
X174344763Y-109347936D01*
X174168365Y-109347936D01*
X174168363Y-109347936D01*
X173995361Y-109382348D01*
X173995351Y-109382351D01*
X173832392Y-109449850D01*
X173832379Y-109449857D01*
X173685716Y-109547855D01*
X173685712Y-109547858D01*
X173560986Y-109672584D01*
X173560983Y-109672588D01*
X173462985Y-109819251D01*
X173462978Y-109819264D01*
X173395479Y-109982223D01*
X173395476Y-109982233D01*
X173361064Y-110155234D01*
X173361064Y-110155237D01*
X173361064Y-110331635D01*
X173361064Y-110331637D01*
X173361063Y-110331637D01*
X139231039Y-110331637D01*
X139231039Y-110331635D01*
X139231039Y-110155237D01*
X139231039Y-110155234D01*
X139196626Y-109982233D01*
X139196625Y-109982232D01*
X139196625Y-109982228D01*
X139196623Y-109982223D01*
X139129124Y-109819264D01*
X139129117Y-109819251D01*
X139031119Y-109672588D01*
X139031116Y-109672584D01*
X138906390Y-109547858D01*
X138906386Y-109547855D01*
X138759723Y-109449857D01*
X138759710Y-109449850D01*
X138596751Y-109382351D01*
X138596741Y-109382348D01*
X138423740Y-109347936D01*
X138423738Y-109347936D01*
X138247340Y-109347936D01*
X138247338Y-109347936D01*
X138074336Y-109382348D01*
X138074326Y-109382351D01*
X137911367Y-109449850D01*
X137911354Y-109449857D01*
X137764691Y-109547855D01*
X137764687Y-109547858D01*
X137639961Y-109672584D01*
X137639958Y-109672588D01*
X137541960Y-109819251D01*
X137541953Y-109819264D01*
X137474454Y-109982223D01*
X137474451Y-109982233D01*
X137440039Y-110155234D01*
X137440039Y-110155237D01*
X137440039Y-110331635D01*
X137440039Y-110331637D01*
X137440038Y-110331637D01*
X131000500Y-110331637D01*
X131000500Y-108535586D01*
X139236090Y-108535586D01*
X139270503Y-108708587D01*
X139270506Y-108708597D01*
X139338005Y-108871556D01*
X139338012Y-108871569D01*
X139436010Y-109018232D01*
X139436013Y-109018236D01*
X139560739Y-109142962D01*
X139560743Y-109142965D01*
X139707406Y-109240963D01*
X139707419Y-109240970D01*
X139870378Y-109308469D01*
X139870383Y-109308471D01*
X139870387Y-109308471D01*
X139870388Y-109308472D01*
X140043389Y-109342885D01*
X140043392Y-109342885D01*
X140219792Y-109342885D01*
X140336184Y-109319732D01*
X140392799Y-109308471D01*
X140555769Y-109240967D01*
X140702439Y-109142965D01*
X140827171Y-109018233D01*
X140925173Y-108871563D01*
X140992677Y-108708593D01*
X141027091Y-108535584D01*
X141027091Y-108359186D01*
X141027091Y-108359183D01*
X141007091Y-108258640D01*
X141007091Y-108258639D01*
X140994906Y-108197385D01*
X174811442Y-108197385D01*
X175608055Y-108197385D01*
X175577370Y-108250532D01*
X175542615Y-108380242D01*
X175542615Y-108514528D01*
X175577370Y-108644238D01*
X175608055Y-108697385D01*
X174811442Y-108697385D01*
X174818762Y-108743607D01*
X174880294Y-108932981D01*
X174970690Y-109110390D01*
X175087729Y-109271478D01*
X175087729Y-109271479D01*
X175228520Y-109412270D01*
X175389609Y-109529309D01*
X175567020Y-109619705D01*
X175756392Y-109681237D01*
X175802614Y-109688556D01*
X175802615Y-109688556D01*
X175802615Y-108891945D01*
X175855762Y-108922630D01*
X175985472Y-108957385D01*
X176119758Y-108957385D01*
X176249468Y-108922630D01*
X176302615Y-108891945D01*
X176302615Y-109688556D01*
X176348837Y-109681237D01*
X176538209Y-109619705D01*
X176715620Y-109529309D01*
X176876708Y-109412270D01*
X176876709Y-109412270D01*
X177017500Y-109271479D01*
X177017500Y-109271478D01*
X177134539Y-109110390D01*
X177224935Y-108932981D01*
X177286467Y-108743607D01*
X177293788Y-108697385D01*
X176497175Y-108697385D01*
X176527860Y-108644238D01*
X176562615Y-108514528D01*
X176562615Y-108380242D01*
X176527860Y-108250532D01*
X176497175Y-108197385D01*
X177293788Y-108197385D01*
X177286467Y-108151162D01*
X177224935Y-107961788D01*
X177134539Y-107784379D01*
X177017500Y-107623291D01*
X177017500Y-107623290D01*
X176876709Y-107482499D01*
X176715620Y-107365460D01*
X176538211Y-107275064D01*
X176348837Y-107213532D01*
X176302615Y-107206211D01*
X176302615Y-108002824D01*
X176249468Y-107972140D01*
X176119758Y-107937385D01*
X175985472Y-107937385D01*
X175855762Y-107972140D01*
X175802615Y-108002824D01*
X175802615Y-107206211D01*
X175756392Y-107213532D01*
X175567018Y-107275064D01*
X175389609Y-107365460D01*
X175228521Y-107482499D01*
X175228520Y-107482499D01*
X175087729Y-107623290D01*
X175087729Y-107623291D01*
X174970690Y-107784379D01*
X174880294Y-107961788D01*
X174818762Y-108151162D01*
X174811442Y-108197385D01*
X140994906Y-108197385D01*
X140992678Y-108186184D01*
X140992678Y-108186182D01*
X140992677Y-108186177D01*
X140992675Y-108186172D01*
X140925176Y-108023213D01*
X140925169Y-108023200D01*
X140827171Y-107876537D01*
X140827168Y-107876533D01*
X140702442Y-107751807D01*
X140702438Y-107751804D01*
X140555775Y-107653806D01*
X140555762Y-107653799D01*
X140392803Y-107586300D01*
X140392793Y-107586297D01*
X140219792Y-107551885D01*
X140219790Y-107551885D01*
X140043392Y-107551885D01*
X140043390Y-107551885D01*
X139870388Y-107586297D01*
X139870378Y-107586300D01*
X139707419Y-107653799D01*
X139707406Y-107653806D01*
X139560743Y-107751804D01*
X139560739Y-107751807D01*
X139436013Y-107876533D01*
X139436010Y-107876537D01*
X139338012Y-108023200D01*
X139338005Y-108023213D01*
X139270506Y-108186172D01*
X139270503Y-108186182D01*
X139236091Y-108359183D01*
X139236091Y-108359186D01*
X139236091Y-108535584D01*
X139236091Y-108535586D01*
X139236090Y-108535586D01*
X131000500Y-108535586D01*
X131000500Y-106739535D01*
X141032141Y-106739535D01*
X141066554Y-106912536D01*
X141066557Y-106912546D01*
X141134056Y-107075505D01*
X141134063Y-107075518D01*
X141232061Y-107222181D01*
X141232064Y-107222185D01*
X141356790Y-107346911D01*
X141356794Y-107346914D01*
X141503457Y-107444912D01*
X141503470Y-107444919D01*
X141666429Y-107512418D01*
X141666434Y-107512420D01*
X141666438Y-107512420D01*
X141666439Y-107512421D01*
X141839440Y-107546834D01*
X141839443Y-107546834D01*
X142015843Y-107546834D01*
X142132235Y-107523681D01*
X142188850Y-107512420D01*
X142351820Y-107444916D01*
X142498490Y-107346914D01*
X142623222Y-107222182D01*
X142721224Y-107075512D01*
X142788728Y-106912542D01*
X142823142Y-106739535D01*
X176953165Y-106739535D01*
X176987578Y-106912536D01*
X176987581Y-106912546D01*
X177055080Y-107075505D01*
X177055087Y-107075518D01*
X177153085Y-107222181D01*
X177153088Y-107222185D01*
X177277814Y-107346911D01*
X177277818Y-107346914D01*
X177424481Y-107444912D01*
X177424494Y-107444919D01*
X177587453Y-107512418D01*
X177587458Y-107512420D01*
X177587462Y-107512420D01*
X177587463Y-107512421D01*
X177760464Y-107546834D01*
X177760467Y-107546834D01*
X177936867Y-107546834D01*
X178053259Y-107523681D01*
X178109874Y-107512420D01*
X178272844Y-107444916D01*
X178419514Y-107346914D01*
X178544246Y-107222182D01*
X178642248Y-107075512D01*
X178709752Y-106912542D01*
X178744166Y-106739533D01*
X178744166Y-106563135D01*
X178744165Y-106563132D01*
X178737624Y-106530247D01*
X178737624Y-106530245D01*
X178734023Y-106512141D01*
X193394500Y-106512141D01*
X193394500Y-108487850D01*
X193394501Y-108487858D01*
X193402070Y-108525916D01*
X193402071Y-108525919D01*
X193430914Y-108569086D01*
X193474081Y-108597929D01*
X193512145Y-108605500D01*
X195487854Y-108605499D01*
X195525919Y-108597929D01*
X195569086Y-108569086D01*
X195597929Y-108525919D01*
X195605500Y-108487855D01*
X195605499Y-106512146D01*
X195597929Y-106474081D01*
X195569086Y-106430914D01*
X195525919Y-106402071D01*
X195525918Y-106402070D01*
X195487857Y-106394500D01*
X193512149Y-106394500D01*
X193512141Y-106394501D01*
X193474083Y-106402070D01*
X193474080Y-106402071D01*
X193430914Y-106430914D01*
X193402070Y-106474081D01*
X193394500Y-106512141D01*
X178734023Y-106512141D01*
X178709753Y-106390133D01*
X178709753Y-106390131D01*
X178709752Y-106390126D01*
X178709750Y-106390121D01*
X178642251Y-106227162D01*
X178642244Y-106227149D01*
X178544246Y-106080486D01*
X178544243Y-106080482D01*
X178419517Y-105955756D01*
X178419513Y-105955753D01*
X178272850Y-105857755D01*
X178272837Y-105857748D01*
X178109878Y-105790249D01*
X178109868Y-105790246D01*
X177936867Y-105755834D01*
X177936865Y-105755834D01*
X177760467Y-105755834D01*
X177760465Y-105755834D01*
X177587463Y-105790246D01*
X177587453Y-105790249D01*
X177424494Y-105857748D01*
X177424481Y-105857755D01*
X177277818Y-105955753D01*
X177277814Y-105955756D01*
X177153088Y-106080482D01*
X177153085Y-106080486D01*
X177055087Y-106227149D01*
X177055080Y-106227162D01*
X176987581Y-106390121D01*
X176987578Y-106390131D01*
X176953166Y-106563132D01*
X176953166Y-106563133D01*
X176953166Y-106563135D01*
X176953166Y-106739533D01*
X176953166Y-106739535D01*
X176953165Y-106739535D01*
X142823142Y-106739535D01*
X142823142Y-106739533D01*
X142823142Y-106563135D01*
X142823142Y-106563133D01*
X142823142Y-106563132D01*
X142788729Y-106390131D01*
X142788728Y-106390130D01*
X142788728Y-106390126D01*
X142788726Y-106390121D01*
X142721227Y-106227162D01*
X142721220Y-106227149D01*
X142623222Y-106080486D01*
X142623219Y-106080482D01*
X142498493Y-105955756D01*
X142498489Y-105955753D01*
X142351826Y-105857755D01*
X142351813Y-105857748D01*
X142188854Y-105790249D01*
X142188844Y-105790246D01*
X142015843Y-105755834D01*
X142015841Y-105755834D01*
X141839443Y-105755834D01*
X141839441Y-105755834D01*
X141666439Y-105790246D01*
X141666429Y-105790249D01*
X141503470Y-105857748D01*
X141503457Y-105857755D01*
X141356794Y-105955753D01*
X141356790Y-105955756D01*
X141232064Y-106080482D01*
X141232061Y-106080486D01*
X141134063Y-106227149D01*
X141134056Y-106227162D01*
X141066557Y-106390121D01*
X141066554Y-106390131D01*
X141032142Y-106563132D01*
X141032142Y-106563133D01*
X141032142Y-106563135D01*
X141032142Y-106739533D01*
X141032142Y-106739535D01*
X141032141Y-106739535D01*
X131000500Y-106739535D01*
X131000500Y-104943484D01*
X142828192Y-104943484D01*
X142862605Y-105116485D01*
X142862608Y-105116495D01*
X142930107Y-105279454D01*
X142930114Y-105279467D01*
X143028112Y-105426130D01*
X143028115Y-105426134D01*
X143152841Y-105550860D01*
X143152845Y-105550863D01*
X143299508Y-105648861D01*
X143299521Y-105648868D01*
X143462480Y-105716367D01*
X143462485Y-105716369D01*
X143462489Y-105716369D01*
X143462490Y-105716370D01*
X143635491Y-105750783D01*
X143635494Y-105750783D01*
X143811894Y-105750783D01*
X143928286Y-105727630D01*
X143984901Y-105716369D01*
X144147871Y-105648865D01*
X144294541Y-105550863D01*
X144419273Y-105426131D01*
X144517275Y-105279461D01*
X144584779Y-105116491D01*
X144619193Y-104943484D01*
X178749217Y-104943484D01*
X178783630Y-105116485D01*
X178783633Y-105116495D01*
X178851132Y-105279454D01*
X178851139Y-105279467D01*
X178949137Y-105426130D01*
X178949140Y-105426134D01*
X179073866Y-105550860D01*
X179073870Y-105550863D01*
X179220533Y-105648861D01*
X179220546Y-105648868D01*
X179383505Y-105716367D01*
X179383510Y-105716369D01*
X179383514Y-105716369D01*
X179383515Y-105716370D01*
X179556516Y-105750783D01*
X179556519Y-105750783D01*
X179732919Y-105750783D01*
X179849311Y-105727630D01*
X179905926Y-105716369D01*
X180068896Y-105648865D01*
X180215566Y-105550863D01*
X180340298Y-105426131D01*
X180438300Y-105279461D01*
X180505804Y-105116491D01*
X180540218Y-104943482D01*
X180540218Y-104767084D01*
X180540218Y-104767081D01*
X180505805Y-104594080D01*
X180505804Y-104594079D01*
X180505804Y-104594075D01*
X180505802Y-104594070D01*
X180438303Y-104431111D01*
X180438296Y-104431098D01*
X180340298Y-104284435D01*
X180340295Y-104284431D01*
X180215569Y-104159705D01*
X180215565Y-104159702D01*
X180068902Y-104061704D01*
X180068889Y-104061697D01*
X179905930Y-103994198D01*
X179905920Y-103994195D01*
X179732919Y-103959783D01*
X179732917Y-103959783D01*
X179556519Y-103959783D01*
X179556517Y-103959783D01*
X179383515Y-103994195D01*
X179383505Y-103994198D01*
X179220546Y-104061697D01*
X179220533Y-104061704D01*
X179073870Y-104159702D01*
X179073866Y-104159705D01*
X178949140Y-104284431D01*
X178949137Y-104284435D01*
X178851139Y-104431098D01*
X178851132Y-104431111D01*
X178783633Y-104594070D01*
X178783630Y-104594080D01*
X178749218Y-104767081D01*
X178749218Y-104767084D01*
X178749218Y-104943482D01*
X178749218Y-104943484D01*
X178749217Y-104943484D01*
X144619193Y-104943484D01*
X144619193Y-104943482D01*
X144619193Y-104767084D01*
X144619193Y-104767081D01*
X144584780Y-104594080D01*
X144584779Y-104594079D01*
X144584779Y-104594075D01*
X144584777Y-104594070D01*
X144517278Y-104431111D01*
X144517271Y-104431098D01*
X144419273Y-104284435D01*
X144419270Y-104284431D01*
X144294544Y-104159705D01*
X144294540Y-104159702D01*
X144147877Y-104061704D01*
X144147864Y-104061697D01*
X143984905Y-103994198D01*
X143984895Y-103994195D01*
X143811894Y-103959783D01*
X143811892Y-103959783D01*
X143635494Y-103959783D01*
X143635492Y-103959783D01*
X143462490Y-103994195D01*
X143462480Y-103994198D01*
X143299521Y-104061697D01*
X143299508Y-104061704D01*
X143152845Y-104159702D01*
X143152841Y-104159705D01*
X143028115Y-104284431D01*
X143028112Y-104284435D01*
X142930114Y-104431098D01*
X142930107Y-104431111D01*
X142862608Y-104594070D01*
X142862605Y-104594080D01*
X142828193Y-104767081D01*
X142828193Y-104767084D01*
X142828193Y-104943482D01*
X142828193Y-104943484D01*
X142828192Y-104943484D01*
X131000500Y-104943484D01*
X131000500Y-102809231D01*
X144278571Y-102809231D01*
X145075184Y-102809231D01*
X145044499Y-102862378D01*
X145009744Y-102992088D01*
X145009744Y-103126374D01*
X145044499Y-103256084D01*
X145075184Y-103309231D01*
X144278571Y-103309231D01*
X144285891Y-103355453D01*
X144347423Y-103544827D01*
X144437819Y-103722236D01*
X144554858Y-103883324D01*
X144554858Y-103883325D01*
X144695649Y-104024116D01*
X144856738Y-104141155D01*
X145034149Y-104231551D01*
X145223521Y-104293083D01*
X145269743Y-104300402D01*
X145269744Y-104300402D01*
X145269744Y-103503791D01*
X145322891Y-103534476D01*
X145452601Y-103569231D01*
X145586887Y-103569231D01*
X145716597Y-103534476D01*
X145769744Y-103503791D01*
X145769744Y-104300402D01*
X145815966Y-104293083D01*
X146005338Y-104231551D01*
X146182749Y-104141155D01*
X146343837Y-104024116D01*
X146343838Y-104024116D01*
X146484629Y-103883325D01*
X146484629Y-103883324D01*
X146601668Y-103722236D01*
X146692064Y-103544827D01*
X146753596Y-103355453D01*
X146760917Y-103309231D01*
X145964304Y-103309231D01*
X145994989Y-103256084D01*
X146024102Y-103147432D01*
X180545268Y-103147432D01*
X180579681Y-103320433D01*
X180579684Y-103320443D01*
X180647183Y-103483402D01*
X180647190Y-103483415D01*
X180745188Y-103630078D01*
X180745191Y-103630082D01*
X180869917Y-103754808D01*
X180869921Y-103754811D01*
X181016584Y-103852809D01*
X181016597Y-103852816D01*
X181179556Y-103920315D01*
X181179561Y-103920317D01*
X181179565Y-103920317D01*
X181179566Y-103920318D01*
X181352567Y-103954731D01*
X181352570Y-103954731D01*
X181528970Y-103954731D01*
X181645362Y-103931578D01*
X181701977Y-103920317D01*
X181864947Y-103852813D01*
X182011617Y-103754811D01*
X182136349Y-103630079D01*
X182234351Y-103483409D01*
X182301855Y-103320439D01*
X182336269Y-103147430D01*
X182336269Y-102971032D01*
X182336269Y-102971029D01*
X182301856Y-102798028D01*
X182301855Y-102798027D01*
X182301855Y-102798023D01*
X182301853Y-102798018D01*
X182234354Y-102635059D01*
X182234347Y-102635046D01*
X182136349Y-102488383D01*
X182136346Y-102488379D01*
X182011620Y-102363653D01*
X182011616Y-102363650D01*
X181864953Y-102265652D01*
X181864940Y-102265645D01*
X181701981Y-102198146D01*
X181701971Y-102198143D01*
X181528970Y-102163731D01*
X181528968Y-102163731D01*
X181352570Y-102163731D01*
X181352568Y-102163731D01*
X181179566Y-102198143D01*
X181179556Y-102198146D01*
X181016597Y-102265645D01*
X181016584Y-102265652D01*
X180869921Y-102363650D01*
X180869917Y-102363653D01*
X180745191Y-102488379D01*
X180745188Y-102488383D01*
X180647190Y-102635046D01*
X180647183Y-102635059D01*
X180579684Y-102798018D01*
X180579681Y-102798028D01*
X180545269Y-102971029D01*
X180545269Y-102971032D01*
X180545269Y-103147430D01*
X180545269Y-103147432D01*
X180545268Y-103147432D01*
X146024102Y-103147432D01*
X146029744Y-103126374D01*
X146029744Y-102992088D01*
X145994989Y-102862378D01*
X145964304Y-102809231D01*
X146760917Y-102809231D01*
X146753596Y-102763008D01*
X146692064Y-102573634D01*
X146601668Y-102396225D01*
X146484629Y-102235137D01*
X146484629Y-102235136D01*
X146343838Y-102094345D01*
X146182749Y-101977306D01*
X146005340Y-101886910D01*
X145815966Y-101825378D01*
X145769744Y-101818057D01*
X145769744Y-102614670D01*
X145716597Y-102583986D01*
X145586887Y-102549231D01*
X145452601Y-102549231D01*
X145322891Y-102583986D01*
X145269744Y-102614670D01*
X145269744Y-101818057D01*
X145223521Y-101825378D01*
X145034147Y-101886910D01*
X144856738Y-101977306D01*
X144695650Y-102094345D01*
X144695649Y-102094345D01*
X144554858Y-102235136D01*
X144554858Y-102235137D01*
X144437819Y-102396225D01*
X144347423Y-102573634D01*
X144285891Y-102763008D01*
X144278571Y-102809231D01*
X131000500Y-102809231D01*
X131000500Y-100903424D01*
X133894500Y-100903424D01*
X133894500Y-101096575D01*
X133932178Y-101285993D01*
X133932181Y-101286005D01*
X134006088Y-101464434D01*
X134006095Y-101464447D01*
X134113395Y-101625031D01*
X134113398Y-101625035D01*
X134249964Y-101761601D01*
X134249968Y-101761604D01*
X134410552Y-101868904D01*
X134410565Y-101868911D01*
X134544454Y-101924369D01*
X134588999Y-101942820D01*
X134762372Y-101977306D01*
X134778424Y-101980499D01*
X134778427Y-101980500D01*
X134778429Y-101980500D01*
X135221573Y-101980500D01*
X135221574Y-101980499D01*
X135411001Y-101942820D01*
X135589441Y-101868908D01*
X135750032Y-101761604D01*
X135886604Y-101625032D01*
X135993908Y-101464441D01*
X136040739Y-101351381D01*
X146420294Y-101351381D01*
X146454707Y-101524382D01*
X146454710Y-101524392D01*
X146522209Y-101687351D01*
X146522216Y-101687364D01*
X146620214Y-101834027D01*
X146620217Y-101834031D01*
X146744943Y-101958757D01*
X146744947Y-101958760D01*
X146891610Y-102056758D01*
X146891623Y-102056765D01*
X147054582Y-102124264D01*
X147054587Y-102124266D01*
X147054591Y-102124266D01*
X147054592Y-102124267D01*
X147227593Y-102158680D01*
X147227596Y-102158680D01*
X147403996Y-102158680D01*
X147520388Y-102135527D01*
X147577003Y-102124266D01*
X147739973Y-102056762D01*
X147886643Y-101958760D01*
X148011375Y-101834028D01*
X148109377Y-101687358D01*
X148176881Y-101524388D01*
X148211295Y-101351381D01*
X182341319Y-101351381D01*
X182375732Y-101524382D01*
X182375735Y-101524392D01*
X182443234Y-101687351D01*
X182443241Y-101687364D01*
X182541239Y-101834027D01*
X182541242Y-101834031D01*
X182665968Y-101958757D01*
X182665972Y-101958760D01*
X182812635Y-102056758D01*
X182812648Y-102056765D01*
X182975607Y-102124264D01*
X182975612Y-102124266D01*
X182975616Y-102124266D01*
X182975617Y-102124267D01*
X183148618Y-102158680D01*
X183148621Y-102158680D01*
X183325021Y-102158680D01*
X183441413Y-102135527D01*
X183498028Y-102124266D01*
X183660998Y-102056762D01*
X183807668Y-101958760D01*
X183932400Y-101834028D01*
X184030402Y-101687358D01*
X184097906Y-101524388D01*
X184120065Y-101412989D01*
X193394500Y-101412989D01*
X193394500Y-101587010D01*
X193421720Y-101758872D01*
X193475494Y-101924369D01*
X193554494Y-102079411D01*
X193656766Y-102220178D01*
X193656770Y-102220183D01*
X193779816Y-102343229D01*
X193779821Y-102343233D01*
X193852759Y-102396225D01*
X193920592Y-102445508D01*
X194019381Y-102495844D01*
X194075630Y-102524505D01*
X194075632Y-102524505D01*
X194075635Y-102524507D01*
X194151728Y-102549231D01*
X194241127Y-102578279D01*
X194412990Y-102605500D01*
X194412995Y-102605500D01*
X194587010Y-102605500D01*
X194758872Y-102578279D01*
X194773168Y-102573634D01*
X194924365Y-102524507D01*
X195079408Y-102445508D01*
X195220185Y-102343228D01*
X195343228Y-102220185D01*
X195445508Y-102079408D01*
X195524507Y-101924365D01*
X195578279Y-101758872D01*
X195599477Y-101625035D01*
X195605500Y-101587010D01*
X195605500Y-101412989D01*
X195578279Y-101241127D01*
X195531311Y-101096575D01*
X195524507Y-101075635D01*
X195524505Y-101075632D01*
X195524505Y-101075630D01*
X195486976Y-101001977D01*
X195445508Y-100920592D01*
X195386225Y-100838995D01*
X195343233Y-100779821D01*
X195343229Y-100779816D01*
X195220183Y-100656770D01*
X195220178Y-100656766D01*
X195079411Y-100554494D01*
X195079410Y-100554493D01*
X195079408Y-100554492D01*
X195030992Y-100529823D01*
X194924369Y-100475494D01*
X194758872Y-100421720D01*
X194587010Y-100394500D01*
X194587005Y-100394500D01*
X194412995Y-100394500D01*
X194412990Y-100394500D01*
X194241127Y-100421720D01*
X194075630Y-100475494D01*
X193920588Y-100554494D01*
X193779821Y-100656766D01*
X193779816Y-100656770D01*
X193656770Y-100779816D01*
X193656766Y-100779821D01*
X193554494Y-100920588D01*
X193475494Y-101075630D01*
X193421720Y-101241127D01*
X193394500Y-101412989D01*
X184120065Y-101412989D01*
X184132320Y-101351379D01*
X184132320Y-101174981D01*
X184132320Y-101174978D01*
X184097907Y-101001977D01*
X184097906Y-101001976D01*
X184097906Y-101001972D01*
X184097904Y-101001967D01*
X184030405Y-100839008D01*
X184030398Y-100838995D01*
X183932400Y-100692332D01*
X183932397Y-100692328D01*
X183807671Y-100567602D01*
X183807667Y-100567599D01*
X183661004Y-100469601D01*
X183660991Y-100469594D01*
X183498032Y-100402095D01*
X183498022Y-100402092D01*
X183325021Y-100367680D01*
X183325019Y-100367680D01*
X183148621Y-100367680D01*
X183148619Y-100367680D01*
X182975617Y-100402092D01*
X182975607Y-100402095D01*
X182812648Y-100469594D01*
X182812635Y-100469601D01*
X182665972Y-100567599D01*
X182665968Y-100567602D01*
X182541242Y-100692328D01*
X182541239Y-100692332D01*
X182443241Y-100838995D01*
X182443234Y-100839008D01*
X182375735Y-101001967D01*
X182375732Y-101001977D01*
X182341320Y-101174978D01*
X182341320Y-101174981D01*
X182341320Y-101351379D01*
X182341320Y-101351381D01*
X182341319Y-101351381D01*
X148211295Y-101351381D01*
X148211295Y-101351379D01*
X148211295Y-101174981D01*
X148211295Y-101174978D01*
X148176882Y-101001977D01*
X148176881Y-101001976D01*
X148176881Y-101001972D01*
X148176879Y-101001967D01*
X148109380Y-100839008D01*
X148109373Y-100838995D01*
X148011375Y-100692332D01*
X148011372Y-100692328D01*
X147886646Y-100567602D01*
X147886642Y-100567599D01*
X147739979Y-100469601D01*
X147739966Y-100469594D01*
X147577007Y-100402095D01*
X147576997Y-100402092D01*
X147403996Y-100367680D01*
X147403994Y-100367680D01*
X147227596Y-100367680D01*
X147227594Y-100367680D01*
X147054592Y-100402092D01*
X147054582Y-100402095D01*
X146891623Y-100469594D01*
X146891610Y-100469601D01*
X146744947Y-100567599D01*
X146744943Y-100567602D01*
X146620217Y-100692328D01*
X146620214Y-100692332D01*
X146522216Y-100838995D01*
X146522209Y-100839008D01*
X146454710Y-101001967D01*
X146454707Y-101001977D01*
X146420295Y-101174978D01*
X146420295Y-101174981D01*
X146420295Y-101351379D01*
X146420295Y-101351381D01*
X146420294Y-101351381D01*
X136040739Y-101351381D01*
X136067820Y-101286001D01*
X136076746Y-101241127D01*
X136095923Y-101144720D01*
X136095927Y-101144699D01*
X136105500Y-101096570D01*
X136105500Y-100903426D01*
X136105499Y-100903424D01*
X136080912Y-100779816D01*
X136067820Y-100713999D01*
X136044115Y-100656770D01*
X135993911Y-100535565D01*
X135993904Y-100535552D01*
X135886604Y-100374968D01*
X135886601Y-100374964D01*
X135750035Y-100238398D01*
X135750031Y-100238395D01*
X135589447Y-100131095D01*
X135589434Y-100131088D01*
X135411005Y-100057181D01*
X135410993Y-100057178D01*
X135221574Y-100019500D01*
X135221571Y-100019500D01*
X134778429Y-100019500D01*
X134778426Y-100019500D01*
X134589006Y-100057178D01*
X134588994Y-100057181D01*
X134410565Y-100131088D01*
X134410552Y-100131095D01*
X134249968Y-100238395D01*
X134249964Y-100238398D01*
X134113398Y-100374964D01*
X134113395Y-100374968D01*
X134006095Y-100535552D01*
X134006088Y-100535565D01*
X133932181Y-100713994D01*
X133932178Y-100714006D01*
X133894500Y-100903424D01*
X131000500Y-100903424D01*
X131000500Y-98403423D01*
X133894499Y-98403423D01*
X133894499Y-98596574D01*
X133932177Y-98785992D01*
X133932180Y-98786004D01*
X134006087Y-98964433D01*
X134006094Y-98964446D01*
X134113394Y-99125030D01*
X134113397Y-99125034D01*
X134249963Y-99261600D01*
X134249967Y-99261603D01*
X134410551Y-99368903D01*
X134410564Y-99368910D01*
X134588993Y-99442817D01*
X134588998Y-99442819D01*
X134778423Y-99480498D01*
X134778426Y-99480499D01*
X134778428Y-99480499D01*
X135221572Y-99480499D01*
X135221573Y-99480498D01*
X135411000Y-99442819D01*
X135565242Y-99378930D01*
X135589433Y-99368910D01*
X135589433Y-99368909D01*
X135589440Y-99368907D01*
X135750031Y-99261603D01*
X135886603Y-99125031D01*
X135932905Y-99055735D01*
X141727059Y-99055735D01*
X141727059Y-99229050D01*
X141760867Y-99399013D01*
X141760870Y-99399025D01*
X141827187Y-99559130D01*
X141827188Y-99559132D01*
X141923473Y-99703232D01*
X141923476Y-99703236D01*
X142046015Y-99825775D01*
X142046019Y-99825778D01*
X142190117Y-99922062D01*
X142190118Y-99922062D01*
X142190119Y-99922063D01*
X142190121Y-99922064D01*
X142350226Y-99988381D01*
X142350231Y-99988383D01*
X142520201Y-100022192D01*
X142520205Y-100022193D01*
X142520206Y-100022193D01*
X142693513Y-100022193D01*
X142693514Y-100022192D01*
X142863487Y-99988383D01*
X143023601Y-99922062D01*
X143167699Y-99825778D01*
X143290244Y-99703233D01*
X143386528Y-99559135D01*
X143388104Y-99555330D01*
X148216346Y-99555330D01*
X148250759Y-99728331D01*
X148250762Y-99728341D01*
X148318261Y-99891300D01*
X148318268Y-99891313D01*
X148416266Y-100037976D01*
X148416269Y-100037980D01*
X148540995Y-100162706D01*
X148540999Y-100162709D01*
X148687662Y-100260707D01*
X148687675Y-100260714D01*
X148850634Y-100328213D01*
X148850639Y-100328215D01*
X148850643Y-100328215D01*
X148850644Y-100328216D01*
X149023645Y-100362629D01*
X149023648Y-100362629D01*
X149200048Y-100362629D01*
X149316440Y-100339476D01*
X149373055Y-100328215D01*
X149536025Y-100260711D01*
X149682695Y-100162709D01*
X149807427Y-100037977D01*
X149905429Y-99891307D01*
X149972933Y-99728337D01*
X150006590Y-99559135D01*
X150007347Y-99555330D01*
X184137370Y-99555330D01*
X184171783Y-99728331D01*
X184171786Y-99728341D01*
X184239285Y-99891300D01*
X184239292Y-99891313D01*
X184337290Y-100037976D01*
X184337293Y-100037980D01*
X184462019Y-100162706D01*
X184462023Y-100162709D01*
X184608686Y-100260707D01*
X184608699Y-100260714D01*
X184771658Y-100328213D01*
X184771663Y-100328215D01*
X184771667Y-100328215D01*
X184771668Y-100328216D01*
X184944669Y-100362629D01*
X184944672Y-100362629D01*
X185121072Y-100362629D01*
X185237464Y-100339476D01*
X185294079Y-100328215D01*
X185457049Y-100260711D01*
X185603719Y-100162709D01*
X185728451Y-100037977D01*
X185826453Y-99891307D01*
X185893957Y-99728337D01*
X185927614Y-99559135D01*
X185928371Y-99555330D01*
X185928371Y-99378927D01*
X185893958Y-99205926D01*
X185893957Y-99205925D01*
X185893957Y-99205921D01*
X185860453Y-99125034D01*
X185826456Y-99042957D01*
X185826449Y-99042944D01*
X185728451Y-98896281D01*
X185728448Y-98896277D01*
X185603722Y-98771551D01*
X185603718Y-98771548D01*
X185457055Y-98673550D01*
X185457042Y-98673543D01*
X185294083Y-98606044D01*
X185294073Y-98606041D01*
X185121072Y-98571629D01*
X185121070Y-98571629D01*
X184944672Y-98571629D01*
X184944670Y-98571629D01*
X184771668Y-98606041D01*
X184771658Y-98606044D01*
X184608699Y-98673543D01*
X184608686Y-98673550D01*
X184462023Y-98771548D01*
X184462019Y-98771551D01*
X184337293Y-98896277D01*
X184337290Y-98896281D01*
X184239292Y-99042944D01*
X184239285Y-99042957D01*
X184171786Y-99205916D01*
X184171783Y-99205926D01*
X184137371Y-99378927D01*
X184137371Y-99378930D01*
X184137371Y-99555328D01*
X184137371Y-99555330D01*
X184137370Y-99555330D01*
X150007347Y-99555330D01*
X150007347Y-99378927D01*
X149972934Y-99205926D01*
X149972933Y-99205925D01*
X149972933Y-99205921D01*
X149939429Y-99125034D01*
X149905432Y-99042957D01*
X149905425Y-99042944D01*
X149807427Y-98896281D01*
X149807424Y-98896277D01*
X149682698Y-98771551D01*
X149682694Y-98771548D01*
X149536031Y-98673550D01*
X149536018Y-98673543D01*
X149373059Y-98606044D01*
X149373049Y-98606041D01*
X149200048Y-98571629D01*
X149200046Y-98571629D01*
X149023648Y-98571629D01*
X149023646Y-98571629D01*
X148850644Y-98606041D01*
X148850634Y-98606044D01*
X148687675Y-98673543D01*
X148687662Y-98673550D01*
X148540999Y-98771548D01*
X148540995Y-98771551D01*
X148416269Y-98896277D01*
X148416266Y-98896281D01*
X148318268Y-99042944D01*
X148318261Y-99042957D01*
X148250762Y-99205916D01*
X148250759Y-99205926D01*
X148216347Y-99378927D01*
X148216347Y-99378930D01*
X148216347Y-99555328D01*
X148216347Y-99555330D01*
X148216346Y-99555330D01*
X143388104Y-99555330D01*
X143452849Y-99399021D01*
X143486659Y-99229046D01*
X143486659Y-99055740D01*
X143452849Y-98885765D01*
X143411522Y-98785992D01*
X143386530Y-98725655D01*
X143386529Y-98725653D01*
X143290244Y-98581553D01*
X143290241Y-98581549D01*
X143167702Y-98459010D01*
X143167698Y-98459007D01*
X143023598Y-98362722D01*
X143023596Y-98362721D01*
X142863491Y-98296404D01*
X142863479Y-98296401D01*
X142693516Y-98262593D01*
X142693512Y-98262593D01*
X142520206Y-98262593D01*
X142520201Y-98262593D01*
X142350238Y-98296401D01*
X142350226Y-98296404D01*
X142190121Y-98362721D01*
X142190119Y-98362722D01*
X142046019Y-98459007D01*
X142046015Y-98459010D01*
X141923476Y-98581549D01*
X141923473Y-98581553D01*
X141827188Y-98725653D01*
X141827187Y-98725655D01*
X141760870Y-98885760D01*
X141760867Y-98885772D01*
X141727059Y-99055735D01*
X135932905Y-99055735D01*
X135941452Y-99042944D01*
X135983005Y-98980757D01*
X135993903Y-98964446D01*
X135993903Y-98964445D01*
X135993907Y-98964440D01*
X136067819Y-98786000D01*
X136105499Y-98596570D01*
X136105499Y-98403428D01*
X136105499Y-98403425D01*
X136105498Y-98403423D01*
X136097402Y-98362721D01*
X136067819Y-98213998D01*
X136043090Y-98154296D01*
X135993910Y-98035564D01*
X135993903Y-98035551D01*
X135886603Y-97874967D01*
X135886600Y-97874963D01*
X135750034Y-97738397D01*
X135750030Y-97738394D01*
X135589446Y-97631094D01*
X135589433Y-97631087D01*
X135411004Y-97557180D01*
X135410992Y-97557177D01*
X135221573Y-97519499D01*
X135221570Y-97519499D01*
X134778428Y-97519499D01*
X134778425Y-97519499D01*
X134589005Y-97557177D01*
X134588993Y-97557180D01*
X134410564Y-97631087D01*
X134410551Y-97631094D01*
X134249967Y-97738394D01*
X134249963Y-97738397D01*
X134113397Y-97874963D01*
X134113394Y-97874967D01*
X134006094Y-98035551D01*
X134006087Y-98035564D01*
X133932180Y-98213993D01*
X133932177Y-98214005D01*
X133894499Y-98403423D01*
X131000500Y-98403423D01*
X131000500Y-97287968D01*
X143494826Y-97287968D01*
X143494826Y-97461283D01*
X143528634Y-97631246D01*
X143528637Y-97631258D01*
X143594954Y-97791363D01*
X143594955Y-97791365D01*
X143691240Y-97935465D01*
X143691243Y-97935469D01*
X143813782Y-98058008D01*
X143813786Y-98058011D01*
X143957884Y-98154295D01*
X143957885Y-98154295D01*
X143957886Y-98154296D01*
X143957888Y-98154297D01*
X144117993Y-98220614D01*
X144117998Y-98220616D01*
X144287968Y-98254425D01*
X144287972Y-98254426D01*
X144287973Y-98254426D01*
X144461280Y-98254426D01*
X144461281Y-98254425D01*
X144631254Y-98220616D01*
X144791368Y-98154295D01*
X144935466Y-98058011D01*
X145058011Y-97935466D01*
X145154295Y-97791368D01*
X145167587Y-97759279D01*
X150012397Y-97759279D01*
X150046810Y-97932280D01*
X150046813Y-97932290D01*
X150114312Y-98095249D01*
X150114319Y-98095262D01*
X150212317Y-98241925D01*
X150212320Y-98241929D01*
X150337046Y-98366655D01*
X150337050Y-98366658D01*
X150483713Y-98464656D01*
X150483726Y-98464663D01*
X150646685Y-98532162D01*
X150646690Y-98532164D01*
X150646694Y-98532164D01*
X150646695Y-98532165D01*
X150819696Y-98566578D01*
X150819699Y-98566578D01*
X150996099Y-98566578D01*
X151112491Y-98543425D01*
X151169106Y-98532164D01*
X151332076Y-98464660D01*
X151478746Y-98366658D01*
X151603478Y-98241926D01*
X151701480Y-98095256D01*
X151768984Y-97932286D01*
X151797015Y-97791368D01*
X151803398Y-97759279D01*
X151803398Y-97582876D01*
X151768985Y-97409875D01*
X151768984Y-97409874D01*
X151768984Y-97409870D01*
X151718493Y-97287973D01*
X151701483Y-97246906D01*
X151701476Y-97246893D01*
X151603478Y-97100230D01*
X151603475Y-97100226D01*
X151478749Y-96975500D01*
X151478745Y-96975497D01*
X151332082Y-96877499D01*
X151332069Y-96877492D01*
X151169110Y-96809993D01*
X151169100Y-96809990D01*
X150996099Y-96775578D01*
X150996097Y-96775578D01*
X150819699Y-96775578D01*
X150819697Y-96775578D01*
X150646695Y-96809990D01*
X150646685Y-96809993D01*
X150483726Y-96877492D01*
X150483713Y-96877499D01*
X150337050Y-96975497D01*
X150337046Y-96975500D01*
X150212320Y-97100226D01*
X150212317Y-97100230D01*
X150114319Y-97246893D01*
X150114312Y-97246906D01*
X150046813Y-97409865D01*
X150046810Y-97409875D01*
X150012398Y-97582876D01*
X150012398Y-97582879D01*
X150012398Y-97759277D01*
X150012398Y-97759279D01*
X150012397Y-97759279D01*
X145167587Y-97759279D01*
X145220616Y-97631254D01*
X145254426Y-97461279D01*
X145254426Y-97287973D01*
X145220616Y-97117998D01*
X145213255Y-97100226D01*
X145154297Y-96957888D01*
X145154296Y-96957886D01*
X145058011Y-96813786D01*
X145058008Y-96813782D01*
X144935469Y-96691243D01*
X144935465Y-96691240D01*
X144791365Y-96594955D01*
X144791363Y-96594954D01*
X144631258Y-96528637D01*
X144631246Y-96528634D01*
X144461283Y-96494826D01*
X144461279Y-96494826D01*
X144287973Y-96494826D01*
X144287968Y-96494826D01*
X144118005Y-96528634D01*
X144117993Y-96528637D01*
X143957888Y-96594954D01*
X143957886Y-96594955D01*
X143813786Y-96691240D01*
X143813782Y-96691243D01*
X143691243Y-96813782D01*
X143691240Y-96813786D01*
X143594955Y-96957886D01*
X143594954Y-96957888D01*
X143528637Y-97117993D01*
X143528634Y-97118005D01*
X143494826Y-97287968D01*
X131000500Y-97287968D01*
X131000500Y-95903423D01*
X133894500Y-95903423D01*
X133894500Y-96096574D01*
X133932178Y-96285992D01*
X133932181Y-96286004D01*
X134006088Y-96464433D01*
X134006095Y-96464446D01*
X134113395Y-96625030D01*
X134113398Y-96625034D01*
X134249964Y-96761600D01*
X134249968Y-96761603D01*
X134410552Y-96868903D01*
X134410565Y-96868910D01*
X134588994Y-96942817D01*
X134588999Y-96942819D01*
X134778424Y-96980498D01*
X134778427Y-96980499D01*
X134778429Y-96980499D01*
X135221573Y-96980499D01*
X135221574Y-96980498D01*
X135411001Y-96942819D01*
X135589441Y-96868907D01*
X135750032Y-96761603D01*
X135886604Y-96625031D01*
X135993908Y-96464440D01*
X136067820Y-96286000D01*
X136105500Y-96096570D01*
X136105500Y-95903428D01*
X136105500Y-95903425D01*
X136105499Y-95903423D01*
X136082306Y-95786825D01*
X136067820Y-95713998D01*
X135993908Y-95535558D01*
X135993904Y-95535551D01*
X135983647Y-95520201D01*
X145262593Y-95520201D01*
X145262593Y-95693516D01*
X145296401Y-95863479D01*
X145296404Y-95863491D01*
X145362721Y-96023596D01*
X145362722Y-96023598D01*
X145459007Y-96167698D01*
X145459010Y-96167702D01*
X145581549Y-96290241D01*
X145581553Y-96290244D01*
X145725651Y-96386528D01*
X145725652Y-96386528D01*
X145725653Y-96386529D01*
X145725655Y-96386530D01*
X145868926Y-96445874D01*
X145885765Y-96452849D01*
X146055735Y-96486658D01*
X146055739Y-96486659D01*
X146055740Y-96486659D01*
X146229047Y-96486659D01*
X146229048Y-96486658D01*
X146399021Y-96452849D01*
X146559135Y-96386528D01*
X146703233Y-96290244D01*
X146825778Y-96167699D01*
X146922062Y-96023601D01*
X146947069Y-95963228D01*
X151808448Y-95963228D01*
X151842861Y-96136229D01*
X151842864Y-96136239D01*
X151910363Y-96299198D01*
X151910370Y-96299211D01*
X152008368Y-96445874D01*
X152008371Y-96445878D01*
X152133097Y-96570604D01*
X152133101Y-96570607D01*
X152279764Y-96668605D01*
X152279777Y-96668612D01*
X152442736Y-96736111D01*
X152442741Y-96736113D01*
X152442745Y-96736113D01*
X152442746Y-96736114D01*
X152615747Y-96770527D01*
X152615750Y-96770527D01*
X152792150Y-96770527D01*
X152908542Y-96747374D01*
X152965157Y-96736113D01*
X153128127Y-96668609D01*
X153274797Y-96570607D01*
X153399529Y-96445875D01*
X153497531Y-96299205D01*
X153565035Y-96136235D01*
X153599449Y-95963226D01*
X153599449Y-95786828D01*
X153599449Y-95786825D01*
X153565036Y-95613824D01*
X153565035Y-95613823D01*
X153565035Y-95613819D01*
X153551234Y-95580500D01*
X153540053Y-95553506D01*
X153522919Y-95512141D01*
X193394500Y-95512141D01*
X193394500Y-97487850D01*
X193394501Y-97487858D01*
X193400794Y-97519499D01*
X193402071Y-97525919D01*
X193430914Y-97569086D01*
X193474081Y-97597929D01*
X193512145Y-97605500D01*
X195487854Y-97605499D01*
X195525919Y-97597929D01*
X195569086Y-97569086D01*
X195597929Y-97525919D01*
X195605500Y-97487855D01*
X195605499Y-95512146D01*
X195597929Y-95474081D01*
X195569086Y-95430914D01*
X195525919Y-95402071D01*
X195525918Y-95402070D01*
X195487857Y-95394500D01*
X193512149Y-95394500D01*
X193512141Y-95394501D01*
X193474083Y-95402070D01*
X193474080Y-95402071D01*
X193430914Y-95430914D01*
X193402070Y-95474081D01*
X193394500Y-95512141D01*
X153522919Y-95512141D01*
X153497534Y-95450855D01*
X153497527Y-95450842D01*
X153399529Y-95304179D01*
X153399526Y-95304175D01*
X153274800Y-95179449D01*
X153274796Y-95179446D01*
X153128133Y-95081448D01*
X153128120Y-95081441D01*
X152965161Y-95013942D01*
X152965151Y-95013939D01*
X152792150Y-94979527D01*
X152792148Y-94979527D01*
X152615750Y-94979527D01*
X152615748Y-94979527D01*
X152442746Y-95013939D01*
X152442736Y-95013942D01*
X152279777Y-95081441D01*
X152279764Y-95081448D01*
X152133101Y-95179446D01*
X152133097Y-95179449D01*
X152008371Y-95304175D01*
X152008368Y-95304179D01*
X151910370Y-95450842D01*
X151910363Y-95450855D01*
X151842864Y-95613814D01*
X151842861Y-95613824D01*
X151808449Y-95786825D01*
X151808449Y-95786828D01*
X151808449Y-95963226D01*
X151808449Y-95963228D01*
X151808448Y-95963228D01*
X146947069Y-95963228D01*
X146988383Y-95863487D01*
X146995670Y-95826851D01*
X147009651Y-95756567D01*
X147009655Y-95756546D01*
X147013766Y-95735876D01*
X147022193Y-95693512D01*
X147022193Y-95520206D01*
X146988383Y-95350231D01*
X146942060Y-95238397D01*
X146922064Y-95190121D01*
X146922060Y-95190114D01*
X146897989Y-95154089D01*
X146897988Y-95154088D01*
X146857386Y-95093324D01*
X149419500Y-95093324D01*
X149419500Y-95206675D01*
X149448838Y-95316166D01*
X149448839Y-95316169D01*
X149505511Y-95414329D01*
X149505513Y-95414332D01*
X149505514Y-95414333D01*
X149585667Y-95494486D01*
X149683833Y-95551162D01*
X149793324Y-95580500D01*
X149793326Y-95580500D01*
X149906674Y-95580500D01*
X149906676Y-95580500D01*
X150016167Y-95551162D01*
X150114333Y-95494486D01*
X150194486Y-95414333D01*
X150251162Y-95316167D01*
X150280500Y-95206676D01*
X150280500Y-95093324D01*
X150251162Y-94983833D01*
X150194486Y-94885667D01*
X150114333Y-94805514D01*
X150114332Y-94805513D01*
X150114329Y-94805511D01*
X150016169Y-94748839D01*
X150016168Y-94748838D01*
X150016167Y-94748838D01*
X149906676Y-94719500D01*
X149793324Y-94719500D01*
X149683833Y-94748838D01*
X149683830Y-94748839D01*
X149585670Y-94805511D01*
X149585665Y-94805515D01*
X149505515Y-94885665D01*
X149505511Y-94885670D01*
X149448839Y-94983830D01*
X149448838Y-94983833D01*
X149419500Y-95093324D01*
X146857386Y-95093324D01*
X146825778Y-95046019D01*
X146825775Y-95046015D01*
X146703236Y-94923476D01*
X146703232Y-94923473D01*
X146559132Y-94827188D01*
X146559130Y-94827187D01*
X146399025Y-94760870D01*
X146399013Y-94760867D01*
X146229050Y-94727059D01*
X146229046Y-94727059D01*
X146055740Y-94727059D01*
X146055735Y-94727059D01*
X145885772Y-94760867D01*
X145885760Y-94760870D01*
X145725655Y-94827187D01*
X145725653Y-94827188D01*
X145581553Y-94923473D01*
X145581549Y-94923476D01*
X145459010Y-95046015D01*
X145459007Y-95046019D01*
X145362722Y-95190119D01*
X145362721Y-95190121D01*
X145296404Y-95350226D01*
X145296401Y-95350238D01*
X145262593Y-95520201D01*
X135983647Y-95520201D01*
X135886604Y-95374967D01*
X135886601Y-95374963D01*
X135750035Y-95238397D01*
X135750031Y-95238394D01*
X135589447Y-95131094D01*
X135589434Y-95131087D01*
X135411005Y-95057180D01*
X135410993Y-95057177D01*
X135221574Y-95019499D01*
X135221571Y-95019499D01*
X134778429Y-95019499D01*
X134778426Y-95019499D01*
X134589006Y-95057177D01*
X134588994Y-95057180D01*
X134410565Y-95131087D01*
X134410552Y-95131094D01*
X134249968Y-95238394D01*
X134249964Y-95238397D01*
X134113398Y-95374963D01*
X134113395Y-95374967D01*
X134006095Y-95535551D01*
X134006088Y-95535564D01*
X133932181Y-95713993D01*
X133932178Y-95714005D01*
X133894500Y-95903423D01*
X131000500Y-95903423D01*
X131000500Y-93403424D01*
X133894500Y-93403424D01*
X133894500Y-93596575D01*
X133932178Y-93785993D01*
X133932181Y-93786005D01*
X134006088Y-93964434D01*
X134006095Y-93964447D01*
X134113395Y-94125031D01*
X134113398Y-94125035D01*
X134249964Y-94261601D01*
X134249968Y-94261604D01*
X134410552Y-94368904D01*
X134410565Y-94368911D01*
X134588994Y-94442818D01*
X134588999Y-94442820D01*
X134778424Y-94480499D01*
X134778427Y-94480500D01*
X134778429Y-94480500D01*
X135221573Y-94480500D01*
X135221574Y-94480499D01*
X135411001Y-94442820D01*
X135589441Y-94368908D01*
X135750032Y-94261604D01*
X135844460Y-94167176D01*
X153604499Y-94167176D01*
X153638912Y-94340177D01*
X153638915Y-94340187D01*
X153706414Y-94503146D01*
X153706421Y-94503159D01*
X153804419Y-94649822D01*
X153804422Y-94649826D01*
X153929148Y-94774552D01*
X153929152Y-94774555D01*
X154075815Y-94872553D01*
X154075828Y-94872560D01*
X154198747Y-94923474D01*
X154238792Y-94940061D01*
X154238796Y-94940061D01*
X154238797Y-94940062D01*
X154411798Y-94974475D01*
X154411801Y-94974475D01*
X154588201Y-94974475D01*
X154704593Y-94951322D01*
X154761208Y-94940061D01*
X154892520Y-94885670D01*
X154924171Y-94872560D01*
X154924171Y-94872559D01*
X154924178Y-94872557D01*
X155070848Y-94774555D01*
X155195580Y-94649823D01*
X155293582Y-94503153D01*
X155361086Y-94340183D01*
X155395500Y-94167174D01*
X155395500Y-93990776D01*
X155395500Y-93990773D01*
X155361087Y-93817772D01*
X155361086Y-93817771D01*
X155361086Y-93817767D01*
X155347925Y-93785993D01*
X155293585Y-93654803D01*
X155293578Y-93654790D01*
X155195580Y-93508127D01*
X155195577Y-93508123D01*
X155070851Y-93383397D01*
X155070847Y-93383394D01*
X154924184Y-93285396D01*
X154924171Y-93285389D01*
X154761212Y-93217890D01*
X154761202Y-93217887D01*
X154588201Y-93183475D01*
X154588199Y-93183475D01*
X154411801Y-93183475D01*
X154411799Y-93183475D01*
X154238797Y-93217887D01*
X154238787Y-93217890D01*
X154075828Y-93285389D01*
X154075815Y-93285396D01*
X153929152Y-93383394D01*
X153929148Y-93383397D01*
X153804422Y-93508123D01*
X153804419Y-93508127D01*
X153706421Y-93654790D01*
X153706414Y-93654803D01*
X153638915Y-93817762D01*
X153638912Y-93817772D01*
X153604500Y-93990773D01*
X153604500Y-93990776D01*
X153604500Y-94167174D01*
X153604500Y-94167176D01*
X153604499Y-94167176D01*
X135844460Y-94167176D01*
X135886604Y-94125032D01*
X135993908Y-93964441D01*
X136067820Y-93786001D01*
X136096200Y-93643324D01*
X149869500Y-93643324D01*
X149869500Y-93756676D01*
X149885870Y-93817767D01*
X149898838Y-93866166D01*
X149898839Y-93866169D01*
X149955511Y-93964329D01*
X149955513Y-93964331D01*
X149955514Y-93964333D01*
X150035667Y-94044486D01*
X150133833Y-94101162D01*
X150243324Y-94130500D01*
X150243326Y-94130500D01*
X150356674Y-94130500D01*
X150356676Y-94130500D01*
X150466167Y-94101162D01*
X150564333Y-94044486D01*
X150644486Y-93964333D01*
X150701162Y-93866167D01*
X150730500Y-93756676D01*
X150730500Y-93643324D01*
X150701162Y-93533833D01*
X150644486Y-93435667D01*
X150564333Y-93355514D01*
X150564332Y-93355513D01*
X150564329Y-93355511D01*
X150466169Y-93298839D01*
X150466168Y-93298838D01*
X150466167Y-93298838D01*
X150356676Y-93269500D01*
X150243324Y-93269500D01*
X150133833Y-93298838D01*
X150133830Y-93298839D01*
X150035670Y-93355511D01*
X150035665Y-93355515D01*
X149955515Y-93435665D01*
X149955511Y-93435670D01*
X149898839Y-93533830D01*
X149898838Y-93533833D01*
X149869500Y-93643324D01*
X136096200Y-93643324D01*
X136105500Y-93596571D01*
X136105500Y-93403429D01*
X136105500Y-93403426D01*
X136105499Y-93403424D01*
X136095969Y-93355514D01*
X136067820Y-93213999D01*
X136055177Y-93183475D01*
X135993911Y-93035565D01*
X135993904Y-93035552D01*
X135886604Y-92874968D01*
X135886601Y-92874964D01*
X135750035Y-92738398D01*
X135750031Y-92738395D01*
X135589447Y-92631095D01*
X135589434Y-92631088D01*
X135411005Y-92557181D01*
X135410993Y-92557178D01*
X135221574Y-92519500D01*
X135221571Y-92519500D01*
X134778429Y-92519500D01*
X134778426Y-92519500D01*
X134589006Y-92557178D01*
X134588994Y-92557181D01*
X134410565Y-92631088D01*
X134410552Y-92631095D01*
X134249968Y-92738395D01*
X134249964Y-92738398D01*
X134113398Y-92874964D01*
X134113395Y-92874968D01*
X134006095Y-93035552D01*
X134006088Y-93035565D01*
X133932181Y-93213994D01*
X133932178Y-93214006D01*
X133894500Y-93403424D01*
X131000500Y-93403424D01*
X131000500Y-92371125D01*
X155400551Y-92371125D01*
X155434964Y-92544126D01*
X155434967Y-92544136D01*
X155502466Y-92707095D01*
X155502473Y-92707108D01*
X155600471Y-92853771D01*
X155600474Y-92853775D01*
X155725200Y-92978501D01*
X155725204Y-92978504D01*
X155871867Y-93076502D01*
X155871880Y-93076509D01*
X156034839Y-93144008D01*
X156034844Y-93144010D01*
X156034848Y-93144010D01*
X156034849Y-93144011D01*
X156207850Y-93178424D01*
X156207853Y-93178424D01*
X156384253Y-93178424D01*
X156500645Y-93155271D01*
X156557260Y-93144010D01*
X156720230Y-93076506D01*
X156866900Y-92978504D01*
X156991632Y-92853772D01*
X157089634Y-92707102D01*
X157157138Y-92544132D01*
X157191552Y-92371123D01*
X157191552Y-92194725D01*
X157191552Y-92194722D01*
X157157139Y-92021721D01*
X157157138Y-92021720D01*
X157157138Y-92021716D01*
X157140066Y-91980500D01*
X157089637Y-91858752D01*
X157089630Y-91858739D01*
X156991632Y-91712076D01*
X156991629Y-91712072D01*
X156866903Y-91587346D01*
X156866899Y-91587343D01*
X156720236Y-91489345D01*
X156720223Y-91489338D01*
X156557264Y-91421839D01*
X156557254Y-91421836D01*
X156384253Y-91387424D01*
X156384251Y-91387424D01*
X156207853Y-91387424D01*
X156207851Y-91387424D01*
X156034849Y-91421836D01*
X156034839Y-91421839D01*
X155871880Y-91489338D01*
X155871867Y-91489345D01*
X155725204Y-91587343D01*
X155725200Y-91587346D01*
X155600474Y-91712072D01*
X155600471Y-91712076D01*
X155502473Y-91858739D01*
X155502466Y-91858752D01*
X155434967Y-92021711D01*
X155434964Y-92021721D01*
X155400552Y-92194722D01*
X155400552Y-92194725D01*
X155400552Y-92371123D01*
X155400552Y-92371125D01*
X155400551Y-92371125D01*
X131000500Y-92371125D01*
X131000500Y-90903424D01*
X133894500Y-90903424D01*
X133894500Y-91096575D01*
X133932178Y-91285993D01*
X133932181Y-91286005D01*
X134006088Y-91464434D01*
X134006095Y-91464447D01*
X134113395Y-91625031D01*
X134113398Y-91625035D01*
X134249964Y-91761601D01*
X134249968Y-91761604D01*
X134410552Y-91868904D01*
X134410565Y-91868911D01*
X134588994Y-91942818D01*
X134588999Y-91942820D01*
X134778424Y-91980499D01*
X134778427Y-91980500D01*
X134778429Y-91980500D01*
X135221573Y-91980500D01*
X135221574Y-91980499D01*
X135411001Y-91942820D01*
X135589441Y-91868908D01*
X135750032Y-91761604D01*
X135886604Y-91625032D01*
X135993908Y-91464441D01*
X136067820Y-91286001D01*
X136105500Y-91096571D01*
X136105500Y-90903429D01*
X136105500Y-90903426D01*
X136105499Y-90903424D01*
X136067821Y-90714006D01*
X136067820Y-90713999D01*
X136010276Y-90575074D01*
X157196602Y-90575074D01*
X157231015Y-90748075D01*
X157231018Y-90748085D01*
X157298517Y-90911044D01*
X157298524Y-90911057D01*
X157396522Y-91057720D01*
X157396525Y-91057724D01*
X157521251Y-91182450D01*
X157521255Y-91182453D01*
X157667918Y-91280451D01*
X157667931Y-91280458D01*
X157830890Y-91347957D01*
X157830895Y-91347959D01*
X157830899Y-91347959D01*
X157830900Y-91347960D01*
X158003901Y-91382373D01*
X158003904Y-91382373D01*
X158180304Y-91382373D01*
X158296696Y-91359220D01*
X158353311Y-91347959D01*
X158516281Y-91280455D01*
X158662951Y-91182453D01*
X158787683Y-91057721D01*
X158885685Y-90911051D01*
X158953189Y-90748081D01*
X158987603Y-90575072D01*
X158987603Y-90398674D01*
X158987603Y-90398671D01*
X158953190Y-90225670D01*
X158953189Y-90225669D01*
X158953189Y-90225665D01*
X158914014Y-90131088D01*
X158885688Y-90062701D01*
X158885681Y-90062688D01*
X158787683Y-89916025D01*
X158787680Y-89916021D01*
X158662954Y-89791295D01*
X158662950Y-89791292D01*
X158516287Y-89693294D01*
X158516274Y-89693287D01*
X158353315Y-89625788D01*
X158353305Y-89625785D01*
X158180304Y-89591373D01*
X158180302Y-89591373D01*
X158003904Y-89591373D01*
X158003902Y-89591373D01*
X157830900Y-89625785D01*
X157830890Y-89625788D01*
X157667931Y-89693287D01*
X157667918Y-89693294D01*
X157521255Y-89791292D01*
X157521251Y-89791295D01*
X157396525Y-89916021D01*
X157396522Y-89916025D01*
X157298524Y-90062688D01*
X157298517Y-90062701D01*
X157231018Y-90225660D01*
X157231015Y-90225670D01*
X157196603Y-90398671D01*
X157196603Y-90398674D01*
X157196603Y-90575072D01*
X157196603Y-90575074D01*
X157196602Y-90575074D01*
X136010276Y-90575074D01*
X136010275Y-90575072D01*
X135993911Y-90535565D01*
X135993904Y-90535552D01*
X135944406Y-90461473D01*
X135886604Y-90374968D01*
X135886601Y-90374964D01*
X135750035Y-90238398D01*
X135750031Y-90238395D01*
X135589447Y-90131095D01*
X135589434Y-90131088D01*
X135411005Y-90057181D01*
X135410993Y-90057178D01*
X135221574Y-90019500D01*
X135221571Y-90019500D01*
X134778429Y-90019500D01*
X134778426Y-90019500D01*
X134589006Y-90057178D01*
X134588994Y-90057181D01*
X134410565Y-90131088D01*
X134410552Y-90131095D01*
X134249968Y-90238395D01*
X134249964Y-90238398D01*
X134113398Y-90374964D01*
X134113395Y-90374968D01*
X134006095Y-90535552D01*
X134006088Y-90535565D01*
X133932181Y-90713994D01*
X133932178Y-90714006D01*
X133894500Y-90903424D01*
X131000500Y-90903424D01*
X131000500Y-87863890D01*
X133894500Y-87863890D01*
X133894500Y-89136110D01*
X133902582Y-89191581D01*
X133905276Y-89210074D01*
X133961049Y-89324158D01*
X134050841Y-89413950D01*
X134164925Y-89469723D01*
X134164926Y-89469723D01*
X134164928Y-89469724D01*
X134238890Y-89480500D01*
X134238896Y-89480500D01*
X135761104Y-89480500D01*
X135761110Y-89480500D01*
X135835072Y-89469724D01*
X135949157Y-89413951D01*
X136038951Y-89324157D01*
X136094724Y-89210072D01*
X136105500Y-89136110D01*
X136105500Y-88779023D01*
X158992653Y-88779023D01*
X159027066Y-88952024D01*
X159027069Y-88952034D01*
X159094568Y-89114993D01*
X159094575Y-89115006D01*
X159192573Y-89261669D01*
X159192576Y-89261673D01*
X159317302Y-89386399D01*
X159317306Y-89386402D01*
X159463969Y-89484400D01*
X159463982Y-89484407D01*
X159626941Y-89551906D01*
X159626946Y-89551908D01*
X159626950Y-89551908D01*
X159626951Y-89551909D01*
X159799952Y-89586322D01*
X159799955Y-89586322D01*
X159976355Y-89586322D01*
X160092747Y-89563169D01*
X160149362Y-89551908D01*
X160312332Y-89484404D01*
X160459002Y-89386402D01*
X160583734Y-89261670D01*
X160681736Y-89115000D01*
X160749240Y-88952030D01*
X160783654Y-88779021D01*
X160783654Y-88602623D01*
X160783654Y-88602620D01*
X160749241Y-88429619D01*
X160749240Y-88429618D01*
X160749240Y-88429614D01*
X160749238Y-88429609D01*
X160681739Y-88266650D01*
X160681732Y-88266637D01*
X160583734Y-88119974D01*
X160583731Y-88119970D01*
X160459005Y-87995244D01*
X160459001Y-87995241D01*
X160312338Y-87897243D01*
X160312325Y-87897236D01*
X160149366Y-87829737D01*
X160149356Y-87829734D01*
X159976355Y-87795322D01*
X159976353Y-87795322D01*
X159799955Y-87795322D01*
X159799953Y-87795322D01*
X159626951Y-87829734D01*
X159626941Y-87829737D01*
X159463982Y-87897236D01*
X159463969Y-87897243D01*
X159317306Y-87995241D01*
X159317302Y-87995244D01*
X159192576Y-88119970D01*
X159192573Y-88119974D01*
X159094575Y-88266637D01*
X159094568Y-88266650D01*
X159027069Y-88429609D01*
X159027066Y-88429619D01*
X158992654Y-88602620D01*
X158992654Y-88602623D01*
X158992654Y-88779021D01*
X158992654Y-88779023D01*
X158992653Y-88779023D01*
X136105500Y-88779023D01*
X136105500Y-87863890D01*
X136094724Y-87789928D01*
X136038951Y-87675843D01*
X136038950Y-87675842D01*
X136038950Y-87675841D01*
X135949158Y-87586049D01*
X135835074Y-87530276D01*
X135816581Y-87527582D01*
X135761110Y-87519500D01*
X134238890Y-87519500D01*
X134189582Y-87526684D01*
X134164925Y-87530276D01*
X134050841Y-87586049D01*
X133961049Y-87675841D01*
X133905276Y-87789925D01*
X133905276Y-87789928D01*
X133894500Y-87863890D01*
X131000500Y-87863890D01*
X131000500Y-86982971D01*
X160788704Y-86982971D01*
X160823117Y-87155972D01*
X160823120Y-87155982D01*
X160890619Y-87318941D01*
X160890626Y-87318954D01*
X160988624Y-87465617D01*
X160988627Y-87465621D01*
X161113353Y-87590347D01*
X161113357Y-87590350D01*
X161260020Y-87688348D01*
X161260033Y-87688355D01*
X161422992Y-87755854D01*
X161422997Y-87755856D01*
X161423001Y-87755856D01*
X161423002Y-87755857D01*
X161596003Y-87790270D01*
X161596006Y-87790270D01*
X161772406Y-87790270D01*
X161888798Y-87767117D01*
X161945413Y-87755856D01*
X162108383Y-87688352D01*
X162255053Y-87590350D01*
X162379785Y-87465618D01*
X162477787Y-87318948D01*
X162545291Y-87155978D01*
X162579705Y-86982969D01*
X162579705Y-86806571D01*
X162579705Y-86806568D01*
X162545292Y-86633567D01*
X162545291Y-86633566D01*
X162545291Y-86633562D01*
X162545289Y-86633557D01*
X162477790Y-86470598D01*
X162477783Y-86470585D01*
X162379785Y-86323922D01*
X162379782Y-86323918D01*
X162255056Y-86199192D01*
X162255052Y-86199189D01*
X162108389Y-86101191D01*
X162108376Y-86101184D01*
X161945417Y-86033685D01*
X161945407Y-86033682D01*
X161772406Y-85999270D01*
X161772404Y-85999270D01*
X161596006Y-85999270D01*
X161596004Y-85999270D01*
X161423002Y-86033682D01*
X161422992Y-86033685D01*
X161260033Y-86101184D01*
X161260020Y-86101191D01*
X161113357Y-86199189D01*
X161113353Y-86199192D01*
X160988627Y-86323918D01*
X160988624Y-86323922D01*
X160890626Y-86470585D01*
X160890619Y-86470598D01*
X160823120Y-86633557D01*
X160823117Y-86633567D01*
X160788705Y-86806568D01*
X160788705Y-86806571D01*
X160788705Y-86982969D01*
X160788705Y-86982971D01*
X160788704Y-86982971D01*
X131000500Y-86982971D01*
X131000500Y-85186920D01*
X162584756Y-85186920D01*
X162619169Y-85359921D01*
X162619172Y-85359931D01*
X162686671Y-85522890D01*
X162686678Y-85522903D01*
X162784676Y-85669566D01*
X162784679Y-85669570D01*
X162909405Y-85794296D01*
X162909409Y-85794299D01*
X163056072Y-85892297D01*
X163056085Y-85892304D01*
X163219044Y-85959803D01*
X163219049Y-85959805D01*
X163219053Y-85959805D01*
X163219054Y-85959806D01*
X163392055Y-85994219D01*
X163392058Y-85994219D01*
X163568458Y-85994219D01*
X163684850Y-85971066D01*
X163741465Y-85959805D01*
X163904435Y-85892301D01*
X164051105Y-85794299D01*
X164175837Y-85669567D01*
X164273839Y-85522897D01*
X164341343Y-85359927D01*
X164375757Y-85186918D01*
X164375757Y-85010520D01*
X164375757Y-85010517D01*
X164341344Y-84837516D01*
X164341343Y-84837515D01*
X164341343Y-84837511D01*
X164341341Y-84837506D01*
X164273842Y-84674547D01*
X164273835Y-84674534D01*
X164175837Y-84527871D01*
X164175834Y-84527867D01*
X164051108Y-84403141D01*
X164051104Y-84403138D01*
X163904441Y-84305140D01*
X163904428Y-84305133D01*
X163741469Y-84237634D01*
X163741459Y-84237631D01*
X163568458Y-84203219D01*
X163568456Y-84203219D01*
X163392058Y-84203219D01*
X163392056Y-84203219D01*
X163219054Y-84237631D01*
X163219044Y-84237634D01*
X163056085Y-84305133D01*
X163056072Y-84305140D01*
X162909409Y-84403138D01*
X162909405Y-84403141D01*
X162784679Y-84527867D01*
X162784676Y-84527871D01*
X162686678Y-84674534D01*
X162686671Y-84674547D01*
X162619172Y-84837506D01*
X162619169Y-84837516D01*
X162584757Y-85010517D01*
X162584757Y-85010520D01*
X162584757Y-85186918D01*
X162584757Y-85186920D01*
X162584756Y-85186920D01*
X131000500Y-85186920D01*
X131000500Y-83390869D01*
X164380807Y-83390869D01*
X164415220Y-83563870D01*
X164415223Y-83563880D01*
X164482722Y-83726839D01*
X164482729Y-83726852D01*
X164580727Y-83873515D01*
X164580730Y-83873519D01*
X164705456Y-83998245D01*
X164705460Y-83998248D01*
X164852123Y-84096246D01*
X164852136Y-84096253D01*
X165015095Y-84163752D01*
X165015100Y-84163754D01*
X165015104Y-84163754D01*
X165015105Y-84163755D01*
X165188106Y-84198168D01*
X165188109Y-84198168D01*
X165364509Y-84198168D01*
X165480901Y-84175015D01*
X165537516Y-84163754D01*
X165700486Y-84096250D01*
X165847156Y-83998248D01*
X165971888Y-83873516D01*
X166069890Y-83726846D01*
X166137394Y-83563876D01*
X166171808Y-83390867D01*
X166171808Y-83214469D01*
X166171808Y-83214466D01*
X166137395Y-83041465D01*
X166137394Y-83041464D01*
X166137394Y-83041460D01*
X166117879Y-82994346D01*
X166069893Y-82878496D01*
X166069886Y-82878483D01*
X165971888Y-82731820D01*
X165971885Y-82731816D01*
X165847159Y-82607090D01*
X165847155Y-82607087D01*
X165700492Y-82509089D01*
X165700479Y-82509082D01*
X165537520Y-82441583D01*
X165537510Y-82441580D01*
X165480088Y-82430158D01*
X184469500Y-82430158D01*
X184469500Y-82569842D01*
X184505652Y-82704765D01*
X184575494Y-82825735D01*
X184674265Y-82924506D01*
X184795235Y-82994348D01*
X184930158Y-83030500D01*
X184930160Y-83030500D01*
X185069840Y-83030500D01*
X185069842Y-83030500D01*
X185204765Y-82994348D01*
X185325735Y-82924506D01*
X185424506Y-82825735D01*
X185494348Y-82704765D01*
X185530500Y-82569842D01*
X185530500Y-82430158D01*
X194969500Y-82430158D01*
X194969500Y-82569842D01*
X195005652Y-82704765D01*
X195075494Y-82825735D01*
X195174265Y-82924506D01*
X195295235Y-82994348D01*
X195430158Y-83030500D01*
X195430160Y-83030500D01*
X195569840Y-83030500D01*
X195569842Y-83030500D01*
X195704765Y-82994348D01*
X195825735Y-82924506D01*
X195924506Y-82825735D01*
X195994348Y-82704765D01*
X196030500Y-82569842D01*
X196030500Y-82430158D01*
X195994348Y-82295235D01*
X195924506Y-82174265D01*
X195825735Y-82075494D01*
X195704765Y-82005652D01*
X195569842Y-81969500D01*
X195430158Y-81969500D01*
X195295235Y-82005652D01*
X195295232Y-82005653D01*
X195174263Y-82075495D01*
X195075495Y-82174263D01*
X195005653Y-82295232D01*
X195005652Y-82295235D01*
X194969500Y-82430158D01*
X185530500Y-82430158D01*
X185494348Y-82295235D01*
X185424506Y-82174265D01*
X185325735Y-82075494D01*
X185204765Y-82005652D01*
X185069842Y-81969500D01*
X184930158Y-81969500D01*
X184795235Y-82005652D01*
X184795232Y-82005653D01*
X184674263Y-82075495D01*
X184575495Y-82174263D01*
X184505653Y-82295232D01*
X184505652Y-82295235D01*
X184469500Y-82430158D01*
X165480088Y-82430158D01*
X165364509Y-82407168D01*
X165364507Y-82407168D01*
X165188109Y-82407168D01*
X165188107Y-82407168D01*
X165015105Y-82441580D01*
X165015095Y-82441583D01*
X164852136Y-82509082D01*
X164852123Y-82509089D01*
X164705460Y-82607087D01*
X164705456Y-82607090D01*
X164580730Y-82731816D01*
X164580727Y-82731820D01*
X164482729Y-82878483D01*
X164482722Y-82878496D01*
X164415223Y-83041455D01*
X164415220Y-83041465D01*
X164380808Y-83214466D01*
X164380808Y-83214469D01*
X164380808Y-83390867D01*
X164380808Y-83390869D01*
X164380807Y-83390869D01*
X131000500Y-83390869D01*
X131000500Y-81901678D01*
X133750700Y-81901678D01*
X133750700Y-82098321D01*
X133781462Y-82292546D01*
X133842226Y-82479562D01*
X133842227Y-82479565D01*
X133931502Y-82654775D01*
X133956822Y-82689623D01*
X133956822Y-82689624D01*
X134520874Y-82125572D01*
X134538454Y-82191179D01*
X134603661Y-82304121D01*
X134695879Y-82396339D01*
X134808821Y-82461546D01*
X134874427Y-82479125D01*
X134310375Y-83043176D01*
X134310375Y-83043177D01*
X134345223Y-83068496D01*
X134520434Y-83157772D01*
X134520437Y-83157773D01*
X134707453Y-83218537D01*
X134901679Y-83249300D01*
X135098321Y-83249300D01*
X135292546Y-83218537D01*
X135479562Y-83157773D01*
X135479565Y-83157772D01*
X135597085Y-83097892D01*
X135597086Y-83097891D01*
X135654774Y-83068497D01*
X135689624Y-83043176D01*
X135125573Y-82479125D01*
X135191179Y-82461546D01*
X135304121Y-82396339D01*
X135396339Y-82304121D01*
X135461546Y-82191179D01*
X135479125Y-82125572D01*
X136043176Y-82689623D01*
X136068497Y-82654774D01*
X136068500Y-82654769D01*
X136157767Y-82479575D01*
X136157773Y-82479562D01*
X136218537Y-82292546D01*
X136249300Y-82098321D01*
X136249300Y-81901678D01*
X136218537Y-81707453D01*
X136181940Y-81594818D01*
X166176858Y-81594818D01*
X166211271Y-81767819D01*
X166211274Y-81767829D01*
X166278773Y-81930788D01*
X166278780Y-81930801D01*
X166376778Y-82077464D01*
X166376781Y-82077468D01*
X166501507Y-82202194D01*
X166501511Y-82202197D01*
X166648174Y-82300195D01*
X166648187Y-82300202D01*
X166811146Y-82367701D01*
X166811151Y-82367703D01*
X166811155Y-82367703D01*
X166811156Y-82367704D01*
X166984157Y-82402117D01*
X166984160Y-82402117D01*
X167160560Y-82402117D01*
X167276952Y-82378964D01*
X167333567Y-82367703D01*
X167405484Y-82337914D01*
X167478984Y-82307470D01*
X167478984Y-82307469D01*
X167496537Y-82300199D01*
X167643207Y-82202197D01*
X167767939Y-82077465D01*
X167865941Y-81930795D01*
X167933445Y-81767825D01*
X167967859Y-81594816D01*
X167967859Y-81418418D01*
X167967859Y-81418415D01*
X167933446Y-81245414D01*
X167933445Y-81245413D01*
X167933445Y-81245409D01*
X167933443Y-81245404D01*
X167865944Y-81082445D01*
X167865937Y-81082432D01*
X167767939Y-80935769D01*
X167767936Y-80935765D01*
X167643210Y-80811039D01*
X167643206Y-80811036D01*
X167496543Y-80713038D01*
X167496530Y-80713031D01*
X167333571Y-80645532D01*
X167333561Y-80645529D01*
X167160560Y-80611117D01*
X167160558Y-80611117D01*
X166984160Y-80611117D01*
X166984158Y-80611117D01*
X166811156Y-80645529D01*
X166811146Y-80645532D01*
X166648187Y-80713031D01*
X166648174Y-80713038D01*
X166501511Y-80811036D01*
X166501507Y-80811039D01*
X166376781Y-80935765D01*
X166376778Y-80935769D01*
X166278780Y-81082432D01*
X166278773Y-81082445D01*
X166211274Y-81245404D01*
X166211271Y-81245414D01*
X166176859Y-81418415D01*
X166176859Y-81418418D01*
X166176859Y-81594816D01*
X166176859Y-81594818D01*
X166176858Y-81594818D01*
X136181940Y-81594818D01*
X136157773Y-81520437D01*
X136157770Y-81520430D01*
X136131372Y-81468622D01*
X136131371Y-81468621D01*
X136068496Y-81345223D01*
X136043176Y-81310375D01*
X135479124Y-81874426D01*
X135461546Y-81808821D01*
X135396339Y-81695879D01*
X135304121Y-81603661D01*
X135191179Y-81538454D01*
X135125572Y-81520874D01*
X135689624Y-80956822D01*
X135654775Y-80931502D01*
X135479565Y-80842227D01*
X135479562Y-80842226D01*
X135292546Y-80781462D01*
X135098321Y-80750700D01*
X134901679Y-80750700D01*
X134707453Y-80781462D01*
X134520437Y-80842226D01*
X134520434Y-80842227D01*
X134345220Y-80931505D01*
X134310375Y-80956821D01*
X134310375Y-80956823D01*
X134874428Y-81520874D01*
X134808821Y-81538454D01*
X134695879Y-81603661D01*
X134603661Y-81695879D01*
X134538454Y-81808821D01*
X134520874Y-81874427D01*
X133956823Y-81310375D01*
X133956821Y-81310375D01*
X133931505Y-81345220D01*
X133842227Y-81520434D01*
X133842226Y-81520437D01*
X133781462Y-81707453D01*
X133750700Y-81901678D01*
X131000500Y-81901678D01*
X131000500Y-79413342D01*
X134120200Y-79413342D01*
X134120200Y-79586657D01*
X134154008Y-79756620D01*
X134154011Y-79756632D01*
X134220328Y-79916737D01*
X134220329Y-79916739D01*
X134316614Y-80060839D01*
X134316617Y-80060843D01*
X134439156Y-80183382D01*
X134439160Y-80183385D01*
X134583258Y-80279669D01*
X134583259Y-80279669D01*
X134583260Y-80279670D01*
X134583262Y-80279671D01*
X134743367Y-80345988D01*
X134743372Y-80345990D01*
X134913342Y-80379799D01*
X134913346Y-80379800D01*
X134913347Y-80379800D01*
X135086654Y-80379800D01*
X135086655Y-80379799D01*
X135256628Y-80345990D01*
X135416742Y-80279669D01*
X135560840Y-80183385D01*
X135683385Y-80060840D01*
X135779669Y-79916742D01*
X135845990Y-79756628D01*
X135879800Y-79586653D01*
X135879800Y-79413347D01*
X135845990Y-79243372D01*
X135779669Y-79083258D01*
X135752986Y-79043324D01*
X149169500Y-79043324D01*
X149169500Y-79156675D01*
X149198838Y-79266166D01*
X149198839Y-79266169D01*
X149255511Y-79364329D01*
X149255513Y-79364332D01*
X149255514Y-79364333D01*
X149335667Y-79444486D01*
X149433833Y-79501162D01*
X149543324Y-79530500D01*
X149543326Y-79530500D01*
X149656674Y-79530500D01*
X149656676Y-79530500D01*
X149766167Y-79501162D01*
X149864333Y-79444486D01*
X149944486Y-79364333D01*
X150001162Y-79266167D01*
X150030500Y-79156676D01*
X150030500Y-79043324D01*
X150001162Y-78933833D01*
X149944486Y-78835667D01*
X149864333Y-78755514D01*
X149864332Y-78755513D01*
X149864329Y-78755511D01*
X149766169Y-78698839D01*
X149766168Y-78698838D01*
X149766167Y-78698838D01*
X149656676Y-78669500D01*
X149543324Y-78669500D01*
X149433833Y-78698838D01*
X149433830Y-78698839D01*
X149335670Y-78755511D01*
X149335665Y-78755515D01*
X149255515Y-78835665D01*
X149255511Y-78835670D01*
X149198839Y-78933830D01*
X149198838Y-78933833D01*
X149169500Y-79043324D01*
X135752986Y-79043324D01*
X135683385Y-78939160D01*
X135683382Y-78939156D01*
X135560843Y-78816617D01*
X135560839Y-78816614D01*
X135416739Y-78720329D01*
X135416737Y-78720328D01*
X135256632Y-78654011D01*
X135256620Y-78654008D01*
X135086657Y-78620200D01*
X135086653Y-78620200D01*
X134913347Y-78620200D01*
X134913342Y-78620200D01*
X134743379Y-78654008D01*
X134743367Y-78654011D01*
X134583262Y-78720328D01*
X134583260Y-78720329D01*
X134439160Y-78816614D01*
X134439156Y-78816617D01*
X134316617Y-78939156D01*
X134316614Y-78939160D01*
X134220329Y-79083260D01*
X134220328Y-79083262D01*
X134154011Y-79243367D01*
X134154008Y-79243379D01*
X134120200Y-79413342D01*
X131000500Y-79413342D01*
X131000500Y-76913342D01*
X134120200Y-76913342D01*
X134120200Y-77086657D01*
X134154008Y-77256620D01*
X134154011Y-77256632D01*
X134220328Y-77416737D01*
X134220329Y-77416739D01*
X134316614Y-77560839D01*
X134316617Y-77560843D01*
X134439156Y-77683382D01*
X134439160Y-77683385D01*
X134583258Y-77779669D01*
X134583259Y-77779669D01*
X134583260Y-77779670D01*
X134583262Y-77779671D01*
X134739736Y-77844484D01*
X134743372Y-77845990D01*
X134913342Y-77879799D01*
X134913346Y-77879800D01*
X134913347Y-77879800D01*
X135086654Y-77879800D01*
X135086655Y-77879799D01*
X135256628Y-77845990D01*
X135416742Y-77779669D01*
X135560840Y-77683385D01*
X135683385Y-77560840D01*
X135761907Y-77443324D01*
X161569500Y-77443324D01*
X161569500Y-77556676D01*
X161570616Y-77560839D01*
X161598838Y-77666166D01*
X161598839Y-77666169D01*
X161655511Y-77764329D01*
X161655513Y-77764332D01*
X161655514Y-77764333D01*
X161735667Y-77844486D01*
X161735668Y-77844487D01*
X161735670Y-77844488D01*
X161784750Y-77872824D01*
X161833833Y-77901162D01*
X161943324Y-77930500D01*
X161943326Y-77930500D01*
X162056674Y-77930500D01*
X162056676Y-77930500D01*
X162166167Y-77901162D01*
X162264333Y-77844486D01*
X162344486Y-77764333D01*
X162401162Y-77666167D01*
X162430500Y-77556676D01*
X162430500Y-77443324D01*
X162401162Y-77333833D01*
X162344486Y-77235667D01*
X162264333Y-77155514D01*
X162264332Y-77155513D01*
X162264329Y-77155511D01*
X162166169Y-77098839D01*
X162166168Y-77098838D01*
X162166167Y-77098838D01*
X162056676Y-77069500D01*
X161943324Y-77069500D01*
X161833833Y-77098838D01*
X161833830Y-77098839D01*
X161735670Y-77155511D01*
X161735665Y-77155515D01*
X161655515Y-77235665D01*
X161655511Y-77235670D01*
X161598839Y-77333830D01*
X161598838Y-77333833D01*
X161569500Y-77443324D01*
X135761907Y-77443324D01*
X135779669Y-77416742D01*
X135845990Y-77256628D01*
X135879800Y-77086653D01*
X135879800Y-76913347D01*
X135845990Y-76743372D01*
X135845988Y-76743367D01*
X135779671Y-76583262D01*
X135779670Y-76583260D01*
X135770704Y-76569842D01*
X135686167Y-76443324D01*
X149569500Y-76443324D01*
X149569500Y-76556676D01*
X149573028Y-76569840D01*
X149598838Y-76666166D01*
X149598839Y-76666169D01*
X149655511Y-76764329D01*
X149655513Y-76764332D01*
X149655514Y-76764333D01*
X149735667Y-76844486D01*
X149833833Y-76901162D01*
X149943324Y-76930500D01*
X149943326Y-76930500D01*
X150056674Y-76930500D01*
X150056676Y-76930500D01*
X150166167Y-76901162D01*
X150264333Y-76844486D01*
X150344486Y-76764333D01*
X150401162Y-76666167D01*
X150430500Y-76556676D01*
X150430500Y-76443324D01*
X150426972Y-76430158D01*
X184469500Y-76430158D01*
X184469500Y-76569842D01*
X184505652Y-76704765D01*
X184575494Y-76825735D01*
X184674265Y-76924506D01*
X184795235Y-76994348D01*
X184930158Y-77030500D01*
X184930160Y-77030500D01*
X185069840Y-77030500D01*
X185069842Y-77030500D01*
X185204765Y-76994348D01*
X185325735Y-76924506D01*
X185424506Y-76825735D01*
X185494348Y-76704765D01*
X185530500Y-76569842D01*
X185530500Y-76430158D01*
X185494348Y-76295235D01*
X185424506Y-76174265D01*
X185325735Y-76075494D01*
X185204765Y-76005652D01*
X185069842Y-75969500D01*
X184930158Y-75969500D01*
X184795235Y-76005652D01*
X184795232Y-76005653D01*
X184674263Y-76075495D01*
X184575495Y-76174263D01*
X184505653Y-76295232D01*
X184505652Y-76295235D01*
X184469500Y-76430158D01*
X150426972Y-76430158D01*
X150401162Y-76333833D01*
X150344486Y-76235667D01*
X150264333Y-76155514D01*
X150264332Y-76155513D01*
X150264329Y-76155511D01*
X150166169Y-76098839D01*
X150166168Y-76098838D01*
X150166167Y-76098838D01*
X150056676Y-76069500D01*
X149943324Y-76069500D01*
X149833833Y-76098838D01*
X149833830Y-76098839D01*
X149735670Y-76155511D01*
X149735665Y-76155515D01*
X149655515Y-76235665D01*
X149655511Y-76235670D01*
X149598839Y-76333830D01*
X149598838Y-76333833D01*
X149569500Y-76443324D01*
X135686167Y-76443324D01*
X135683385Y-76439160D01*
X135683382Y-76439156D01*
X135560843Y-76316617D01*
X135560839Y-76316614D01*
X135416739Y-76220329D01*
X135416737Y-76220328D01*
X135256632Y-76154011D01*
X135256620Y-76154008D01*
X135086657Y-76120200D01*
X135086653Y-76120200D01*
X134913347Y-76120200D01*
X134913342Y-76120200D01*
X134743379Y-76154008D01*
X134743367Y-76154011D01*
X134583262Y-76220328D01*
X134583260Y-76220329D01*
X134439160Y-76316614D01*
X134439156Y-76316617D01*
X134316617Y-76439156D01*
X134316614Y-76439160D01*
X134220329Y-76583260D01*
X134220328Y-76583262D01*
X134154011Y-76743367D01*
X134154008Y-76743379D01*
X134120200Y-76913342D01*
X131000500Y-76913342D01*
X131000500Y-74343324D01*
X151669500Y-74343324D01*
X151669500Y-74456675D01*
X151698838Y-74566166D01*
X151698839Y-74566169D01*
X151755511Y-74664329D01*
X151755513Y-74664332D01*
X151755514Y-74664333D01*
X151835667Y-74744486D01*
X151933833Y-74801162D01*
X152043324Y-74830500D01*
X152043326Y-74830500D01*
X152156674Y-74830500D01*
X152156676Y-74830500D01*
X152266167Y-74801162D01*
X152364333Y-74744486D01*
X152444486Y-74664333D01*
X152501162Y-74566167D01*
X152530500Y-74456676D01*
X152530500Y-74343324D01*
X152501162Y-74233833D01*
X152444486Y-74135667D01*
X152364333Y-74055514D01*
X152364332Y-74055513D01*
X152364329Y-74055511D01*
X152266169Y-73998839D01*
X152266168Y-73998838D01*
X152266167Y-73998838D01*
X152156676Y-73969500D01*
X152043324Y-73969500D01*
X151933833Y-73998838D01*
X151933830Y-73998839D01*
X151835670Y-74055511D01*
X151835665Y-74055515D01*
X151755515Y-74135665D01*
X151755511Y-74135670D01*
X151698839Y-74233830D01*
X151698838Y-74233833D01*
X151669500Y-74343324D01*
X131000500Y-74343324D01*
X131000500Y-70845528D01*
X132249500Y-70845528D01*
X132249500Y-71154471D01*
X132284086Y-71461437D01*
X132284089Y-71461455D01*
X132352831Y-71762635D01*
X132352835Y-71762647D01*
X132454862Y-72054222D01*
X132454868Y-72054236D01*
X132588903Y-72332562D01*
X132588905Y-72332565D01*
X132753265Y-72594143D01*
X132945880Y-72835674D01*
X133164326Y-73054120D01*
X133405857Y-73246735D01*
X133667435Y-73411095D01*
X133945771Y-73545135D01*
X133945777Y-73545137D01*
X134237352Y-73647164D01*
X134237364Y-73647168D01*
X134538548Y-73715911D01*
X134538554Y-73715911D01*
X134538562Y-73715913D01*
X134743206Y-73738970D01*
X134845529Y-73750499D01*
X134845532Y-73750500D01*
X134845535Y-73750500D01*
X135154468Y-73750500D01*
X135154469Y-73750499D01*
X135311356Y-73732822D01*
X135461437Y-73715913D01*
X135461442Y-73715912D01*
X135461452Y-73715911D01*
X135762636Y-73647168D01*
X136054229Y-73545135D01*
X136332565Y-73411095D01*
X136594143Y-73246735D01*
X136835674Y-73054120D01*
X137054120Y-72835674D01*
X137246735Y-72594143D01*
X137411095Y-72332565D01*
X137419795Y-72314499D01*
X137440302Y-72271917D01*
X137440302Y-72271916D01*
X137443037Y-72266236D01*
X137545135Y-72054229D01*
X137647168Y-71762636D01*
X137715911Y-71461452D01*
X137719667Y-71428122D01*
X137741823Y-71231479D01*
X140217300Y-71231479D01*
X140217300Y-71428122D01*
X140248062Y-71622347D01*
X140308826Y-71809363D01*
X140308827Y-71809366D01*
X140398102Y-71984576D01*
X140423422Y-72019424D01*
X140423422Y-72019425D01*
X140987474Y-71455373D01*
X141005054Y-71520980D01*
X141070261Y-71633922D01*
X141162479Y-71726140D01*
X141275421Y-71791347D01*
X141341027Y-71808926D01*
X140776975Y-72372977D01*
X140776975Y-72372978D01*
X140811823Y-72398297D01*
X140987034Y-72487573D01*
X140987037Y-72487574D01*
X141174053Y-72548338D01*
X141368279Y-72579101D01*
X141564921Y-72579101D01*
X141759146Y-72548338D01*
X141946162Y-72487574D01*
X141946175Y-72487568D01*
X142121369Y-72398301D01*
X142121374Y-72398298D01*
X142156224Y-72372977D01*
X141592173Y-71808926D01*
X141657779Y-71791347D01*
X141770721Y-71726140D01*
X141862939Y-71633922D01*
X141928146Y-71520980D01*
X141945725Y-71455373D01*
X142509776Y-72019424D01*
X142535097Y-71984575D01*
X142535100Y-71984570D01*
X142624367Y-71809376D01*
X142624373Y-71809363D01*
X142685137Y-71622347D01*
X142715900Y-71428122D01*
X142715900Y-71243143D01*
X143086800Y-71243143D01*
X143086800Y-71416458D01*
X143120608Y-71586421D01*
X143120611Y-71586433D01*
X143186928Y-71746538D01*
X143186929Y-71746540D01*
X143283214Y-71890640D01*
X143283217Y-71890644D01*
X143405756Y-72013183D01*
X143405760Y-72013186D01*
X143549858Y-72109470D01*
X143549859Y-72109470D01*
X143549860Y-72109471D01*
X143549862Y-72109472D01*
X143709967Y-72175789D01*
X143709972Y-72175791D01*
X143879942Y-72209600D01*
X143879946Y-72209601D01*
X143879947Y-72209601D01*
X144053254Y-72209601D01*
X144053255Y-72209600D01*
X144223228Y-72175791D01*
X144383342Y-72109470D01*
X144527440Y-72013186D01*
X144649985Y-71890641D01*
X144746269Y-71746543D01*
X144812590Y-71586429D01*
X144846400Y-71416454D01*
X144846400Y-71243148D01*
X144846399Y-71243143D01*
X145586800Y-71243143D01*
X145586800Y-71416458D01*
X145620608Y-71586421D01*
X145620611Y-71586433D01*
X145686928Y-71746538D01*
X145686929Y-71746540D01*
X145783214Y-71890640D01*
X145783217Y-71890644D01*
X145905756Y-72013183D01*
X145905760Y-72013186D01*
X146049858Y-72109470D01*
X146049859Y-72109470D01*
X146049860Y-72109471D01*
X146049862Y-72109472D01*
X146209967Y-72175789D01*
X146209972Y-72175791D01*
X146379942Y-72209600D01*
X146379946Y-72209601D01*
X146379947Y-72209601D01*
X146553254Y-72209601D01*
X146553255Y-72209600D01*
X146723228Y-72175791D01*
X146883342Y-72109470D01*
X147027440Y-72013186D01*
X147149985Y-71890641D01*
X147246269Y-71746543D01*
X147312590Y-71586429D01*
X147346400Y-71416454D01*
X147346400Y-71243148D01*
X147312590Y-71073173D01*
X147292918Y-71025680D01*
X147251656Y-70926062D01*
X147247310Y-70915574D01*
X147246269Y-70913059D01*
X147226506Y-70883482D01*
X152019500Y-70883482D01*
X152019500Y-71116518D01*
X152034738Y-71212724D01*
X152055955Y-71346685D01*
X152127968Y-71568319D01*
X152218776Y-71746538D01*
X152233763Y-71775951D01*
X152370738Y-71964481D01*
X152535519Y-72129262D01*
X152724049Y-72266237D01*
X152735195Y-72271916D01*
X152931680Y-72372031D01*
X152931682Y-72372031D01*
X152931685Y-72372033D01*
X153153315Y-72444045D01*
X153383482Y-72480500D01*
X153383483Y-72480500D01*
X153616517Y-72480500D01*
X153616518Y-72480500D01*
X153846685Y-72444045D01*
X154068315Y-72372033D01*
X154100463Y-72355653D01*
X154181232Y-72314499D01*
X154195658Y-72307147D01*
X154275951Y-72266237D01*
X154464481Y-72129262D01*
X154629262Y-71964481D01*
X154766237Y-71775951D01*
X154872033Y-71568315D01*
X154944045Y-71346685D01*
X154980500Y-71116518D01*
X154980500Y-70883482D01*
X154979751Y-70878751D01*
X156650000Y-70878751D01*
X156650000Y-71121248D01*
X156650001Y-71121264D01*
X156681653Y-71361687D01*
X156744421Y-71595939D01*
X156837220Y-71819978D01*
X156837227Y-71819992D01*
X156958481Y-72030010D01*
X157027061Y-72119384D01*
X157709521Y-71436923D01*
X157800924Y-71573717D01*
X157926283Y-71699076D01*
X158063074Y-71790477D01*
X157380614Y-72472936D01*
X157380614Y-72472937D01*
X157469989Y-72541517D01*
X157469996Y-72541522D01*
X157680007Y-72662772D01*
X157680021Y-72662779D01*
X157904060Y-72755578D01*
X158138312Y-72818346D01*
X158378735Y-72849998D01*
X158378752Y-72850000D01*
X158621248Y-72850000D01*
X158621264Y-72849998D01*
X158861687Y-72818346D01*
X159095939Y-72755578D01*
X159319978Y-72662779D01*
X159319992Y-72662772D01*
X159530016Y-72541515D01*
X159619384Y-72472939D01*
X159619384Y-72472936D01*
X158936924Y-71790477D01*
X159073717Y-71699076D01*
X159199076Y-71573717D01*
X159290477Y-71436924D01*
X159972936Y-72119384D01*
X159972939Y-72119384D01*
X160041515Y-72030016D01*
X160162772Y-71819992D01*
X160162779Y-71819978D01*
X160255578Y-71595939D01*
X160318346Y-71361687D01*
X160349998Y-71121264D01*
X160350000Y-71121248D01*
X160350000Y-70883482D01*
X163019500Y-70883482D01*
X163019500Y-71116518D01*
X163034738Y-71212724D01*
X163055955Y-71346685D01*
X163127968Y-71568319D01*
X163218776Y-71746538D01*
X163233763Y-71775951D01*
X163370738Y-71964481D01*
X163535519Y-72129262D01*
X163724049Y-72266237D01*
X163735195Y-72271916D01*
X163931680Y-72372031D01*
X163931682Y-72372031D01*
X163931685Y-72372033D01*
X164153315Y-72444045D01*
X164383482Y-72480500D01*
X164383483Y-72480500D01*
X164616517Y-72480500D01*
X164616518Y-72480500D01*
X164846685Y-72444045D01*
X165068315Y-72372033D01*
X165100463Y-72355653D01*
X165181232Y-72314499D01*
X165195658Y-72307147D01*
X165275951Y-72266237D01*
X165464481Y-72129262D01*
X165629262Y-71964481D01*
X165766237Y-71775951D01*
X165872033Y-71568315D01*
X165944045Y-71346685D01*
X165980500Y-71116518D01*
X165980500Y-70883482D01*
X165979751Y-70878751D01*
X167650000Y-70878751D01*
X167650000Y-71121248D01*
X167650001Y-71121264D01*
X167681653Y-71361687D01*
X167744421Y-71595939D01*
X167837220Y-71819978D01*
X167837227Y-71819992D01*
X167958481Y-72030010D01*
X168027061Y-72119384D01*
X168709521Y-71436923D01*
X168800924Y-71573717D01*
X168926283Y-71699076D01*
X169063074Y-71790477D01*
X168380614Y-72472936D01*
X168380614Y-72472937D01*
X168469989Y-72541517D01*
X168469996Y-72541522D01*
X168680007Y-72662772D01*
X168680021Y-72662779D01*
X168904060Y-72755578D01*
X169138312Y-72818346D01*
X169378735Y-72849998D01*
X169378752Y-72850000D01*
X169621248Y-72850000D01*
X169621264Y-72849998D01*
X169861687Y-72818346D01*
X170004206Y-72780158D01*
X172119500Y-72780158D01*
X172119500Y-72919842D01*
X172155652Y-73054765D01*
X172225494Y-73175735D01*
X172324265Y-73274506D01*
X172445235Y-73344348D01*
X172580158Y-73380500D01*
X172580160Y-73380500D01*
X172719840Y-73380500D01*
X172719842Y-73380500D01*
X172854765Y-73344348D01*
X172975735Y-73274506D01*
X173074506Y-73175735D01*
X173144348Y-73054765D01*
X173180500Y-72919842D01*
X173180500Y-72780158D01*
X173144348Y-72645235D01*
X173074506Y-72524265D01*
X172975735Y-72425494D01*
X172854765Y-72355652D01*
X172719842Y-72319500D01*
X172580158Y-72319500D01*
X172445235Y-72355652D01*
X172445232Y-72355653D01*
X172324263Y-72425495D01*
X172225495Y-72524263D01*
X172155653Y-72645232D01*
X172155652Y-72645235D01*
X172119500Y-72780158D01*
X170004206Y-72780158D01*
X170095939Y-72755578D01*
X170319978Y-72662779D01*
X170319992Y-72662772D01*
X170530016Y-72541515D01*
X170619384Y-72472939D01*
X170619384Y-72472936D01*
X169936924Y-71790477D01*
X170073717Y-71699076D01*
X170199076Y-71573717D01*
X170290477Y-71436925D01*
X170972936Y-72119384D01*
X170972939Y-72119384D01*
X171041515Y-72030016D01*
X171162772Y-71819992D01*
X171162779Y-71819978D01*
X171255578Y-71595939D01*
X171307631Y-71401678D01*
X185250700Y-71401678D01*
X185250700Y-71598321D01*
X185281462Y-71792546D01*
X185342226Y-71979562D01*
X185342227Y-71979565D01*
X185431502Y-72154775D01*
X185456822Y-72189623D01*
X185456822Y-72189624D01*
X186020874Y-71625572D01*
X186038454Y-71691179D01*
X186103661Y-71804121D01*
X186195879Y-71896339D01*
X186308821Y-71961546D01*
X186374427Y-71979125D01*
X185810375Y-72543176D01*
X185810375Y-72543177D01*
X185845223Y-72568496D01*
X186020434Y-72657772D01*
X186020437Y-72657773D01*
X186207453Y-72718537D01*
X186401679Y-72749300D01*
X186598321Y-72749300D01*
X186792546Y-72718537D01*
X186979562Y-72657773D01*
X186979575Y-72657767D01*
X187154769Y-72568500D01*
X187154774Y-72568497D01*
X187189623Y-72543176D01*
X186625572Y-71979125D01*
X186691179Y-71961546D01*
X186804121Y-71896339D01*
X186896339Y-71804121D01*
X186961546Y-71691179D01*
X186979125Y-71625572D01*
X187543176Y-72189623D01*
X187568497Y-72154774D01*
X187568500Y-72154769D01*
X187657767Y-71979575D01*
X187657773Y-71979562D01*
X187718537Y-71792546D01*
X187749300Y-71598321D01*
X187749300Y-71413342D01*
X188120200Y-71413342D01*
X188120200Y-71586657D01*
X188154008Y-71756620D01*
X188154011Y-71756632D01*
X188220328Y-71916737D01*
X188220329Y-71916739D01*
X188316614Y-72060839D01*
X188316617Y-72060843D01*
X188439156Y-72183382D01*
X188439160Y-72183385D01*
X188583258Y-72279669D01*
X188583259Y-72279669D01*
X188583260Y-72279670D01*
X188583262Y-72279671D01*
X188710961Y-72332565D01*
X188743372Y-72345990D01*
X188913342Y-72379799D01*
X188913346Y-72379800D01*
X188913347Y-72379800D01*
X189086654Y-72379800D01*
X189086655Y-72379799D01*
X189256628Y-72345990D01*
X189416742Y-72279669D01*
X189560840Y-72183385D01*
X189683385Y-72060840D01*
X189779669Y-71916742D01*
X189845990Y-71756628D01*
X189879800Y-71586653D01*
X189879800Y-71413347D01*
X189845990Y-71243372D01*
X189805842Y-71146446D01*
X189779671Y-71083262D01*
X189779670Y-71083260D01*
X189773124Y-71073464D01*
X189683385Y-70939160D01*
X189683382Y-70939156D01*
X189589754Y-70845528D01*
X192249500Y-70845528D01*
X192249500Y-71154471D01*
X192284086Y-71461437D01*
X192284089Y-71461455D01*
X192352831Y-71762635D01*
X192352835Y-71762647D01*
X192454862Y-72054222D01*
X192454868Y-72054236D01*
X192588903Y-72332562D01*
X192588905Y-72332565D01*
X192753265Y-72594143D01*
X192945880Y-72835674D01*
X193164326Y-73054120D01*
X193405857Y-73246735D01*
X193667435Y-73411095D01*
X193945771Y-73545135D01*
X193945777Y-73545137D01*
X194237352Y-73647164D01*
X194237364Y-73647168D01*
X194538548Y-73715911D01*
X194538554Y-73715911D01*
X194538562Y-73715913D01*
X194743206Y-73738970D01*
X194845529Y-73750499D01*
X194845532Y-73750500D01*
X194845535Y-73750500D01*
X195154468Y-73750500D01*
X195154469Y-73750499D01*
X195311356Y-73732822D01*
X195461437Y-73715913D01*
X195461442Y-73715912D01*
X195461452Y-73715911D01*
X195762636Y-73647168D01*
X196054229Y-73545135D01*
X196332565Y-73411095D01*
X196594143Y-73246735D01*
X196835674Y-73054120D01*
X197054120Y-72835674D01*
X197246735Y-72594143D01*
X197411095Y-72332565D01*
X197545135Y-72054229D01*
X197647168Y-71762636D01*
X197715911Y-71461452D01*
X197719667Y-71428122D01*
X197740482Y-71243379D01*
X197750500Y-71154465D01*
X197750500Y-70845535D01*
X197728921Y-70654011D01*
X197715913Y-70538562D01*
X197715910Y-70538544D01*
X197691478Y-70431502D01*
X197647168Y-70237364D01*
X197545135Y-69945771D01*
X197411095Y-69667435D01*
X197246735Y-69405857D01*
X197054120Y-69164326D01*
X196835674Y-68945880D01*
X196594143Y-68753265D01*
X196332565Y-68588905D01*
X196332562Y-68588903D01*
X196054236Y-68454868D01*
X196054222Y-68454862D01*
X195762647Y-68352835D01*
X195762635Y-68352831D01*
X195461455Y-68284089D01*
X195461437Y-68284086D01*
X195154471Y-68249500D01*
X195154465Y-68249500D01*
X194845535Y-68249500D01*
X194845528Y-68249500D01*
X194538562Y-68284086D01*
X194538544Y-68284089D01*
X194237364Y-68352831D01*
X194237352Y-68352835D01*
X193945777Y-68454862D01*
X193945763Y-68454868D01*
X193667437Y-68588903D01*
X193405858Y-68753264D01*
X193164326Y-68945879D01*
X192945879Y-69164326D01*
X192753264Y-69405858D01*
X192588903Y-69667437D01*
X192454868Y-69945763D01*
X192454862Y-69945777D01*
X192352835Y-70237352D01*
X192352831Y-70237364D01*
X192284089Y-70538544D01*
X192284086Y-70538562D01*
X192249500Y-70845528D01*
X189589754Y-70845528D01*
X189560843Y-70816617D01*
X189560839Y-70816614D01*
X189416739Y-70720329D01*
X189416737Y-70720328D01*
X189256632Y-70654011D01*
X189256620Y-70654008D01*
X189086657Y-70620200D01*
X189086653Y-70620200D01*
X188913347Y-70620200D01*
X188913342Y-70620200D01*
X188743379Y-70654008D01*
X188743367Y-70654011D01*
X188583262Y-70720328D01*
X188583260Y-70720329D01*
X188439160Y-70816614D01*
X188439156Y-70816617D01*
X188316617Y-70939156D01*
X188316614Y-70939160D01*
X188220329Y-71083260D01*
X188220328Y-71083262D01*
X188154011Y-71243367D01*
X188154008Y-71243379D01*
X188120200Y-71413342D01*
X187749300Y-71413342D01*
X187749300Y-71401678D01*
X187718537Y-71207453D01*
X187657773Y-71020437D01*
X187657772Y-71020434D01*
X187568496Y-70845223D01*
X187543176Y-70810375D01*
X186979124Y-71374426D01*
X186961546Y-71308821D01*
X186896339Y-71195879D01*
X186804121Y-71103661D01*
X186691179Y-71038454D01*
X186625572Y-71020874D01*
X187189624Y-70456822D01*
X187154775Y-70431502D01*
X186979565Y-70342227D01*
X186979562Y-70342226D01*
X186792546Y-70281462D01*
X186598321Y-70250700D01*
X186401679Y-70250700D01*
X186207453Y-70281462D01*
X186020437Y-70342226D01*
X186020434Y-70342227D01*
X185845220Y-70431505D01*
X185810375Y-70456821D01*
X185810375Y-70456823D01*
X186374428Y-71020874D01*
X186308821Y-71038454D01*
X186195879Y-71103661D01*
X186103661Y-71195879D01*
X186038454Y-71308821D01*
X186020874Y-71374427D01*
X185456823Y-70810375D01*
X185456821Y-70810375D01*
X185431505Y-70845220D01*
X185342227Y-71020434D01*
X185342226Y-71020437D01*
X185281462Y-71207453D01*
X185250700Y-71401678D01*
X171307631Y-71401678D01*
X171317536Y-71364712D01*
X171317536Y-71364710D01*
X171318345Y-71361691D01*
X171318345Y-71361690D01*
X171349998Y-71121264D01*
X171350000Y-71121248D01*
X171350000Y-70878751D01*
X171349998Y-70878735D01*
X171318346Y-70638310D01*
X171290979Y-70536175D01*
X171255578Y-70404060D01*
X171162779Y-70180021D01*
X171162772Y-70180007D01*
X171041522Y-69969996D01*
X171041517Y-69969989D01*
X170972937Y-69880614D01*
X170972936Y-69880614D01*
X170290476Y-70563074D01*
X170199076Y-70426283D01*
X170073717Y-70300924D01*
X169936923Y-70209521D01*
X170619384Y-69527061D01*
X170530010Y-69458481D01*
X170319992Y-69337227D01*
X170319978Y-69337220D01*
X170095939Y-69244421D01*
X169861687Y-69181653D01*
X169621264Y-69150001D01*
X169621248Y-69150000D01*
X169378752Y-69150000D01*
X169378735Y-69150001D01*
X169138312Y-69181653D01*
X168904060Y-69244421D01*
X168680021Y-69337220D01*
X168680006Y-69337227D01*
X168469990Y-69458480D01*
X168380614Y-69527060D01*
X168380614Y-69527061D01*
X169063075Y-70209522D01*
X168926283Y-70300924D01*
X168800924Y-70426283D01*
X168709522Y-70563075D01*
X168027061Y-69880614D01*
X168027060Y-69880614D01*
X167958480Y-69969990D01*
X167837227Y-70180006D01*
X167837220Y-70180021D01*
X167744421Y-70404060D01*
X167681653Y-70638312D01*
X167650001Y-70878735D01*
X167650000Y-70878751D01*
X165979751Y-70878751D01*
X165944045Y-70653315D01*
X165872033Y-70431685D01*
X165872031Y-70431682D01*
X165872031Y-70431680D01*
X165805407Y-70300924D01*
X165766237Y-70224049D01*
X165629262Y-70035519D01*
X165464481Y-69870738D01*
X165275951Y-69733763D01*
X165181228Y-69685499D01*
X165068319Y-69627968D01*
X164846685Y-69555955D01*
X164616518Y-69519500D01*
X164383482Y-69519500D01*
X164335744Y-69527061D01*
X164153314Y-69555955D01*
X163931680Y-69627968D01*
X163724048Y-69733763D01*
X163535516Y-69870740D01*
X163370740Y-70035516D01*
X163233763Y-70224048D01*
X163127968Y-70431680D01*
X163055955Y-70653314D01*
X163037639Y-70768957D01*
X163019500Y-70883482D01*
X160350000Y-70883482D01*
X160350000Y-70878751D01*
X160349998Y-70878735D01*
X160318346Y-70638312D01*
X160255578Y-70404060D01*
X160162779Y-70180021D01*
X160162772Y-70180007D01*
X160041522Y-69969996D01*
X160041517Y-69969989D01*
X159972937Y-69880614D01*
X159972936Y-69880614D01*
X159290476Y-70563074D01*
X159199076Y-70426283D01*
X159073717Y-70300924D01*
X158936923Y-70209521D01*
X159619384Y-69527061D01*
X159530010Y-69458481D01*
X159319992Y-69337227D01*
X159319978Y-69337220D01*
X159095939Y-69244421D01*
X158861687Y-69181653D01*
X158621264Y-69150001D01*
X158621248Y-69150000D01*
X158378752Y-69150000D01*
X158378735Y-69150001D01*
X158138312Y-69181653D01*
X157904060Y-69244421D01*
X157680021Y-69337220D01*
X157680006Y-69337227D01*
X157469990Y-69458480D01*
X157380614Y-69527060D01*
X157380614Y-69527061D01*
X158063075Y-70209522D01*
X157926283Y-70300924D01*
X157800924Y-70426283D01*
X157709522Y-70563075D01*
X157027061Y-69880614D01*
X157027060Y-69880614D01*
X156958480Y-69969990D01*
X156837227Y-70180006D01*
X156837220Y-70180021D01*
X156744421Y-70404060D01*
X156681653Y-70638312D01*
X156650001Y-70878735D01*
X156650000Y-70878751D01*
X154979751Y-70878751D01*
X154944045Y-70653315D01*
X154872033Y-70431685D01*
X154872031Y-70431682D01*
X154872031Y-70431680D01*
X154805407Y-70300924D01*
X154766237Y-70224049D01*
X154629262Y-70035519D01*
X154464481Y-69870738D01*
X154275951Y-69733763D01*
X154181228Y-69685499D01*
X154068319Y-69627968D01*
X153846685Y-69555955D01*
X153616518Y-69519500D01*
X153383482Y-69519500D01*
X153335744Y-69527061D01*
X153153314Y-69555955D01*
X152931680Y-69627968D01*
X152724048Y-69733763D01*
X152535516Y-69870740D01*
X152370740Y-70035516D01*
X152233763Y-70224048D01*
X152127968Y-70431680D01*
X152055955Y-70653314D01*
X152037639Y-70768957D01*
X152019500Y-70883482D01*
X147226506Y-70883482D01*
X147149985Y-70768961D01*
X147149982Y-70768957D01*
X147027443Y-70646418D01*
X147027439Y-70646415D01*
X146883339Y-70550130D01*
X146883337Y-70550129D01*
X146723232Y-70483812D01*
X146723220Y-70483809D01*
X146553257Y-70450001D01*
X146553253Y-70450001D01*
X146379947Y-70450001D01*
X146379942Y-70450001D01*
X146209979Y-70483809D01*
X146209967Y-70483812D01*
X146049862Y-70550129D01*
X146049860Y-70550130D01*
X145905760Y-70646415D01*
X145905756Y-70646418D01*
X145783217Y-70768957D01*
X145783214Y-70768961D01*
X145686929Y-70913061D01*
X145686928Y-70913063D01*
X145620611Y-71073168D01*
X145620608Y-71073180D01*
X145586800Y-71243143D01*
X144846399Y-71243143D01*
X144812590Y-71073173D01*
X144784228Y-71004700D01*
X144746271Y-70913063D01*
X144746270Y-70913061D01*
X144716331Y-70868255D01*
X144649985Y-70768961D01*
X144649982Y-70768957D01*
X144527443Y-70646418D01*
X144527439Y-70646415D01*
X144383339Y-70550130D01*
X144383337Y-70550129D01*
X144223232Y-70483812D01*
X144223220Y-70483809D01*
X144053257Y-70450001D01*
X144053253Y-70450001D01*
X143879947Y-70450001D01*
X143879942Y-70450001D01*
X143709979Y-70483809D01*
X143709967Y-70483812D01*
X143549862Y-70550129D01*
X143549860Y-70550130D01*
X143405760Y-70646415D01*
X143405756Y-70646418D01*
X143283217Y-70768957D01*
X143283214Y-70768961D01*
X143186929Y-70913061D01*
X143186928Y-70913063D01*
X143120611Y-71073168D01*
X143120608Y-71073180D01*
X143086800Y-71243143D01*
X142715900Y-71243143D01*
X142715900Y-71231479D01*
X142685137Y-71037254D01*
X142624373Y-70850238D01*
X142624372Y-70850235D01*
X142535096Y-70675024D01*
X142509776Y-70640176D01*
X141945724Y-71204227D01*
X141928146Y-71138622D01*
X141862939Y-71025680D01*
X141770721Y-70933462D01*
X141657779Y-70868255D01*
X141592172Y-70850675D01*
X142156224Y-70286623D01*
X142121375Y-70261303D01*
X141946165Y-70172028D01*
X141946162Y-70172027D01*
X141759146Y-70111263D01*
X141564921Y-70080501D01*
X141368279Y-70080501D01*
X141174053Y-70111263D01*
X140987037Y-70172027D01*
X140987034Y-70172028D01*
X140811820Y-70261306D01*
X140776975Y-70286622D01*
X140776975Y-70286624D01*
X141341028Y-70850675D01*
X141275421Y-70868255D01*
X141162479Y-70933462D01*
X141070261Y-71025680D01*
X141005054Y-71138622D01*
X140987474Y-71204228D01*
X140423423Y-70640176D01*
X140423421Y-70640176D01*
X140398105Y-70675021D01*
X140308827Y-70850235D01*
X140308826Y-70850238D01*
X140248062Y-71037254D01*
X140217300Y-71231479D01*
X137741823Y-71231479D01*
X137743936Y-71212724D01*
X137743936Y-71212723D01*
X137750499Y-71154471D01*
X137750500Y-71154465D01*
X137750500Y-70845535D01*
X137728921Y-70654011D01*
X137715913Y-70538562D01*
X137715910Y-70538544D01*
X137675496Y-70361475D01*
X137657026Y-70280556D01*
X137647168Y-70237364D01*
X137545135Y-69945771D01*
X137411095Y-69667435D01*
X137246735Y-69405857D01*
X137054120Y-69164326D01*
X136835674Y-68945880D01*
X136594143Y-68753265D01*
X136332565Y-68588905D01*
X136332562Y-68588903D01*
X136054236Y-68454868D01*
X136054222Y-68454862D01*
X135762647Y-68352835D01*
X135762635Y-68352831D01*
X135461455Y-68284089D01*
X135461437Y-68284086D01*
X135154471Y-68249500D01*
X135154465Y-68249500D01*
X134845535Y-68249500D01*
X134845528Y-68249500D01*
X134538562Y-68284086D01*
X134538544Y-68284089D01*
X134237364Y-68352831D01*
X134237352Y-68352835D01*
X133945777Y-68454862D01*
X133945763Y-68454868D01*
X133667437Y-68588903D01*
X133405858Y-68753264D01*
X133164326Y-68945879D01*
X132945879Y-69164326D01*
X132753264Y-69405858D01*
X132588903Y-69667437D01*
X132454868Y-69945763D01*
X132454862Y-69945777D01*
X132352835Y-70237352D01*
X132352831Y-70237364D01*
X132284089Y-70538544D01*
X132284086Y-70538562D01*
X132249500Y-70845528D01*
X131000500Y-70845528D01*
X131000500Y-67624500D01*
X131020185Y-67557461D01*
X131072989Y-67511706D01*
X131124500Y-67500500D01*
X172609336Y-67500500D01*
X172676375Y-67520185D01*
G37*
%TD.AperFunction*%
%TD*%
M02*
